<?xml version="1.0" encoding="utf-8" standalone="no"?>
<!DOCTYPE svg PUBLIC "-//W3C//DTD SVG 1.1//EN"
  "http://www.w3.org/Graphics/SVG/1.1/DTD/svg11.dtd">
<!-- Created with matplotlib (https://matplotlib.org/) -->
<svg height="432pt" version="1.1" viewBox="0 0 720 432" width="720pt" xmlns="http://www.w3.org/2000/svg" xmlns:xlink="http://www.w3.org/1999/xlink">
 <defs>
  <style type="text/css">
*{stroke-linecap:butt;stroke-linejoin:round;}
  </style>
 </defs>
 <g id="figure_1">
  <g id="patch_1">
   <path d="M 0 432 
L 720 432 
L 720 0 
L 0 0 
z
" style="fill:#ffffff;"/>
  </g>
  <g id="axes_1">
   <g id="patch_2">
    <path d="M 90 384.48 
L 343.636364 384.48 
L 343.636364 51.84 
L 90 51.84 
z
" style="fill:#ffffff;"/>
   </g>
   <g id="matplotlib.axis_1">
    <g id="xtick_1">
     <g id="line2d_1">
      <defs>
       <path d="M 0 0 
L 0 3.5 
" id="m0da27dd1ff" style="stroke:#000000;stroke-width:0.8;"/>
      </defs>
      <g>
       <use style="stroke:#000000;stroke-width:0.8;" x="90" xlink:href="#m0da27dd1ff" y="384.48"/>
      </g>
     </g>
     <g id="text_1">
      <!-- 0 -->
      <defs>
       <path d="M 31.78125 66.40625 
Q 24.171875 66.40625 20.328125 58.90625 
Q 16.5 51.421875 16.5 36.375 
Q 16.5 21.390625 20.328125 13.890625 
Q 24.171875 6.390625 31.78125 6.390625 
Q 39.453125 6.390625 43.28125 13.890625 
Q 47.125 21.390625 47.125 36.375 
Q 47.125 51.421875 43.28125 58.90625 
Q 39.453125 66.40625 31.78125 66.40625 
z
M 31.78125 74.21875 
Q 44.046875 74.21875 50.515625 64.515625 
Q 56.984375 54.828125 56.984375 36.375 
Q 56.984375 17.96875 50.515625 8.265625 
Q 44.046875 -1.421875 31.78125 -1.421875 
Q 19.53125 -1.421875 13.0625 8.265625 
Q 6.59375 17.96875 6.59375 36.375 
Q 6.59375 54.828125 13.0625 64.515625 
Q 19.53125 74.21875 31.78125 74.21875 
z
" id="DejaVuSans-48"/>
      </defs>
      <g transform="translate(86.81875 399.078438)scale(0.1 -0.1)">
       <use xlink:href="#DejaVuSans-48"/>
      </g>
     </g>
    </g>
    <g id="xtick_2">
     <g id="line2d_2">
      <g>
       <use style="stroke:#000000;stroke-width:0.8;" x="132.272727" xlink:href="#m0da27dd1ff" y="384.48"/>
      </g>
     </g>
     <g id="text_2">
      <!-- 50 -->
      <defs>
       <path d="M 10.796875 72.90625 
L 49.515625 72.90625 
L 49.515625 64.59375 
L 19.828125 64.59375 
L 19.828125 46.734375 
Q 21.96875 47.46875 24.109375 47.828125 
Q 26.265625 48.1875 28.421875 48.1875 
Q 40.625 48.1875 47.75 41.5 
Q 54.890625 34.8125 54.890625 23.390625 
Q 54.890625 11.625 47.5625 5.09375 
Q 40.234375 -1.421875 26.90625 -1.421875 
Q 22.3125 -1.421875 17.546875 -0.640625 
Q 12.796875 0.140625 7.71875 1.703125 
L 7.71875 11.625 
Q 12.109375 9.234375 16.796875 8.0625 
Q 21.484375 6.890625 26.703125 6.890625 
Q 35.15625 6.890625 40.078125 11.328125 
Q 45.015625 15.765625 45.015625 23.390625 
Q 45.015625 31 40.078125 35.4375 
Q 35.15625 39.890625 26.703125 39.890625 
Q 22.75 39.890625 18.8125 39.015625 
Q 14.890625 38.140625 10.796875 36.28125 
z
" id="DejaVuSans-53"/>
      </defs>
      <g transform="translate(125.910227 399.078438)scale(0.1 -0.1)">
       <use xlink:href="#DejaVuSans-53"/>
       <use x="63.623047" xlink:href="#DejaVuSans-48"/>
      </g>
     </g>
    </g>
    <g id="xtick_3">
     <g id="line2d_3">
      <g>
       <use style="stroke:#000000;stroke-width:0.8;" x="174.545455" xlink:href="#m0da27dd1ff" y="384.48"/>
      </g>
     </g>
     <g id="text_3">
      <!-- 100 -->
      <defs>
       <path d="M 12.40625 8.296875 
L 28.515625 8.296875 
L 28.515625 63.921875 
L 10.984375 60.40625 
L 10.984375 69.390625 
L 28.421875 72.90625 
L 38.28125 72.90625 
L 38.28125 8.296875 
L 54.390625 8.296875 
L 54.390625 0 
L 12.40625 0 
z
" id="DejaVuSans-49"/>
      </defs>
      <g transform="translate(165.001705 399.078438)scale(0.1 -0.1)">
       <use xlink:href="#DejaVuSans-49"/>
       <use x="63.623047" xlink:href="#DejaVuSans-48"/>
       <use x="127.246094" xlink:href="#DejaVuSans-48"/>
      </g>
     </g>
    </g>
    <g id="xtick_4">
     <g id="line2d_4">
      <g>
       <use style="stroke:#000000;stroke-width:0.8;" x="216.818182" xlink:href="#m0da27dd1ff" y="384.48"/>
      </g>
     </g>
     <g id="text_4">
      <!-- 150 -->
      <g transform="translate(207.274432 399.078438)scale(0.1 -0.1)">
       <use xlink:href="#DejaVuSans-49"/>
       <use x="63.623047" xlink:href="#DejaVuSans-53"/>
       <use x="127.246094" xlink:href="#DejaVuSans-48"/>
      </g>
     </g>
    </g>
    <g id="xtick_5">
     <g id="line2d_5">
      <g>
       <use style="stroke:#000000;stroke-width:0.8;" x="259.090909" xlink:href="#m0da27dd1ff" y="384.48"/>
      </g>
     </g>
     <g id="text_5">
      <!-- 200 -->
      <defs>
       <path d="M 19.1875 8.296875 
L 53.609375 8.296875 
L 53.609375 0 
L 7.328125 0 
L 7.328125 8.296875 
Q 12.9375 14.109375 22.625 23.890625 
Q 32.328125 33.6875 34.8125 36.53125 
Q 39.546875 41.84375 41.421875 45.53125 
Q 43.3125 49.21875 43.3125 52.78125 
Q 43.3125 58.59375 39.234375 62.25 
Q 35.15625 65.921875 28.609375 65.921875 
Q 23.96875 65.921875 18.8125 64.3125 
Q 13.671875 62.703125 7.8125 59.421875 
L 7.8125 69.390625 
Q 13.765625 71.78125 18.9375 73 
Q 24.125 74.21875 28.421875 74.21875 
Q 39.75 74.21875 46.484375 68.546875 
Q 53.21875 62.890625 53.21875 53.421875 
Q 53.21875 48.921875 51.53125 44.890625 
Q 49.859375 40.875 45.40625 35.40625 
Q 44.1875 33.984375 37.640625 27.21875 
Q 31.109375 20.453125 19.1875 8.296875 
z
" id="DejaVuSans-50"/>
      </defs>
      <g transform="translate(249.547159 399.078438)scale(0.1 -0.1)">
       <use xlink:href="#DejaVuSans-50"/>
       <use x="63.623047" xlink:href="#DejaVuSans-48"/>
       <use x="127.246094" xlink:href="#DejaVuSans-48"/>
      </g>
     </g>
    </g>
    <g id="xtick_6">
     <g id="line2d_6">
      <g>
       <use style="stroke:#000000;stroke-width:0.8;" x="301.363636" xlink:href="#m0da27dd1ff" y="384.48"/>
      </g>
     </g>
     <g id="text_6">
      <!-- 250 -->
      <g transform="translate(291.819886 399.078438)scale(0.1 -0.1)">
       <use xlink:href="#DejaVuSans-50"/>
       <use x="63.623047" xlink:href="#DejaVuSans-53"/>
       <use x="127.246094" xlink:href="#DejaVuSans-48"/>
      </g>
     </g>
    </g>
    <g id="xtick_7">
     <g id="line2d_7">
      <g>
       <use style="stroke:#000000;stroke-width:0.8;" x="343.636364" xlink:href="#m0da27dd1ff" y="384.48"/>
      </g>
     </g>
     <g id="text_7">
      <!-- 300 -->
      <defs>
       <path d="M 40.578125 39.3125 
Q 47.65625 37.796875 51.625 33 
Q 55.609375 28.21875 55.609375 21.1875 
Q 55.609375 10.40625 48.1875 4.484375 
Q 40.765625 -1.421875 27.09375 -1.421875 
Q 22.515625 -1.421875 17.65625 -0.515625 
Q 12.796875 0.390625 7.625 2.203125 
L 7.625 11.71875 
Q 11.71875 9.328125 16.59375 8.109375 
Q 21.484375 6.890625 26.8125 6.890625 
Q 36.078125 6.890625 40.9375 10.546875 
Q 45.796875 14.203125 45.796875 21.1875 
Q 45.796875 27.640625 41.28125 31.265625 
Q 36.765625 34.90625 28.71875 34.90625 
L 20.21875 34.90625 
L 20.21875 43.015625 
L 29.109375 43.015625 
Q 36.375 43.015625 40.234375 45.921875 
Q 44.09375 48.828125 44.09375 54.296875 
Q 44.09375 59.90625 40.109375 62.90625 
Q 36.140625 65.921875 28.71875 65.921875 
Q 24.65625 65.921875 20.015625 65.03125 
Q 15.375 64.15625 9.8125 62.3125 
L 9.8125 71.09375 
Q 15.4375 72.65625 20.34375 73.4375 
Q 25.25 74.21875 29.59375 74.21875 
Q 40.828125 74.21875 47.359375 69.109375 
Q 53.90625 64.015625 53.90625 55.328125 
Q 53.90625 49.265625 50.4375 45.09375 
Q 46.96875 40.921875 40.578125 39.3125 
z
" id="DejaVuSans-51"/>
      </defs>
      <g transform="translate(334.092614 399.078438)scale(0.1 -0.1)">
       <use xlink:href="#DejaVuSans-51"/>
       <use x="63.623047" xlink:href="#DejaVuSans-48"/>
       <use x="127.246094" xlink:href="#DejaVuSans-48"/>
      </g>
     </g>
    </g>
    <g id="text_8">
     <!-- Epoch -->
     <defs>
      <path d="M 9.8125 72.90625 
L 55.90625 72.90625 
L 55.90625 64.59375 
L 19.671875 64.59375 
L 19.671875 43.015625 
L 54.390625 43.015625 
L 54.390625 34.71875 
L 19.671875 34.71875 
L 19.671875 8.296875 
L 56.78125 8.296875 
L 56.78125 0 
L 9.8125 0 
z
" id="DejaVuSans-69"/>
      <path d="M 18.109375 8.203125 
L 18.109375 -20.796875 
L 9.078125 -20.796875 
L 9.078125 54.6875 
L 18.109375 54.6875 
L 18.109375 46.390625 
Q 20.953125 51.265625 25.265625 53.625 
Q 29.59375 56 35.59375 56 
Q 45.5625 56 51.78125 48.09375 
Q 58.015625 40.1875 58.015625 27.296875 
Q 58.015625 14.40625 51.78125 6.484375 
Q 45.5625 -1.421875 35.59375 -1.421875 
Q 29.59375 -1.421875 25.265625 0.953125 
Q 20.953125 3.328125 18.109375 8.203125 
z
M 48.6875 27.296875 
Q 48.6875 37.203125 44.609375 42.84375 
Q 40.53125 48.484375 33.40625 48.484375 
Q 26.265625 48.484375 22.1875 42.84375 
Q 18.109375 37.203125 18.109375 27.296875 
Q 18.109375 17.390625 22.1875 11.75 
Q 26.265625 6.109375 33.40625 6.109375 
Q 40.53125 6.109375 44.609375 11.75 
Q 48.6875 17.390625 48.6875 27.296875 
z
" id="DejaVuSans-112"/>
      <path d="M 30.609375 48.390625 
Q 23.390625 48.390625 19.1875 42.75 
Q 14.984375 37.109375 14.984375 27.296875 
Q 14.984375 17.484375 19.15625 11.84375 
Q 23.34375 6.203125 30.609375 6.203125 
Q 37.796875 6.203125 41.984375 11.859375 
Q 46.1875 17.53125 46.1875 27.296875 
Q 46.1875 37.015625 41.984375 42.703125 
Q 37.796875 48.390625 30.609375 48.390625 
z
M 30.609375 56 
Q 42.328125 56 49.015625 48.375 
Q 55.71875 40.765625 55.71875 27.296875 
Q 55.71875 13.875 49.015625 6.21875 
Q 42.328125 -1.421875 30.609375 -1.421875 
Q 18.84375 -1.421875 12.171875 6.21875 
Q 5.515625 13.875 5.515625 27.296875 
Q 5.515625 40.765625 12.171875 48.375 
Q 18.84375 56 30.609375 56 
z
" id="DejaVuSans-111"/>
      <path d="M 48.78125 52.59375 
L 48.78125 44.1875 
Q 44.96875 46.296875 41.140625 47.34375 
Q 37.3125 48.390625 33.40625 48.390625 
Q 24.65625 48.390625 19.8125 42.84375 
Q 14.984375 37.3125 14.984375 27.296875 
Q 14.984375 17.28125 19.8125 11.734375 
Q 24.65625 6.203125 33.40625 6.203125 
Q 37.3125 6.203125 41.140625 7.25 
Q 44.96875 8.296875 48.78125 10.40625 
L 48.78125 2.09375 
Q 45.015625 0.34375 40.984375 -0.53125 
Q 36.96875 -1.421875 32.421875 -1.421875 
Q 20.0625 -1.421875 12.78125 6.34375 
Q 5.515625 14.109375 5.515625 27.296875 
Q 5.515625 40.671875 12.859375 48.328125 
Q 20.21875 56 33.015625 56 
Q 37.15625 56 41.109375 55.140625 
Q 45.0625 54.296875 48.78125 52.59375 
z
" id="DejaVuSans-99"/>
      <path d="M 54.890625 33.015625 
L 54.890625 0 
L 45.90625 0 
L 45.90625 32.71875 
Q 45.90625 40.484375 42.875 44.328125 
Q 39.84375 48.1875 33.796875 48.1875 
Q 26.515625 48.1875 22.3125 43.546875 
Q 18.109375 38.921875 18.109375 30.90625 
L 18.109375 0 
L 9.078125 0 
L 9.078125 75.984375 
L 18.109375 75.984375 
L 18.109375 46.1875 
Q 21.34375 51.125 25.703125 53.5625 
Q 30.078125 56 35.796875 56 
Q 45.21875 56 50.046875 50.171875 
Q 54.890625 44.34375 54.890625 33.015625 
z
" id="DejaVuSans-104"/>
     </defs>
     <g transform="translate(201.507244 412.756563)scale(0.1 -0.1)">
      <use xlink:href="#DejaVuSans-69"/>
      <use x="63.183594" xlink:href="#DejaVuSans-112"/>
      <use x="126.660156" xlink:href="#DejaVuSans-111"/>
      <use x="187.841797" xlink:href="#DejaVuSans-99"/>
      <use x="242.822266" xlink:href="#DejaVuSans-104"/>
     </g>
    </g>
   </g>
   <g id="matplotlib.axis_2">
    <g id="ytick_1">
     <g id="line2d_8">
      <defs>
       <path d="M 0 0 
L -3.5 0 
" id="med396186ca" style="stroke:#000000;stroke-width:0.8;"/>
      </defs>
      <g>
       <use style="stroke:#000000;stroke-width:0.8;" x="90" xlink:href="#med396186ca" y="362.327442"/>
      </g>
     </g>
     <g id="text_9">
      <!-- 0.3 -->
      <defs>
       <path d="M 10.6875 12.40625 
L 21 12.40625 
L 21 0 
L 10.6875 0 
z
" id="DejaVuSans-46"/>
      </defs>
      <g transform="translate(67.096875 366.126661)scale(0.1 -0.1)">
       <use xlink:href="#DejaVuSans-48"/>
       <use x="63.623047" xlink:href="#DejaVuSans-46"/>
       <use x="95.410156" xlink:href="#DejaVuSans-51"/>
      </g>
     </g>
    </g>
    <g id="ytick_2">
     <g id="line2d_9">
      <g>
       <use style="stroke:#000000;stroke-width:0.8;" x="90" xlink:href="#med396186ca" y="320.132093"/>
      </g>
     </g>
     <g id="text_10">
      <!-- 0.4 -->
      <defs>
       <path d="M 37.796875 64.3125 
L 12.890625 25.390625 
L 37.796875 25.390625 
z
M 35.203125 72.90625 
L 47.609375 72.90625 
L 47.609375 25.390625 
L 58.015625 25.390625 
L 58.015625 17.1875 
L 47.609375 17.1875 
L 47.609375 0 
L 37.796875 0 
L 37.796875 17.1875 
L 4.890625 17.1875 
L 4.890625 26.703125 
z
" id="DejaVuSans-52"/>
      </defs>
      <g transform="translate(67.096875 323.931312)scale(0.1 -0.1)">
       <use xlink:href="#DejaVuSans-48"/>
       <use x="63.623047" xlink:href="#DejaVuSans-46"/>
       <use x="95.410156" xlink:href="#DejaVuSans-52"/>
      </g>
     </g>
    </g>
    <g id="ytick_3">
     <g id="line2d_10">
      <g>
       <use style="stroke:#000000;stroke-width:0.8;" x="90" xlink:href="#med396186ca" y="277.936744"/>
      </g>
     </g>
     <g id="text_11">
      <!-- 0.5 -->
      <g transform="translate(67.096875 281.735963)scale(0.1 -0.1)">
       <use xlink:href="#DejaVuSans-48"/>
       <use x="63.623047" xlink:href="#DejaVuSans-46"/>
       <use x="95.410156" xlink:href="#DejaVuSans-53"/>
      </g>
     </g>
    </g>
    <g id="ytick_4">
     <g id="line2d_11">
      <g>
       <use style="stroke:#000000;stroke-width:0.8;" x="90" xlink:href="#med396186ca" y="235.741395"/>
      </g>
     </g>
     <g id="text_12">
      <!-- 0.6 -->
      <defs>
       <path d="M 33.015625 40.375 
Q 26.375 40.375 22.484375 35.828125 
Q 18.609375 31.296875 18.609375 23.390625 
Q 18.609375 15.53125 22.484375 10.953125 
Q 26.375 6.390625 33.015625 6.390625 
Q 39.65625 6.390625 43.53125 10.953125 
Q 47.40625 15.53125 47.40625 23.390625 
Q 47.40625 31.296875 43.53125 35.828125 
Q 39.65625 40.375 33.015625 40.375 
z
M 52.59375 71.296875 
L 52.59375 62.3125 
Q 48.875 64.0625 45.09375 64.984375 
Q 41.3125 65.921875 37.59375 65.921875 
Q 27.828125 65.921875 22.671875 59.328125 
Q 17.53125 52.734375 16.796875 39.40625 
Q 19.671875 43.65625 24.015625 45.921875 
Q 28.375 48.1875 33.59375 48.1875 
Q 44.578125 48.1875 50.953125 41.515625 
Q 57.328125 34.859375 57.328125 23.390625 
Q 57.328125 12.15625 50.6875 5.359375 
Q 44.046875 -1.421875 33.015625 -1.421875 
Q 20.359375 -1.421875 13.671875 8.265625 
Q 6.984375 17.96875 6.984375 36.375 
Q 6.984375 53.65625 15.1875 63.9375 
Q 23.390625 74.21875 37.203125 74.21875 
Q 40.921875 74.21875 44.703125 73.484375 
Q 48.484375 72.75 52.59375 71.296875 
z
" id="DejaVuSans-54"/>
      </defs>
      <g transform="translate(67.096875 239.540614)scale(0.1 -0.1)">
       <use xlink:href="#DejaVuSans-48"/>
       <use x="63.623047" xlink:href="#DejaVuSans-46"/>
       <use x="95.410156" xlink:href="#DejaVuSans-54"/>
      </g>
     </g>
    </g>
    <g id="ytick_5">
     <g id="line2d_12">
      <g>
       <use style="stroke:#000000;stroke-width:0.8;" x="90" xlink:href="#med396186ca" y="193.546047"/>
      </g>
     </g>
     <g id="text_13">
      <!-- 0.7 -->
      <defs>
       <path d="M 8.203125 72.90625 
L 55.078125 72.90625 
L 55.078125 68.703125 
L 28.609375 0 
L 18.3125 0 
L 43.21875 64.59375 
L 8.203125 64.59375 
z
" id="DejaVuSans-55"/>
      </defs>
      <g transform="translate(67.096875 197.345265)scale(0.1 -0.1)">
       <use xlink:href="#DejaVuSans-48"/>
       <use x="63.623047" xlink:href="#DejaVuSans-46"/>
       <use x="95.410156" xlink:href="#DejaVuSans-55"/>
      </g>
     </g>
    </g>
    <g id="ytick_6">
     <g id="line2d_13">
      <g>
       <use style="stroke:#000000;stroke-width:0.8;" x="90" xlink:href="#med396186ca" y="151.350698"/>
      </g>
     </g>
     <g id="text_14">
      <!-- 0.8 -->
      <defs>
       <path d="M 31.78125 34.625 
Q 24.75 34.625 20.71875 30.859375 
Q 16.703125 27.09375 16.703125 20.515625 
Q 16.703125 13.921875 20.71875 10.15625 
Q 24.75 6.390625 31.78125 6.390625 
Q 38.8125 6.390625 42.859375 10.171875 
Q 46.921875 13.96875 46.921875 20.515625 
Q 46.921875 27.09375 42.890625 30.859375 
Q 38.875 34.625 31.78125 34.625 
z
M 21.921875 38.8125 
Q 15.578125 40.375 12.03125 44.71875 
Q 8.5 49.078125 8.5 55.328125 
Q 8.5 64.0625 14.71875 69.140625 
Q 20.953125 74.21875 31.78125 74.21875 
Q 42.671875 74.21875 48.875 69.140625 
Q 55.078125 64.0625 55.078125 55.328125 
Q 55.078125 49.078125 51.53125 44.71875 
Q 48 40.375 41.703125 38.8125 
Q 48.828125 37.15625 52.796875 32.3125 
Q 56.78125 27.484375 56.78125 20.515625 
Q 56.78125 9.90625 50.3125 4.234375 
Q 43.84375 -1.421875 31.78125 -1.421875 
Q 19.734375 -1.421875 13.25 4.234375 
Q 6.78125 9.90625 6.78125 20.515625 
Q 6.78125 27.484375 10.78125 32.3125 
Q 14.796875 37.15625 21.921875 38.8125 
z
M 18.3125 54.390625 
Q 18.3125 48.734375 21.84375 45.5625 
Q 25.390625 42.390625 31.78125 42.390625 
Q 38.140625 42.390625 41.71875 45.5625 
Q 45.3125 48.734375 45.3125 54.390625 
Q 45.3125 60.0625 41.71875 63.234375 
Q 38.140625 66.40625 31.78125 66.40625 
Q 25.390625 66.40625 21.84375 63.234375 
Q 18.3125 60.0625 18.3125 54.390625 
z
" id="DejaVuSans-56"/>
      </defs>
      <g transform="translate(67.096875 155.149916)scale(0.1 -0.1)">
       <use xlink:href="#DejaVuSans-48"/>
       <use x="63.623047" xlink:href="#DejaVuSans-46"/>
       <use x="95.410156" xlink:href="#DejaVuSans-56"/>
      </g>
     </g>
    </g>
    <g id="ytick_7">
     <g id="line2d_14">
      <g>
       <use style="stroke:#000000;stroke-width:0.8;" x="90" xlink:href="#med396186ca" y="109.155349"/>
      </g>
     </g>
     <g id="text_15">
      <!-- 0.9 -->
      <defs>
       <path d="M 10.984375 1.515625 
L 10.984375 10.5 
Q 14.703125 8.734375 18.5 7.8125 
Q 22.3125 6.890625 25.984375 6.890625 
Q 35.75 6.890625 40.890625 13.453125 
Q 46.046875 20.015625 46.78125 33.40625 
Q 43.953125 29.203125 39.59375 26.953125 
Q 35.25 24.703125 29.984375 24.703125 
Q 19.046875 24.703125 12.671875 31.3125 
Q 6.296875 37.9375 6.296875 49.421875 
Q 6.296875 60.640625 12.9375 67.421875 
Q 19.578125 74.21875 30.609375 74.21875 
Q 43.265625 74.21875 49.921875 64.515625 
Q 56.59375 54.828125 56.59375 36.375 
Q 56.59375 19.140625 48.40625 8.859375 
Q 40.234375 -1.421875 26.421875 -1.421875 
Q 22.703125 -1.421875 18.890625 -0.6875 
Q 15.09375 0.046875 10.984375 1.515625 
z
M 30.609375 32.421875 
Q 37.25 32.421875 41.125 36.953125 
Q 45.015625 41.5 45.015625 49.421875 
Q 45.015625 57.28125 41.125 61.84375 
Q 37.25 66.40625 30.609375 66.40625 
Q 23.96875 66.40625 20.09375 61.84375 
Q 16.21875 57.28125 16.21875 49.421875 
Q 16.21875 41.5 20.09375 36.953125 
Q 23.96875 32.421875 30.609375 32.421875 
z
" id="DejaVuSans-57"/>
      </defs>
      <g transform="translate(67.096875 112.954568)scale(0.1 -0.1)">
       <use xlink:href="#DejaVuSans-48"/>
       <use x="63.623047" xlink:href="#DejaVuSans-46"/>
       <use x="95.410156" xlink:href="#DejaVuSans-57"/>
      </g>
     </g>
    </g>
    <g id="ytick_8">
     <g id="line2d_15">
      <g>
       <use style="stroke:#000000;stroke-width:0.8;" x="90" xlink:href="#med396186ca" y="66.96"/>
      </g>
     </g>
     <g id="text_16">
      <!-- 1.0 -->
      <g transform="translate(67.096875 70.759219)scale(0.1 -0.1)">
       <use xlink:href="#DejaVuSans-49"/>
       <use x="63.623047" xlink:href="#DejaVuSans-46"/>
       <use x="95.410156" xlink:href="#DejaVuSans-48"/>
      </g>
     </g>
    </g>
    <g id="text_17">
     <!-- Accuracy -->
     <defs>
      <path d="M 34.1875 63.1875 
L 20.796875 26.90625 
L 47.609375 26.90625 
z
M 28.609375 72.90625 
L 39.796875 72.90625 
L 67.578125 0 
L 57.328125 0 
L 50.6875 18.703125 
L 17.828125 18.703125 
L 11.1875 0 
L 0.78125 0 
z
" id="DejaVuSans-65"/>
      <path d="M 8.5 21.578125 
L 8.5 54.6875 
L 17.484375 54.6875 
L 17.484375 21.921875 
Q 17.484375 14.15625 20.5 10.265625 
Q 23.53125 6.390625 29.59375 6.390625 
Q 36.859375 6.390625 41.078125 11.03125 
Q 45.3125 15.671875 45.3125 23.6875 
L 45.3125 54.6875 
L 54.296875 54.6875 
L 54.296875 0 
L 45.3125 0 
L 45.3125 8.40625 
Q 42.046875 3.421875 37.71875 1 
Q 33.40625 -1.421875 27.6875 -1.421875 
Q 18.265625 -1.421875 13.375 4.4375 
Q 8.5 10.296875 8.5 21.578125 
z
M 31.109375 56 
z
" id="DejaVuSans-117"/>
      <path d="M 41.109375 46.296875 
Q 39.59375 47.171875 37.8125 47.578125 
Q 36.03125 48 33.890625 48 
Q 26.265625 48 22.1875 43.046875 
Q 18.109375 38.09375 18.109375 28.8125 
L 18.109375 0 
L 9.078125 0 
L 9.078125 54.6875 
L 18.109375 54.6875 
L 18.109375 46.1875 
Q 20.953125 51.171875 25.484375 53.578125 
Q 30.03125 56 36.53125 56 
Q 37.453125 56 38.578125 55.875 
Q 39.703125 55.765625 41.0625 55.515625 
z
" id="DejaVuSans-114"/>
      <path d="M 34.28125 27.484375 
Q 23.390625 27.484375 19.1875 25 
Q 14.984375 22.515625 14.984375 16.5 
Q 14.984375 11.71875 18.140625 8.90625 
Q 21.296875 6.109375 26.703125 6.109375 
Q 34.1875 6.109375 38.703125 11.40625 
Q 43.21875 16.703125 43.21875 25.484375 
L 43.21875 27.484375 
z
M 52.203125 31.203125 
L 52.203125 0 
L 43.21875 0 
L 43.21875 8.296875 
Q 40.140625 3.328125 35.546875 0.953125 
Q 30.953125 -1.421875 24.3125 -1.421875 
Q 15.921875 -1.421875 10.953125 3.296875 
Q 6 8.015625 6 15.921875 
Q 6 25.140625 12.171875 29.828125 
Q 18.359375 34.515625 30.609375 34.515625 
L 43.21875 34.515625 
L 43.21875 35.40625 
Q 43.21875 41.609375 39.140625 45 
Q 35.0625 48.390625 27.6875 48.390625 
Q 23 48.390625 18.546875 47.265625 
Q 14.109375 46.140625 10.015625 43.890625 
L 10.015625 52.203125 
Q 14.9375 54.109375 19.578125 55.046875 
Q 24.21875 56 28.609375 56 
Q 40.484375 56 46.34375 49.84375 
Q 52.203125 43.703125 52.203125 31.203125 
z
" id="DejaVuSans-97"/>
      <path d="M 32.171875 -5.078125 
Q 28.375 -14.84375 24.75 -17.8125 
Q 21.140625 -20.796875 15.09375 -20.796875 
L 7.90625 -20.796875 
L 7.90625 -13.28125 
L 13.1875 -13.28125 
Q 16.890625 -13.28125 18.9375 -11.515625 
Q 21 -9.765625 23.484375 -3.21875 
L 25.09375 0.875 
L 2.984375 54.6875 
L 12.5 54.6875 
L 29.59375 11.921875 
L 46.6875 54.6875 
L 56.203125 54.6875 
z
" id="DejaVuSans-121"/>
     </defs>
     <g transform="translate(61.017187 240.988125)rotate(-90)scale(0.1 -0.1)">
      <use xlink:href="#DejaVuSans-65"/>
      <use x="66.658203" xlink:href="#DejaVuSans-99"/>
      <use x="121.638672" xlink:href="#DejaVuSans-99"/>
      <use x="176.619141" xlink:href="#DejaVuSans-117"/>
      <use x="239.998047" xlink:href="#DejaVuSans-114"/>
      <use x="281.111328" xlink:href="#DejaVuSans-97"/>
      <use x="342.390625" xlink:href="#DejaVuSans-99"/>
      <use x="397.371094" xlink:href="#DejaVuSans-121"/>
     </g>
    </g>
   </g>
   <g id="line2d_16">
    <path clip-path="url(#p8533dafa12)" d="M 90 323.648372 
L 90.845455 253.322791 
L 91.690909 288.485581 
L 92.536364 295.51814 
L 93.381818 260.355349 
L 94.227273 214.643721 
L 95.072727 179.48093 
L 95.918182 158.383256 
L 96.763636 154.866977 
L 97.609091 154.866977 
L 98.454545 151.350698 
L 99.3 144.31814 
L 100.145455 140.80186 
L 101.836364 140.80186 
L 102.681818 144.31814 
L 103.527273 144.31814 
L 104.372727 140.80186 
L 105.218182 140.80186 
L 106.063636 137.285581 
L 108.6 137.285581 
L 109.445455 130.253023 
L 110.290909 126.736744 
L 111.136364 126.736744 
L 111.981818 123.220465 
L 112.827273 123.220465 
L 114.518182 116.187907 
L 116.209091 116.187907 
L 117.054545 112.671628 
L 117.9 112.671628 
L 118.745455 109.155349 
L 119.590909 109.155349 
L 120.436364 105.63907 
L 125.509091 105.63907 
L 126.354545 98.606512 
L 130.581818 98.606512 
L 131.427273 95.090233 
L 132.272727 95.090233 
L 133.963636 88.057674 
L 140.727273 88.057674 
L 141.572727 84.541395 
L 148.336364 84.541395 
L 149.181818 81.025116 
L 155.1 81.025116 
L 155.945455 77.508837 
L 169.472727 77.508837 
L 170.318182 73.992558 
L 176.236364 73.992558 
L 177.081818 77.508837 
L 342.790909 77.508837 
L 342.790909 77.508837 
" style="fill:none;stroke:#1f77b4;stroke-dasharray:5.55,2.4;stroke-dashoffset:0;stroke-width:1.5;"/>
   </g>
   <g id="line2d_17">
    <path clip-path="url(#p8533dafa12)" d="M 90 351.778605 
L 90.845455 351.778605 
L 91.690909 355.294884 
L 92.536364 369.36 
L 93.381818 351.778605 
L 94.227273 351.778605 
L 96.763636 330.68093 
L 97.609091 288.485581 
L 98.454545 232.225116 
L 99.3 242.773953 
L 100.145455 242.773953 
L 100.990909 246.290233 
L 101.836364 232.225116 
L 103.527273 225.192558 
L 104.372727 218.16 
L 105.218182 221.676279 
L 106.063636 218.16 
L 106.909091 225.192558 
L 107.754545 225.192558 
L 108.6 232.225116 
L 109.445455 225.192558 
L 110.290909 221.676279 
L 111.981818 221.676279 
L 112.827273 225.192558 
L 113.672727 235.741395 
L 114.518182 239.257674 
L 115.363636 239.257674 
L 117.054545 246.290233 
L 123.818182 246.290233 
L 124.663636 242.773953 
L 152.563636 242.773953 
L 153.409091 235.741395 
L 154.254545 235.741395 
L 156.790909 225.192558 
L 167.781818 225.192558 
L 168.627273 221.676279 
L 171.163636 221.676279 
L 172.009091 218.16 
L 174.545455 218.16 
L 175.390909 211.127442 
L 176.236364 211.127442 
L 177.081818 207.611163 
L 181.309091 207.611163 
L 182.154545 204.094884 
L 184.690909 204.094884 
L 186.381818 197.062326 
L 188.072727 197.062326 
L 188.918182 193.546047 
L 190.609091 165.415814 
L 191.454545 158.383256 
L 196.527273 137.285581 
L 197.372727 137.285581 
L 198.218182 133.769302 
L 204.136364 133.769302 
L 204.981818 126.736744 
L 205.827273 126.736744 
L 206.672727 130.253023 
L 209.209091 130.253023 
L 210.054545 126.736744 
L 212.590909 126.736744 
L 214.281818 119.704186 
L 215.972727 119.704186 
L 216.818182 116.187907 
L 218.509091 116.187907 
L 219.354545 112.671628 
L 232.881818 112.671628 
L 233.727273 109.155349 
L 243.027273 109.155349 
L 243.872727 105.63907 
L 244.718182 105.63907 
L 245.563636 102.122791 
L 268.390909 102.122791 
L 269.236364 98.606512 
L 280.227273 98.606512 
L 281.072727 102.122791 
L 282.763636 102.122791 
L 283.609091 105.63907 
L 284.454545 105.63907 
L 285.3 102.122791 
L 313.2 102.122791 
L 314.045455 98.606512 
L 342.790909 98.606512 
L 342.790909 98.606512 
" style="fill:none;stroke:#ff7f0e;stroke-dasharray:5.55,2.4;stroke-dashoffset:0;stroke-width:1.5;"/>
   </g>
   <g id="line2d_18">
    <path clip-path="url(#p8533dafa12)" d="M 90 256.83907 
L 90.845455 130.253023 
L 91.690909 105.63907 
L 92.536364 98.606512 
L 93.381818 95.090233 
L 94.227273 95.090233 
L 95.072727 91.573953 
L 96.763636 91.573953 
L 98.454545 84.541395 
L 100.990909 84.541395 
L 101.836364 81.025116 
L 118.745455 81.025116 
L 119.590909 77.508837 
L 134.809091 77.508837 
L 135.654545 73.992558 
L 342.790909 73.992558 
L 342.790909 73.992558 
" style="fill:none;stroke:#2ca02c;stroke-dasharray:5.55,2.4;stroke-dashoffset:0;stroke-width:1.5;"/>
   </g>
   <g id="line2d_19">
    <path clip-path="url(#p8533dafa12)" d="M 90 242.773953 
L 90.845455 232.225116 
L 91.690909 190.029767 
L 92.536364 161.899535 
L 93.381818 144.31814 
L 94.227273 130.253023 
L 95.072727 130.253023 
L 95.918182 126.736744 
L 96.763636 119.704186 
L 100.145455 119.704186 
L 100.990909 116.187907 
L 102.681818 116.187907 
L 103.527273 109.155349 
L 106.063636 109.155349 
L 106.909091 105.63907 
L 110.290909 105.63907 
L 111.136364 102.122791 
L 111.981818 102.122791 
L 112.827273 98.606512 
L 121.281818 98.606512 
L 122.127273 95.090233 
L 124.663636 95.090233 
L 125.509091 91.573953 
L 127.2 91.573953 
L 128.045455 88.057674 
L 139.881818 88.057674 
L 140.727273 84.541395 
L 147.490909 84.541395 
L 148.336364 81.025116 
L 154.254545 81.025116 
L 155.1 77.508837 
L 342.790909 77.508837 
L 342.790909 77.508837 
" style="fill:none;stroke:#d62728;stroke-dasharray:5.55,2.4;stroke-dashoffset:0;stroke-width:1.5;"/>
   </g>
   <g id="line2d_20">
    <path clip-path="url(#p8533dafa12)" d="M 90 207.611163 
L 90.845455 235.741395 
L 91.690909 348.262326 
L 92.536364 235.741395 
L 93.381818 221.676279 
L 94.227273 165.415814 
L 96.763636 123.220465 
L 100.145455 123.220465 
L 100.990909 109.155349 
L 102.681818 109.155349 
L 103.527273 95.090233 
L 116.209091 95.090233 
L 117.054545 81.025116 
L 245.563636 81.025116 
L 246.409091 66.96 
L 342.790909 66.96 
L 342.790909 66.96 
" style="fill:none;stroke:#1f77b4;stroke-linecap:square;stroke-width:1.5;"/>
   </g>
   <g id="line2d_21">
    <path clip-path="url(#p8533dafa12)" d="M 90 351.778605 
L 90.845455 351.778605 
L 91.690909 355.294884 
L 92.536364 369.36 
L 93.381818 351.778605 
L 94.227273 351.778605 
L 96.763636 330.68093 
L 97.609091 288.485581 
L 98.454545 232.225116 
L 99.3 242.773953 
L 100.145455 242.773953 
L 100.990909 246.290233 
L 101.836364 232.225116 
L 103.527273 225.192558 
L 104.372727 218.16 
L 105.218182 221.676279 
L 106.063636 218.16 
L 106.909091 225.192558 
L 107.754545 225.192558 
L 108.6 232.225116 
L 109.445455 225.192558 
L 110.290909 221.676279 
L 111.981818 221.676279 
L 112.827273 225.192558 
L 113.672727 235.741395 
L 114.518182 239.257674 
L 115.363636 239.257674 
L 117.054545 246.290233 
L 123.818182 246.290233 
L 124.663636 242.773953 
L 152.563636 242.773953 
L 153.409091 235.741395 
L 154.254545 235.741395 
L 156.790909 225.192558 
L 167.781818 225.192558 
L 168.627273 221.676279 
L 171.163636 221.676279 
L 172.009091 218.16 
L 174.545455 218.16 
L 175.390909 211.127442 
L 176.236364 211.127442 
L 177.081818 207.611163 
L 181.309091 207.611163 
L 182.154545 204.094884 
L 184.690909 204.094884 
L 186.381818 197.062326 
L 188.072727 197.062326 
L 188.918182 193.546047 
L 190.609091 165.415814 
L 191.454545 158.383256 
L 196.527273 137.285581 
L 197.372727 137.285581 
L 198.218182 133.769302 
L 204.136364 133.769302 
L 204.981818 126.736744 
L 205.827273 126.736744 
L 206.672727 130.253023 
L 209.209091 130.253023 
L 210.054545 126.736744 
L 212.590909 126.736744 
L 214.281818 119.704186 
L 215.972727 119.704186 
L 216.818182 116.187907 
L 218.509091 116.187907 
L 219.354545 112.671628 
L 232.881818 112.671628 
L 233.727273 109.155349 
L 243.027273 109.155349 
L 243.872727 105.63907 
L 244.718182 105.63907 
L 245.563636 102.122791 
L 268.390909 102.122791 
L 269.236364 98.606512 
L 280.227273 98.606512 
L 281.072727 102.122791 
L 282.763636 102.122791 
L 283.609091 105.63907 
L 284.454545 105.63907 
L 285.3 102.122791 
L 313.2 102.122791 
L 314.045455 98.606512 
L 342.790909 98.606512 
L 342.790909 98.606512 
" style="fill:none;stroke:#ff7f0e;stroke-linecap:square;stroke-width:1.5;"/>
   </g>
   <g id="line2d_22">
    <path clip-path="url(#p8533dafa12)" d="M 90 137.285581 
L 90.845455 109.155349 
L 91.690909 95.090233 
L 92.536364 66.96 
L 342.790909 66.96 
L 342.790909 66.96 
" style="fill:none;stroke:#2ca02c;stroke-linecap:square;stroke-width:1.5;"/>
   </g>
   <g id="line2d_23">
    <path clip-path="url(#p8533dafa12)" d="M 90 123.220465 
L 90.845455 137.285581 
L 91.690909 123.220465 
L 92.536364 95.090233 
L 93.381818 81.025116 
L 172.009091 81.025116 
L 172.854545 66.96 
L 342.790909 66.96 
L 342.790909 66.96 
" style="fill:none;stroke:#d62728;stroke-linecap:square;stroke-width:1.5;"/>
   </g>
   <g id="patch_3">
    <path d="M 90 384.48 
L 90 51.84 
" style="fill:none;stroke:#000000;stroke-linecap:square;stroke-linejoin:miter;stroke-width:0.8;"/>
   </g>
   <g id="patch_4">
    <path d="M 343.636364 384.48 
L 343.636364 51.84 
" style="fill:none;stroke:#000000;stroke-linecap:square;stroke-linejoin:miter;stroke-width:0.8;"/>
   </g>
   <g id="patch_5">
    <path d="M 90 384.48 
L 343.636364 384.48 
" style="fill:none;stroke:#000000;stroke-linecap:square;stroke-linejoin:miter;stroke-width:0.8;"/>
   </g>
   <g id="patch_6">
    <path d="M 90 51.84 
L 343.636364 51.84 
" style="fill:none;stroke:#000000;stroke-linecap:square;stroke-linejoin:miter;stroke-width:0.8;"/>
   </g>
   <g id="legend_1">
    <g id="patch_7">
     <path d="M 171.698864 379.48 
L 336.636364 379.48 
Q 338.636364 379.48 338.636364 377.48 
L 338.636364 261.055 
Q 338.636364 259.055 336.636364 259.055 
L 171.698864 259.055 
Q 169.698864 259.055 169.698864 261.055 
L 169.698864 377.48 
Q 169.698864 379.48 171.698864 379.48 
z
" style="fill:#ffffff;opacity:0.8;stroke:#cccccc;stroke-linejoin:miter;"/>
    </g>
    <g id="line2d_24">
     <path d="M 173.698864 267.153437 
L 193.698864 267.153437 
" style="fill:none;stroke:#1f77b4;stroke-dasharray:5.55,2.4;stroke-dashoffset:0;stroke-width:1.5;"/>
    </g>
    <g id="line2d_25"/>
    <g id="text_18">
     <!-- train w/ Sigmoid w/ Norm -->
     <defs>
      <path d="M 18.3125 70.21875 
L 18.3125 54.6875 
L 36.8125 54.6875 
L 36.8125 47.703125 
L 18.3125 47.703125 
L 18.3125 18.015625 
Q 18.3125 11.328125 20.140625 9.421875 
Q 21.96875 7.515625 27.59375 7.515625 
L 36.8125 7.515625 
L 36.8125 0 
L 27.59375 0 
Q 17.1875 0 13.234375 3.875 
Q 9.28125 7.765625 9.28125 18.015625 
L 9.28125 47.703125 
L 2.6875 47.703125 
L 2.6875 54.6875 
L 9.28125 54.6875 
L 9.28125 70.21875 
z
" id="DejaVuSans-116"/>
      <path d="M 9.421875 54.6875 
L 18.40625 54.6875 
L 18.40625 0 
L 9.421875 0 
z
M 9.421875 75.984375 
L 18.40625 75.984375 
L 18.40625 64.59375 
L 9.421875 64.59375 
z
" id="DejaVuSans-105"/>
      <path d="M 54.890625 33.015625 
L 54.890625 0 
L 45.90625 0 
L 45.90625 32.71875 
Q 45.90625 40.484375 42.875 44.328125 
Q 39.84375 48.1875 33.796875 48.1875 
Q 26.515625 48.1875 22.3125 43.546875 
Q 18.109375 38.921875 18.109375 30.90625 
L 18.109375 0 
L 9.078125 0 
L 9.078125 54.6875 
L 18.109375 54.6875 
L 18.109375 46.1875 
Q 21.34375 51.125 25.703125 53.5625 
Q 30.078125 56 35.796875 56 
Q 45.21875 56 50.046875 50.171875 
Q 54.890625 44.34375 54.890625 33.015625 
z
" id="DejaVuSans-110"/>
      <path id="DejaVuSans-32"/>
      <path d="M 4.203125 54.6875 
L 13.1875 54.6875 
L 24.421875 12.015625 
L 35.59375 54.6875 
L 46.1875 54.6875 
L 57.421875 12.015625 
L 68.609375 54.6875 
L 77.59375 54.6875 
L 63.28125 0 
L 52.6875 0 
L 40.921875 44.828125 
L 29.109375 0 
L 18.5 0 
z
" id="DejaVuSans-119"/>
      <path d="M 25.390625 72.90625 
L 33.6875 72.90625 
L 8.296875 -9.28125 
L 0 -9.28125 
z
" id="DejaVuSans-47"/>
      <path d="M 53.515625 70.515625 
L 53.515625 60.890625 
Q 47.90625 63.578125 42.921875 64.890625 
Q 37.9375 66.21875 33.296875 66.21875 
Q 25.25 66.21875 20.875 63.09375 
Q 16.5 59.96875 16.5 54.203125 
Q 16.5 49.359375 19.40625 46.890625 
Q 22.3125 44.4375 30.421875 42.921875 
L 36.375 41.703125 
Q 47.40625 39.59375 52.65625 34.296875 
Q 57.90625 29 57.90625 20.125 
Q 57.90625 9.515625 50.796875 4.046875 
Q 43.703125 -1.421875 29.984375 -1.421875 
Q 24.8125 -1.421875 18.96875 -0.25 
Q 13.140625 0.921875 6.890625 3.21875 
L 6.890625 13.375 
Q 12.890625 10.015625 18.65625 8.296875 
Q 24.421875 6.59375 29.984375 6.59375 
Q 38.421875 6.59375 43.015625 9.90625 
Q 47.609375 13.234375 47.609375 19.390625 
Q 47.609375 24.75 44.3125 27.78125 
Q 41.015625 30.8125 33.5 32.328125 
L 27.484375 33.5 
Q 16.453125 35.6875 11.515625 40.375 
Q 6.59375 45.0625 6.59375 53.421875 
Q 6.59375 63.09375 13.40625 68.65625 
Q 20.21875 74.21875 32.171875 74.21875 
Q 37.3125 74.21875 42.625 73.28125 
Q 47.953125 72.359375 53.515625 70.515625 
z
" id="DejaVuSans-83"/>
      <path d="M 45.40625 27.984375 
Q 45.40625 37.75 41.375 43.109375 
Q 37.359375 48.484375 30.078125 48.484375 
Q 22.859375 48.484375 18.828125 43.109375 
Q 14.796875 37.75 14.796875 27.984375 
Q 14.796875 18.265625 18.828125 12.890625 
Q 22.859375 7.515625 30.078125 7.515625 
Q 37.359375 7.515625 41.375 12.890625 
Q 45.40625 18.265625 45.40625 27.984375 
z
M 54.390625 6.78125 
Q 54.390625 -7.171875 48.1875 -13.984375 
Q 42 -20.796875 29.203125 -20.796875 
Q 24.46875 -20.796875 20.265625 -20.09375 
Q 16.0625 -19.390625 12.109375 -17.921875 
L 12.109375 -9.1875 
Q 16.0625 -11.328125 19.921875 -12.34375 
Q 23.78125 -13.375 27.78125 -13.375 
Q 36.625 -13.375 41.015625 -8.765625 
Q 45.40625 -4.15625 45.40625 5.171875 
L 45.40625 9.625 
Q 42.625 4.78125 38.28125 2.390625 
Q 33.9375 0 27.875 0 
Q 17.828125 0 11.671875 7.65625 
Q 5.515625 15.328125 5.515625 27.984375 
Q 5.515625 40.671875 11.671875 48.328125 
Q 17.828125 56 27.875 56 
Q 33.9375 56 38.28125 53.609375 
Q 42.625 51.21875 45.40625 46.390625 
L 45.40625 54.6875 
L 54.390625 54.6875 
z
" id="DejaVuSans-103"/>
      <path d="M 52 44.1875 
Q 55.375 50.25 60.0625 53.125 
Q 64.75 56 71.09375 56 
Q 79.640625 56 84.28125 50.015625 
Q 88.921875 44.046875 88.921875 33.015625 
L 88.921875 0 
L 79.890625 0 
L 79.890625 32.71875 
Q 79.890625 40.578125 77.09375 44.375 
Q 74.3125 48.1875 68.609375 48.1875 
Q 61.625 48.1875 57.5625 43.546875 
Q 53.515625 38.921875 53.515625 30.90625 
L 53.515625 0 
L 44.484375 0 
L 44.484375 32.71875 
Q 44.484375 40.625 41.703125 44.40625 
Q 38.921875 48.1875 33.109375 48.1875 
Q 26.21875 48.1875 22.15625 43.53125 
Q 18.109375 38.875 18.109375 30.90625 
L 18.109375 0 
L 9.078125 0 
L 9.078125 54.6875 
L 18.109375 54.6875 
L 18.109375 46.1875 
Q 21.1875 51.21875 25.484375 53.609375 
Q 29.78125 56 35.6875 56 
Q 41.65625 56 45.828125 52.96875 
Q 50 49.953125 52 44.1875 
z
" id="DejaVuSans-109"/>
      <path d="M 45.40625 46.390625 
L 45.40625 75.984375 
L 54.390625 75.984375 
L 54.390625 0 
L 45.40625 0 
L 45.40625 8.203125 
Q 42.578125 3.328125 38.25 0.953125 
Q 33.9375 -1.421875 27.875 -1.421875 
Q 17.96875 -1.421875 11.734375 6.484375 
Q 5.515625 14.40625 5.515625 27.296875 
Q 5.515625 40.1875 11.734375 48.09375 
Q 17.96875 56 27.875 56 
Q 33.9375 56 38.25 53.625 
Q 42.578125 51.265625 45.40625 46.390625 
z
M 14.796875 27.296875 
Q 14.796875 17.390625 18.875 11.75 
Q 22.953125 6.109375 30.078125 6.109375 
Q 37.203125 6.109375 41.296875 11.75 
Q 45.40625 17.390625 45.40625 27.296875 
Q 45.40625 37.203125 41.296875 42.84375 
Q 37.203125 48.484375 30.078125 48.484375 
Q 22.953125 48.484375 18.875 42.84375 
Q 14.796875 37.203125 14.796875 27.296875 
z
" id="DejaVuSans-100"/>
      <path d="M 9.8125 72.90625 
L 23.09375 72.90625 
L 55.421875 11.921875 
L 55.421875 72.90625 
L 64.984375 72.90625 
L 64.984375 0 
L 51.703125 0 
L 19.390625 60.984375 
L 19.390625 0 
L 9.8125 0 
z
" id="DejaVuSans-78"/>
     </defs>
     <g transform="translate(201.698864 270.653437)scale(0.1 -0.1)">
      <use xlink:href="#DejaVuSans-116"/>
      <use x="39.208984" xlink:href="#DejaVuSans-114"/>
      <use x="80.322266" xlink:href="#DejaVuSans-97"/>
      <use x="141.601562" xlink:href="#DejaVuSans-105"/>
      <use x="169.384766" xlink:href="#DejaVuSans-110"/>
      <use x="232.763672" xlink:href="#DejaVuSans-32"/>
      <use x="264.550781" xlink:href="#DejaVuSans-119"/>
      <use x="346.337891" xlink:href="#DejaVuSans-47"/>
      <use x="380.029297" xlink:href="#DejaVuSans-32"/>
      <use x="411.816406" xlink:href="#DejaVuSans-83"/>
      <use x="475.292969" xlink:href="#DejaVuSans-105"/>
      <use x="503.076172" xlink:href="#DejaVuSans-103"/>
      <use x="566.552734" xlink:href="#DejaVuSans-109"/>
      <use x="663.964844" xlink:href="#DejaVuSans-111"/>
      <use x="725.146484" xlink:href="#DejaVuSans-105"/>
      <use x="752.929688" xlink:href="#DejaVuSans-100"/>
      <use x="816.40625" xlink:href="#DejaVuSans-32"/>
      <use x="848.193359" xlink:href="#DejaVuSans-119"/>
      <use x="929.980469" xlink:href="#DejaVuSans-47"/>
      <use x="963.671875" xlink:href="#DejaVuSans-32"/>
      <use x="995.458984" xlink:href="#DejaVuSans-78"/>
      <use x="1070.263672" xlink:href="#DejaVuSans-111"/>
      <use x="1131.445312" xlink:href="#DejaVuSans-114"/>
      <use x="1170.808594" xlink:href="#DejaVuSans-109"/>
     </g>
    </g>
    <g id="line2d_26">
     <path d="M 173.698864 281.831563 
L 193.698864 281.831563 
" style="fill:none;stroke:#ff7f0e;stroke-dasharray:5.55,2.4;stroke-dashoffset:0;stroke-width:1.5;"/>
    </g>
    <g id="line2d_27"/>
    <g id="text_19">
     <!-- train w/ Sigmoid w/o Norm -->
     <g transform="translate(201.698864 285.331563)scale(0.1 -0.1)">
      <use xlink:href="#DejaVuSans-116"/>
      <use x="39.208984" xlink:href="#DejaVuSans-114"/>
      <use x="80.322266" xlink:href="#DejaVuSans-97"/>
      <use x="141.601562" xlink:href="#DejaVuSans-105"/>
      <use x="169.384766" xlink:href="#DejaVuSans-110"/>
      <use x="232.763672" xlink:href="#DejaVuSans-32"/>
      <use x="264.550781" xlink:href="#DejaVuSans-119"/>
      <use x="346.337891" xlink:href="#DejaVuSans-47"/>
      <use x="380.029297" xlink:href="#DejaVuSans-32"/>
      <use x="411.816406" xlink:href="#DejaVuSans-83"/>
      <use x="475.292969" xlink:href="#DejaVuSans-105"/>
      <use x="503.076172" xlink:href="#DejaVuSans-103"/>
      <use x="566.552734" xlink:href="#DejaVuSans-109"/>
      <use x="663.964844" xlink:href="#DejaVuSans-111"/>
      <use x="725.146484" xlink:href="#DejaVuSans-105"/>
      <use x="752.929688" xlink:href="#DejaVuSans-100"/>
      <use x="816.40625" xlink:href="#DejaVuSans-32"/>
      <use x="848.193359" xlink:href="#DejaVuSans-119"/>
      <use x="929.980469" xlink:href="#DejaVuSans-47"/>
      <use x="963.671875" xlink:href="#DejaVuSans-111"/>
      <use x="1024.853516" xlink:href="#DejaVuSans-32"/>
      <use x="1056.640625" xlink:href="#DejaVuSans-78"/>
      <use x="1131.445312" xlink:href="#DejaVuSans-111"/>
      <use x="1192.626953" xlink:href="#DejaVuSans-114"/>
      <use x="1231.990234" xlink:href="#DejaVuSans-109"/>
     </g>
    </g>
    <g id="line2d_28">
     <path d="M 173.698864 296.509688 
L 193.698864 296.509688 
" style="fill:none;stroke:#2ca02c;stroke-dasharray:5.55,2.4;stroke-dashoffset:0;stroke-width:1.5;"/>
    </g>
    <g id="line2d_29"/>
    <g id="text_20">
     <!-- train w/ ReLU w/ Norm -->
     <defs>
      <path d="M 44.390625 34.1875 
Q 47.5625 33.109375 50.5625 29.59375 
Q 53.5625 26.078125 56.59375 19.921875 
L 66.609375 0 
L 56 0 
L 46.6875 18.703125 
Q 43.0625 26.03125 39.671875 28.421875 
Q 36.28125 30.8125 30.421875 30.8125 
L 19.671875 30.8125 
L 19.671875 0 
L 9.8125 0 
L 9.8125 72.90625 
L 32.078125 72.90625 
Q 44.578125 72.90625 50.734375 67.671875 
Q 56.890625 62.453125 56.890625 51.90625 
Q 56.890625 45.015625 53.6875 40.46875 
Q 50.484375 35.9375 44.390625 34.1875 
z
M 19.671875 64.796875 
L 19.671875 38.921875 
L 32.078125 38.921875 
Q 39.203125 38.921875 42.84375 42.21875 
Q 46.484375 45.515625 46.484375 51.90625 
Q 46.484375 58.296875 42.84375 61.546875 
Q 39.203125 64.796875 32.078125 64.796875 
z
" id="DejaVuSans-82"/>
      <path d="M 56.203125 29.59375 
L 56.203125 25.203125 
L 14.890625 25.203125 
Q 15.484375 15.921875 20.484375 11.0625 
Q 25.484375 6.203125 34.421875 6.203125 
Q 39.59375 6.203125 44.453125 7.46875 
Q 49.3125 8.734375 54.109375 11.28125 
L 54.109375 2.78125 
Q 49.265625 0.734375 44.1875 -0.34375 
Q 39.109375 -1.421875 33.890625 -1.421875 
Q 20.796875 -1.421875 13.15625 6.1875 
Q 5.515625 13.8125 5.515625 26.8125 
Q 5.515625 40.234375 12.765625 48.109375 
Q 20.015625 56 32.328125 56 
Q 43.359375 56 49.78125 48.890625 
Q 56.203125 41.796875 56.203125 29.59375 
z
M 47.21875 32.234375 
Q 47.125 39.59375 43.09375 43.984375 
Q 39.0625 48.390625 32.421875 48.390625 
Q 24.90625 48.390625 20.390625 44.140625 
Q 15.875 39.890625 15.1875 32.171875 
z
" id="DejaVuSans-101"/>
      <path d="M 9.8125 72.90625 
L 19.671875 72.90625 
L 19.671875 8.296875 
L 55.171875 8.296875 
L 55.171875 0 
L 9.8125 0 
z
" id="DejaVuSans-76"/>
      <path d="M 8.6875 72.90625 
L 18.609375 72.90625 
L 18.609375 28.609375 
Q 18.609375 16.890625 22.84375 11.734375 
Q 27.09375 6.59375 36.625 6.59375 
Q 46.09375 6.59375 50.34375 11.734375 
Q 54.59375 16.890625 54.59375 28.609375 
L 54.59375 72.90625 
L 64.5 72.90625 
L 64.5 27.390625 
Q 64.5 13.140625 57.4375 5.859375 
Q 50.390625 -1.421875 36.625 -1.421875 
Q 22.796875 -1.421875 15.734375 5.859375 
Q 8.6875 13.140625 8.6875 27.390625 
z
" id="DejaVuSans-85"/>
     </defs>
     <g transform="translate(201.698864 300.009688)scale(0.1 -0.1)">
      <use xlink:href="#DejaVuSans-116"/>
      <use x="39.208984" xlink:href="#DejaVuSans-114"/>
      <use x="80.322266" xlink:href="#DejaVuSans-97"/>
      <use x="141.601562" xlink:href="#DejaVuSans-105"/>
      <use x="169.384766" xlink:href="#DejaVuSans-110"/>
      <use x="232.763672" xlink:href="#DejaVuSans-32"/>
      <use x="264.550781" xlink:href="#DejaVuSans-119"/>
      <use x="346.337891" xlink:href="#DejaVuSans-47"/>
      <use x="380.029297" xlink:href="#DejaVuSans-32"/>
      <use x="411.816406" xlink:href="#DejaVuSans-82"/>
      <use x="476.798828" xlink:href="#DejaVuSans-101"/>
      <use x="538.322266" xlink:href="#DejaVuSans-76"/>
      <use x="589.035156" xlink:href="#DejaVuSans-85"/>
      <use x="662.228516" xlink:href="#DejaVuSans-32"/>
      <use x="694.015625" xlink:href="#DejaVuSans-119"/>
      <use x="775.802734" xlink:href="#DejaVuSans-47"/>
      <use x="809.494141" xlink:href="#DejaVuSans-32"/>
      <use x="841.28125" xlink:href="#DejaVuSans-78"/>
      <use x="916.085938" xlink:href="#DejaVuSans-111"/>
      <use x="977.267578" xlink:href="#DejaVuSans-114"/>
      <use x="1016.630859" xlink:href="#DejaVuSans-109"/>
     </g>
    </g>
    <g id="line2d_30">
     <path d="M 173.698864 311.187813 
L 193.698864 311.187813 
" style="fill:none;stroke:#d62728;stroke-dasharray:5.55,2.4;stroke-dashoffset:0;stroke-width:1.5;"/>
    </g>
    <g id="line2d_31"/>
    <g id="text_21">
     <!-- train w/ ReLU w/o Norm -->
     <g transform="translate(201.698864 314.687813)scale(0.1 -0.1)">
      <use xlink:href="#DejaVuSans-116"/>
      <use x="39.208984" xlink:href="#DejaVuSans-114"/>
      <use x="80.322266" xlink:href="#DejaVuSans-97"/>
      <use x="141.601562" xlink:href="#DejaVuSans-105"/>
      <use x="169.384766" xlink:href="#DejaVuSans-110"/>
      <use x="232.763672" xlink:href="#DejaVuSans-32"/>
      <use x="264.550781" xlink:href="#DejaVuSans-119"/>
      <use x="346.337891" xlink:href="#DejaVuSans-47"/>
      <use x="380.029297" xlink:href="#DejaVuSans-32"/>
      <use x="411.816406" xlink:href="#DejaVuSans-82"/>
      <use x="476.798828" xlink:href="#DejaVuSans-101"/>
      <use x="538.322266" xlink:href="#DejaVuSans-76"/>
      <use x="589.035156" xlink:href="#DejaVuSans-85"/>
      <use x="662.228516" xlink:href="#DejaVuSans-32"/>
      <use x="694.015625" xlink:href="#DejaVuSans-119"/>
      <use x="775.802734" xlink:href="#DejaVuSans-47"/>
      <use x="809.494141" xlink:href="#DejaVuSans-111"/>
      <use x="870.675781" xlink:href="#DejaVuSans-32"/>
      <use x="902.462891" xlink:href="#DejaVuSans-78"/>
      <use x="977.267578" xlink:href="#DejaVuSans-111"/>
      <use x="1038.449219" xlink:href="#DejaVuSans-114"/>
      <use x="1077.8125" xlink:href="#DejaVuSans-109"/>
     </g>
    </g>
    <g id="line2d_32">
     <path d="M 173.698864 325.865938 
L 193.698864 325.865938 
" style="fill:none;stroke:#1f77b4;stroke-linecap:square;stroke-width:1.5;"/>
    </g>
    <g id="line2d_33"/>
    <g id="text_22">
     <!-- test w/ Sigmoid w/ Norm -->
     <defs>
      <path d="M 44.28125 53.078125 
L 44.28125 44.578125 
Q 40.484375 46.53125 36.375 47.5 
Q 32.28125 48.484375 27.875 48.484375 
Q 21.1875 48.484375 17.84375 46.4375 
Q 14.5 44.390625 14.5 40.28125 
Q 14.5 37.15625 16.890625 35.375 
Q 19.28125 33.59375 26.515625 31.984375 
L 29.59375 31.296875 
Q 39.15625 29.25 43.1875 25.515625 
Q 47.21875 21.78125 47.21875 15.09375 
Q 47.21875 7.46875 41.1875 3.015625 
Q 35.15625 -1.421875 24.609375 -1.421875 
Q 20.21875 -1.421875 15.453125 -0.5625 
Q 10.6875 0.296875 5.421875 2 
L 5.421875 11.28125 
Q 10.40625 8.6875 15.234375 7.390625 
Q 20.0625 6.109375 24.8125 6.109375 
Q 31.15625 6.109375 34.5625 8.28125 
Q 37.984375 10.453125 37.984375 14.40625 
Q 37.984375 18.0625 35.515625 20.015625 
Q 33.0625 21.96875 24.703125 23.78125 
L 21.578125 24.515625 
Q 13.234375 26.265625 9.515625 29.90625 
Q 5.8125 33.546875 5.8125 39.890625 
Q 5.8125 47.609375 11.28125 51.796875 
Q 16.75 56 26.8125 56 
Q 31.78125 56 36.171875 55.265625 
Q 40.578125 54.546875 44.28125 53.078125 
z
" id="DejaVuSans-115"/>
     </defs>
     <g transform="translate(201.698864 329.365938)scale(0.1 -0.1)">
      <use xlink:href="#DejaVuSans-116"/>
      <use x="39.208984" xlink:href="#DejaVuSans-101"/>
      <use x="100.732422" xlink:href="#DejaVuSans-115"/>
      <use x="152.832031" xlink:href="#DejaVuSans-116"/>
      <use x="192.041016" xlink:href="#DejaVuSans-32"/>
      <use x="223.828125" xlink:href="#DejaVuSans-119"/>
      <use x="305.615234" xlink:href="#DejaVuSans-47"/>
      <use x="339.306641" xlink:href="#DejaVuSans-32"/>
      <use x="371.09375" xlink:href="#DejaVuSans-83"/>
      <use x="434.570312" xlink:href="#DejaVuSans-105"/>
      <use x="462.353516" xlink:href="#DejaVuSans-103"/>
      <use x="525.830078" xlink:href="#DejaVuSans-109"/>
      <use x="623.242188" xlink:href="#DejaVuSans-111"/>
      <use x="684.423828" xlink:href="#DejaVuSans-105"/>
      <use x="712.207031" xlink:href="#DejaVuSans-100"/>
      <use x="775.683594" xlink:href="#DejaVuSans-32"/>
      <use x="807.470703" xlink:href="#DejaVuSans-119"/>
      <use x="889.257812" xlink:href="#DejaVuSans-47"/>
      <use x="922.949219" xlink:href="#DejaVuSans-32"/>
      <use x="954.736328" xlink:href="#DejaVuSans-78"/>
      <use x="1029.541016" xlink:href="#DejaVuSans-111"/>
      <use x="1090.722656" xlink:href="#DejaVuSans-114"/>
      <use x="1130.085938" xlink:href="#DejaVuSans-109"/>
     </g>
    </g>
    <g id="line2d_34">
     <path d="M 173.698864 340.544062 
L 193.698864 340.544062 
" style="fill:none;stroke:#ff7f0e;stroke-linecap:square;stroke-width:1.5;"/>
    </g>
    <g id="line2d_35"/>
    <g id="text_23">
     <!-- test w/ Sigmoid w/o Norm -->
     <g transform="translate(201.698864 344.044062)scale(0.1 -0.1)">
      <use xlink:href="#DejaVuSans-116"/>
      <use x="39.208984" xlink:href="#DejaVuSans-101"/>
      <use x="100.732422" xlink:href="#DejaVuSans-115"/>
      <use x="152.832031" xlink:href="#DejaVuSans-116"/>
      <use x="192.041016" xlink:href="#DejaVuSans-32"/>
      <use x="223.828125" xlink:href="#DejaVuSans-119"/>
      <use x="305.615234" xlink:href="#DejaVuSans-47"/>
      <use x="339.306641" xlink:href="#DejaVuSans-32"/>
      <use x="371.09375" xlink:href="#DejaVuSans-83"/>
      <use x="434.570312" xlink:href="#DejaVuSans-105"/>
      <use x="462.353516" xlink:href="#DejaVuSans-103"/>
      <use x="525.830078" xlink:href="#DejaVuSans-109"/>
      <use x="623.242188" xlink:href="#DejaVuSans-111"/>
      <use x="684.423828" xlink:href="#DejaVuSans-105"/>
      <use x="712.207031" xlink:href="#DejaVuSans-100"/>
      <use x="775.683594" xlink:href="#DejaVuSans-32"/>
      <use x="807.470703" xlink:href="#DejaVuSans-119"/>
      <use x="889.257812" xlink:href="#DejaVuSans-47"/>
      <use x="922.949219" xlink:href="#DejaVuSans-111"/>
      <use x="984.130859" xlink:href="#DejaVuSans-32"/>
      <use x="1015.917969" xlink:href="#DejaVuSans-78"/>
      <use x="1090.722656" xlink:href="#DejaVuSans-111"/>
      <use x="1151.904297" xlink:href="#DejaVuSans-114"/>
      <use x="1191.267578" xlink:href="#DejaVuSans-109"/>
     </g>
    </g>
    <g id="line2d_36">
     <path d="M 173.698864 355.222188 
L 193.698864 355.222188 
" style="fill:none;stroke:#2ca02c;stroke-linecap:square;stroke-width:1.5;"/>
    </g>
    <g id="line2d_37"/>
    <g id="text_24">
     <!-- test w/ ReLU w/ Norm -->
     <g transform="translate(201.698864 358.722188)scale(0.1 -0.1)">
      <use xlink:href="#DejaVuSans-116"/>
      <use x="39.208984" xlink:href="#DejaVuSans-101"/>
      <use x="100.732422" xlink:href="#DejaVuSans-115"/>
      <use x="152.832031" xlink:href="#DejaVuSans-116"/>
      <use x="192.041016" xlink:href="#DejaVuSans-32"/>
      <use x="223.828125" xlink:href="#DejaVuSans-119"/>
      <use x="305.615234" xlink:href="#DejaVuSans-47"/>
      <use x="339.306641" xlink:href="#DejaVuSans-32"/>
      <use x="371.09375" xlink:href="#DejaVuSans-82"/>
      <use x="436.076172" xlink:href="#DejaVuSans-101"/>
      <use x="497.599609" xlink:href="#DejaVuSans-76"/>
      <use x="548.3125" xlink:href="#DejaVuSans-85"/>
      <use x="621.505859" xlink:href="#DejaVuSans-32"/>
      <use x="653.292969" xlink:href="#DejaVuSans-119"/>
      <use x="735.080078" xlink:href="#DejaVuSans-47"/>
      <use x="768.771484" xlink:href="#DejaVuSans-32"/>
      <use x="800.558594" xlink:href="#DejaVuSans-78"/>
      <use x="875.363281" xlink:href="#DejaVuSans-111"/>
      <use x="936.544922" xlink:href="#DejaVuSans-114"/>
      <use x="975.908203" xlink:href="#DejaVuSans-109"/>
     </g>
    </g>
    <g id="line2d_38">
     <path d="M 173.698864 369.900313 
L 193.698864 369.900313 
" style="fill:none;stroke:#d62728;stroke-linecap:square;stroke-width:1.5;"/>
    </g>
    <g id="line2d_39"/>
    <g id="text_25">
     <!-- test w/ ReLU w/o Norm -->
     <g transform="translate(201.698864 373.400313)scale(0.1 -0.1)">
      <use xlink:href="#DejaVuSans-116"/>
      <use x="39.208984" xlink:href="#DejaVuSans-101"/>
      <use x="100.732422" xlink:href="#DejaVuSans-115"/>
      <use x="152.832031" xlink:href="#DejaVuSans-116"/>
      <use x="192.041016" xlink:href="#DejaVuSans-32"/>
      <use x="223.828125" xlink:href="#DejaVuSans-119"/>
      <use x="305.615234" xlink:href="#DejaVuSans-47"/>
      <use x="339.306641" xlink:href="#DejaVuSans-32"/>
      <use x="371.09375" xlink:href="#DejaVuSans-82"/>
      <use x="436.076172" xlink:href="#DejaVuSans-101"/>
      <use x="497.599609" xlink:href="#DejaVuSans-76"/>
      <use x="548.3125" xlink:href="#DejaVuSans-85"/>
      <use x="621.505859" xlink:href="#DejaVuSans-32"/>
      <use x="653.292969" xlink:href="#DejaVuSans-119"/>
      <use x="735.080078" xlink:href="#DejaVuSans-47"/>
      <use x="768.771484" xlink:href="#DejaVuSans-111"/>
      <use x="829.953125" xlink:href="#DejaVuSans-32"/>
      <use x="861.740234" xlink:href="#DejaVuSans-78"/>
      <use x="936.544922" xlink:href="#DejaVuSans-111"/>
      <use x="997.726562" xlink:href="#DejaVuSans-114"/>
      <use x="1037.089844" xlink:href="#DejaVuSans-109"/>
     </g>
    </g>
   </g>
  </g>
  <g id="axes_2">
   <g id="patch_8">
    <path d="M 394.363636 384.48 
L 648 384.48 
L 648 51.84 
L 394.363636 51.84 
z
" style="fill:#ffffff;"/>
   </g>
   <g id="matplotlib.axis_3">
    <g id="xtick_8">
     <g id="line2d_40">
      <g>
       <use style="stroke:#000000;stroke-width:0.8;" x="394.363636" xlink:href="#m0da27dd1ff" y="384.48"/>
      </g>
     </g>
     <g id="text_26">
      <!-- 0 -->
      <g transform="translate(391.182386 399.078438)scale(0.1 -0.1)">
       <use xlink:href="#DejaVuSans-48"/>
      </g>
     </g>
    </g>
    <g id="xtick_9">
     <g id="line2d_41">
      <g>
       <use style="stroke:#000000;stroke-width:0.8;" x="426.068182" xlink:href="#m0da27dd1ff" y="384.48"/>
      </g>
     </g>
     <g id="text_27">
      <!-- 25 -->
      <g transform="translate(419.705682 399.078438)scale(0.1 -0.1)">
       <use xlink:href="#DejaVuSans-50"/>
       <use x="63.623047" xlink:href="#DejaVuSans-53"/>
      </g>
     </g>
    </g>
    <g id="xtick_10">
     <g id="line2d_42">
      <g>
       <use style="stroke:#000000;stroke-width:0.8;" x="457.772727" xlink:href="#m0da27dd1ff" y="384.48"/>
      </g>
     </g>
     <g id="text_28">
      <!-- 50 -->
      <g transform="translate(451.410227 399.078438)scale(0.1 -0.1)">
       <use xlink:href="#DejaVuSans-53"/>
       <use x="63.623047" xlink:href="#DejaVuSans-48"/>
      </g>
     </g>
    </g>
    <g id="xtick_11">
     <g id="line2d_43">
      <g>
       <use style="stroke:#000000;stroke-width:0.8;" x="489.477273" xlink:href="#m0da27dd1ff" y="384.48"/>
      </g>
     </g>
     <g id="text_29">
      <!-- 75 -->
      <g transform="translate(483.114773 399.078438)scale(0.1 -0.1)">
       <use xlink:href="#DejaVuSans-55"/>
       <use x="63.623047" xlink:href="#DejaVuSans-53"/>
      </g>
     </g>
    </g>
    <g id="xtick_12">
     <g id="line2d_44">
      <g>
       <use style="stroke:#000000;stroke-width:0.8;" x="521.181818" xlink:href="#m0da27dd1ff" y="384.48"/>
      </g>
     </g>
     <g id="text_30">
      <!-- 100 -->
      <g transform="translate(511.638068 399.078438)scale(0.1 -0.1)">
       <use xlink:href="#DejaVuSans-49"/>
       <use x="63.623047" xlink:href="#DejaVuSans-48"/>
       <use x="127.246094" xlink:href="#DejaVuSans-48"/>
      </g>
     </g>
    </g>
    <g id="xtick_13">
     <g id="line2d_45">
      <g>
       <use style="stroke:#000000;stroke-width:0.8;" x="552.886364" xlink:href="#m0da27dd1ff" y="384.48"/>
      </g>
     </g>
     <g id="text_31">
      <!-- 125 -->
      <g transform="translate(543.342614 399.078438)scale(0.1 -0.1)">
       <use xlink:href="#DejaVuSans-49"/>
       <use x="63.623047" xlink:href="#DejaVuSans-50"/>
       <use x="127.246094" xlink:href="#DejaVuSans-53"/>
      </g>
     </g>
    </g>
    <g id="xtick_14">
     <g id="line2d_46">
      <g>
       <use style="stroke:#000000;stroke-width:0.8;" x="584.590909" xlink:href="#m0da27dd1ff" y="384.48"/>
      </g>
     </g>
     <g id="text_32">
      <!-- 150 -->
      <g transform="translate(575.047159 399.078438)scale(0.1 -0.1)">
       <use xlink:href="#DejaVuSans-49"/>
       <use x="63.623047" xlink:href="#DejaVuSans-53"/>
       <use x="127.246094" xlink:href="#DejaVuSans-48"/>
      </g>
     </g>
    </g>
    <g id="xtick_15">
     <g id="line2d_47">
      <g>
       <use style="stroke:#000000;stroke-width:0.8;" x="616.295455" xlink:href="#m0da27dd1ff" y="384.48"/>
      </g>
     </g>
     <g id="text_33">
      <!-- 175 -->
      <g transform="translate(606.751705 399.078438)scale(0.1 -0.1)">
       <use xlink:href="#DejaVuSans-49"/>
       <use x="63.623047" xlink:href="#DejaVuSans-55"/>
       <use x="127.246094" xlink:href="#DejaVuSans-53"/>
      </g>
     </g>
    </g>
    <g id="xtick_16">
     <g id="line2d_48">
      <g>
       <use style="stroke:#000000;stroke-width:0.8;" x="648" xlink:href="#m0da27dd1ff" y="384.48"/>
      </g>
     </g>
     <g id="text_34">
      <!-- 200 -->
      <g transform="translate(638.45625 399.078438)scale(0.1 -0.1)">
       <use xlink:href="#DejaVuSans-50"/>
       <use x="63.623047" xlink:href="#DejaVuSans-48"/>
       <use x="127.246094" xlink:href="#DejaVuSans-48"/>
      </g>
     </g>
    </g>
    <g id="text_35">
     <!-- Epoch -->
     <g transform="translate(505.870881 412.756563)scale(0.1 -0.1)">
      <use xlink:href="#DejaVuSans-69"/>
      <use x="63.183594" xlink:href="#DejaVuSans-112"/>
      <use x="126.660156" xlink:href="#DejaVuSans-111"/>
      <use x="187.841797" xlink:href="#DejaVuSans-99"/>
      <use x="242.822266" xlink:href="#DejaVuSans-104"/>
     </g>
    </g>
   </g>
   <g id="matplotlib.axis_4">
    <g id="ytick_9">
     <g id="line2d_49">
      <g>
       <use style="stroke:#000000;stroke-width:0.8;" x="394.363636" xlink:href="#med396186ca" y="369.605487"/>
      </g>
     </g>
     <g id="text_36">
      <!-- 0.00 -->
      <g transform="translate(365.098011 373.404706)scale(0.1 -0.1)">
       <use xlink:href="#DejaVuSans-48"/>
       <use x="63.623047" xlink:href="#DejaVuSans-46"/>
       <use x="95.410156" xlink:href="#DejaVuSans-48"/>
       <use x="159.033203" xlink:href="#DejaVuSans-48"/>
      </g>
     </g>
    </g>
    <g id="ytick_10">
     <g id="line2d_50">
      <g>
       <use style="stroke:#000000;stroke-width:0.8;" x="394.363636" xlink:href="#med396186ca" y="328.781674"/>
      </g>
     </g>
     <g id="text_37">
      <!-- 0.25 -->
      <g transform="translate(365.098011 332.580893)scale(0.1 -0.1)">
       <use xlink:href="#DejaVuSans-48"/>
       <use x="63.623047" xlink:href="#DejaVuSans-46"/>
       <use x="95.410156" xlink:href="#DejaVuSans-50"/>
       <use x="159.033203" xlink:href="#DejaVuSans-53"/>
      </g>
     </g>
    </g>
    <g id="ytick_11">
     <g id="line2d_51">
      <g>
       <use style="stroke:#000000;stroke-width:0.8;" x="394.363636" xlink:href="#med396186ca" y="287.957861"/>
      </g>
     </g>
     <g id="text_38">
      <!-- 0.50 -->
      <g transform="translate(365.098011 291.75708)scale(0.1 -0.1)">
       <use xlink:href="#DejaVuSans-48"/>
       <use x="63.623047" xlink:href="#DejaVuSans-46"/>
       <use x="95.410156" xlink:href="#DejaVuSans-53"/>
       <use x="159.033203" xlink:href="#DejaVuSans-48"/>
      </g>
     </g>
    </g>
    <g id="ytick_12">
     <g id="line2d_52">
      <g>
       <use style="stroke:#000000;stroke-width:0.8;" x="394.363636" xlink:href="#med396186ca" y="247.134048"/>
      </g>
     </g>
     <g id="text_39">
      <!-- 0.75 -->
      <g transform="translate(365.098011 250.933267)scale(0.1 -0.1)">
       <use xlink:href="#DejaVuSans-48"/>
       <use x="63.623047" xlink:href="#DejaVuSans-46"/>
       <use x="95.410156" xlink:href="#DejaVuSans-55"/>
       <use x="159.033203" xlink:href="#DejaVuSans-53"/>
      </g>
     </g>
    </g>
    <g id="ytick_13">
     <g id="line2d_53">
      <g>
       <use style="stroke:#000000;stroke-width:0.8;" x="394.363636" xlink:href="#med396186ca" y="206.310236"/>
      </g>
     </g>
     <g id="text_40">
      <!-- 1.00 -->
      <g transform="translate(365.098011 210.109454)scale(0.1 -0.1)">
       <use xlink:href="#DejaVuSans-49"/>
       <use x="63.623047" xlink:href="#DejaVuSans-46"/>
       <use x="95.410156" xlink:href="#DejaVuSans-48"/>
       <use x="159.033203" xlink:href="#DejaVuSans-48"/>
      </g>
     </g>
    </g>
    <g id="ytick_14">
     <g id="line2d_54">
      <g>
       <use style="stroke:#000000;stroke-width:0.8;" x="394.363636" xlink:href="#med396186ca" y="165.486423"/>
      </g>
     </g>
     <g id="text_41">
      <!-- 1.25 -->
      <g transform="translate(365.098011 169.285641)scale(0.1 -0.1)">
       <use xlink:href="#DejaVuSans-49"/>
       <use x="63.623047" xlink:href="#DejaVuSans-46"/>
       <use x="95.410156" xlink:href="#DejaVuSans-50"/>
       <use x="159.033203" xlink:href="#DejaVuSans-53"/>
      </g>
     </g>
    </g>
    <g id="ytick_15">
     <g id="line2d_55">
      <g>
       <use style="stroke:#000000;stroke-width:0.8;" x="394.363636" xlink:href="#med396186ca" y="124.66261"/>
      </g>
     </g>
     <g id="text_42">
      <!-- 1.50 -->
      <g transform="translate(365.098011 128.461829)scale(0.1 -0.1)">
       <use xlink:href="#DejaVuSans-49"/>
       <use x="63.623047" xlink:href="#DejaVuSans-46"/>
       <use x="95.410156" xlink:href="#DejaVuSans-53"/>
       <use x="159.033203" xlink:href="#DejaVuSans-48"/>
      </g>
     </g>
    </g>
    <g id="ytick_16">
     <g id="line2d_56">
      <g>
       <use style="stroke:#000000;stroke-width:0.8;" x="394.363636" xlink:href="#med396186ca" y="83.838797"/>
      </g>
     </g>
     <g id="text_43">
      <!-- 1.75 -->
      <g transform="translate(365.098011 87.638016)scale(0.1 -0.1)">
       <use xlink:href="#DejaVuSans-49"/>
       <use x="63.623047" xlink:href="#DejaVuSans-46"/>
       <use x="95.410156" xlink:href="#DejaVuSans-55"/>
       <use x="159.033203" xlink:href="#DejaVuSans-53"/>
      </g>
     </g>
    </g>
    <g id="text_44">
     <!-- Loss -->
     <g transform="translate(359.018324 229.127187)rotate(-90)scale(0.1 -0.1)">
      <use xlink:href="#DejaVuSans-76"/>
      <use x="53.962891" xlink:href="#DejaVuSans-111"/>
      <use x="115.144531" xlink:href="#DejaVuSans-115"/>
      <use x="167.244141" xlink:href="#DejaVuSans-115"/>
     </g>
    </g>
   </g>
   <g id="line2d_57">
    <path clip-path="url(#p2a5e010531)" d="M 394.363636 134.385428 
L 395.631818 209.591197 
L 396.9 232.795847 
L 398.168182 247.035789 
L 399.436364 257.608822 
L 400.704545 265.783448 
L 401.972727 272.242839 
L 403.240909 277.447856 
L 404.509091 281.720625 
L 405.777273 285.289497 
L 407.045455 288.31863 
L 408.313636 290.927801 
L 409.581818 293.205744 
L 410.85 295.219193 
L 413.386364 298.644863 
L 415.922727 301.491509 
L 418.459091 303.93929 
L 420.995455 306.106747 
L 424.8 309.002721 
L 429.872727 312.459179 
L 436.213636 316.45033 
L 446.359091 322.540932 
L 455.236364 327.663605 
L 461.577273 331.11396 
L 467.918182 334.305248 
L 472.990909 336.63897 
L 478.063636 338.768189 
L 483.136364 340.696383 
L 489.477273 342.840723 
L 495.818182 344.71675 
L 502.159091 346.355871 
L 508.5 347.788631 
L 516.109091 349.27482 
L 523.718182 350.54661 
L 532.595455 351.807044 
L 542.740909 353.009503 
L 554.154545 354.123359 
L 566.836364 355.132487 
L 582.054545 356.104997 
L 599.809091 356.999187 
L 620.1 357.795466 
L 645.463636 358.556944 
L 675.9 359.240661 
L 713.945455 359.867349 
L 721 359.96351 
L 721 359.96351 
" style="fill:none;stroke:#1f77b4;stroke-dasharray:5.55,2.4;stroke-dashoffset:0;stroke-width:1.5;"/>
   </g>
   <g id="line2d_58">
    <path clip-path="url(#p2a5e010531)" d="M 394.363636 117.21479 
L 395.631818 177.8514 
L 396.9 186.394725 
L 398.168182 188.204368 
L 400.704545 190.28427 
L 401.972727 192.046632 
L 403.240909 195.383145 
L 404.509091 201.010353 
L 408.313636 221.398637 
L 409.581818 227.360891 
L 410.85 232.780194 
L 412.118182 237.659551 
L 413.386364 242.025262 
L 414.654545 245.91725 
L 415.922727 249.381539 
L 417.190909 252.465188 
L 418.459091 255.213217 
L 419.727273 257.666985 
L 420.995455 259.863522 
L 423.531818 263.611129 
L 426.068182 266.66886 
L 428.604545 269.195478 
L 431.140909 271.308817 
L 433.677273 273.096688 
L 436.213636 274.625102 
L 438.75 275.944219 
L 442.554545 277.612408 
L 446.359091 278.990723 
L 450.163636 280.146801 
L 455.236364 281.424685 
L 460.309091 282.474008 
L 466.65 283.547661 
L 474.259091 284.581425 
L 483.136364 285.539227 
L 493.281818 286.408285 
L 505.963636 287.273287 
L 528.790909 288.550565 
L 541.472727 289.369659 
L 549.081818 290.048406 
L 555.422727 290.804878 
L 561.763636 291.810798 
L 566.836364 292.839942 
L 571.909091 294.079001 
L 578.25 295.856536 
L 597.272727 301.343944 
L 606.15 303.596456 
L 615.027273 305.615398 
L 625.172727 307.669656 
L 635.318182 309.496353 
L 646.731818 311.328085 
L 659.413636 313.137832 
L 673.363636 314.906841 
L 688.581818 316.621656 
L 706.336364 318.391105 
L 721 319.69615 
L 721 319.69615 
" style="fill:none;stroke:#ff7f0e;stroke-dasharray:5.55,2.4;stroke-dashoffset:0;stroke-width:1.5;"/>
   </g>
   <g id="line2d_59">
    <path clip-path="url(#p2a5e010531)" d="M 394.363636 141.361666 
L 395.631818 302.909861 
L 396.9 317.371601 
L 398.168182 326.093489 
L 399.436364 332.356438 
L 400.704545 337.174283 
L 401.972727 340.788748 
L 403.240909 343.606072 
L 404.509091 345.82099 
L 405.777273 347.524934 
L 407.045455 348.890219 
L 408.313636 349.996921 
L 409.581818 350.933543 
L 412.118182 352.386475 
L 414.654545 353.46962 
L 417.190909 354.314997 
L 420.995455 355.260343 
L 424.8 355.99081 
L 429.872727 356.739971 
L 437.481818 357.567229 
L 446.359091 358.262497 
L 457.772727 358.899255 
L 478.063636 359.552774 
L 500.890909 359.987843 
L 511.036364 360.137108 
L 538.936364 360.437346 
L 565.568182 360.643823 
L 651.804545 361.097873 
L 656.877273 361.121209 
L 721 361.368787 
L 721 361.368787 
" style="fill:none;stroke:#2ca02c;stroke-dasharray:5.55,2.4;stroke-dashoffset:0;stroke-width:1.5;"/>
   </g>
   <g id="line2d_60">
    <path clip-path="url(#p2a5e010531)" d="M 394.363636 66.96 
L 395.631818 245.255288 
L 396.9 278.372249 
L 398.168182 294.042509 
L 399.436364 303.675518 
L 400.704545 310.480428 
L 401.972727 315.652189 
L 403.240909 319.737195 
L 404.509091 322.9194 
L 405.777273 325.523453 
L 407.045455 327.729274 
L 409.581818 331.185433 
L 412.118182 333.983186 
L 414.654545 336.255241 
L 417.190909 338.12929 
L 419.727273 339.702556 
L 424.8 342.418553 
L 426.068182 342.84317 
L 428.604545 344.063204 
L 429.872727 344.42799 
L 431.140909 344.956675 
L 432.409091 345.283074 
L 433.677273 345.748668 
L 434.945455 346.044689 
L 437.481818 346.796933 
L 440.018182 347.394083 
L 445.090909 348.440521 
L 450.163636 349.256873 
L 456.504545 350.026788 
L 464.113636 350.692687 
L 472.990909 351.250127 
L 480.6 351.627044 
L 492.013636 352.00657 
L 518.645455 352.825864 
L 550.35 353.911868 
L 584.590909 354.717597 
L 590.931818 354.814424 
L 592.2 354.986189 
L 599.809091 354.992143 
L 604.881818 355.063543 
L 606.15 355.192862 
L 615.027273 355.224449 
L 616.295455 355.358969 
L 626.440909 355.38973 
L 627.709091 355.531475 
L 639.122727 355.55749 
L 640.390909 355.706365 
L 653.072727 355.712937 
L 654.340909 355.720127 
L 655.609091 355.895958 
L 663.218182 355.835289 
L 673.363636 355.922482 
L 674.631818 356.091727 
L 688.581818 356.074535 
L 701.263636 356.197121 
L 721 356.363117 
L 721 356.363117 
" style="fill:none;stroke:#d62728;stroke-dasharray:5.55,2.4;stroke-dashoffset:0;stroke-width:1.5;"/>
   </g>
   <g id="line2d_61">
    <path clip-path="url(#p2a5e010531)" d="M 394.363636 213.172595 
L 395.631818 237.200136 
L 396.9 250.144128 
L 398.168182 260.423556 
L 399.436364 268.733419 
L 400.704545 275.460794 
L 401.972727 280.968973 
L 403.240909 285.548174 
L 404.509091 289.414658 
L 405.777273 292.727073 
L 407.045455 295.602363 
L 408.313636 298.127777 
L 409.581818 300.369331 
L 412.118182 304.192339 
L 414.654545 307.358705 
L 417.190909 310.051097 
L 419.727273 312.391323 
L 422.263636 314.464016 
L 426.068182 317.200054 
L 429.872727 319.61081 
L 434.945455 322.478024 
L 440.018182 325.07496 
L 446.359091 328.063144 
L 453.968182 331.366991 
L 461.577273 334.400528 
L 469.186364 337.16725 
L 476.795455 339.667135 
L 484.404545 341.90575 
L 492.013636 343.894333 
L 499.622727 345.649276 
L 507.231818 347.191055 
L 516.109091 348.750678 
L 524.986364 350.087307 
L 535.131818 351.38504 
L 546.545455 352.6042 
L 559.227273 353.719973 
L 573.177273 354.720762 
L 589.663636 355.67087 
L 608.686364 356.535488 
L 631.513636 357.338819 
L 659.413636 358.081377 
L 693.654545 358.754158 
L 721 359.16415 
L 721 359.16415 
" style="fill:none;stroke:#1f77b4;stroke-linecap:square;stroke-width:1.5;"/>
   </g>
   <g id="line2d_62">
    <path clip-path="url(#p2a5e010531)" d="M 394.363636 117.21479 
L 395.631818 177.8514 
L 396.9 186.394725 
L 398.168182 188.204368 
L 400.704545 190.28427 
L 401.972727 192.046632 
L 403.240909 195.383145 
L 404.509091 201.010353 
L 408.313636 221.398637 
L 409.581818 227.360891 
L 410.85 232.780194 
L 412.118182 237.659551 
L 413.386364 242.025262 
L 414.654545 245.91725 
L 415.922727 249.381539 
L 417.190909 252.465188 
L 418.459091 255.213217 
L 419.727273 257.666985 
L 420.995455 259.863522 
L 423.531818 263.611129 
L 426.068182 266.66886 
L 428.604545 269.195478 
L 431.140909 271.308817 
L 433.677273 273.096688 
L 436.213636 274.625102 
L 438.75 275.944219 
L 442.554545 277.612408 
L 446.359091 278.990723 
L 450.163636 280.146801 
L 455.236364 281.424685 
L 460.309091 282.474008 
L 466.65 283.547661 
L 474.259091 284.581425 
L 483.136364 285.539227 
L 493.281818 286.408285 
L 505.963636 287.273287 
L 528.790909 288.550565 
L 541.472727 289.369659 
L 549.081818 290.048406 
L 555.422727 290.804878 
L 561.763636 291.810798 
L 566.836364 292.839942 
L 571.909091 294.079001 
L 578.25 295.856536 
L 597.272727 301.343944 
L 606.15 303.596456 
L 615.027273 305.615398 
L 625.172727 307.669656 
L 635.318182 309.496353 
L 646.731818 311.328085 
L 659.413636 313.137832 
L 673.363636 314.906841 
L 688.581818 316.621656 
L 706.336364 318.391105 
L 721 319.69615 
L 721 319.69615 
" style="fill:none;stroke:#ff7f0e;stroke-linecap:square;stroke-width:1.5;"/>
   </g>
   <g id="line2d_63">
    <path clip-path="url(#p2a5e010531)" d="M 394.363636 312.456044 
L 395.631818 332.121017 
L 396.9 340.609695 
L 398.168182 345.989936 
L 399.436364 349.770693 
L 400.704545 352.564979 
L 401.972727 354.69113 
L 403.240909 356.410443 
L 404.509091 357.851839 
L 405.777273 358.988295 
L 408.313636 360.760189 
L 410.85 362.162471 
L 413.386364 363.190612 
L 415.922727 363.976683 
L 419.727273 364.808194 
L 423.531818 365.440951 
L 428.604545 366.091444 
L 434.945455 366.654935 
L 443.822727 367.216413 
L 455.236364 367.687351 
L 472.990909 368.163031 
L 495.818182 368.52456 
L 530.059091 368.817152 
L 573.177273 369.033227 
L 684.777273 369.284304 
L 721 369.321176 
L 721 369.321176 
" style="fill:none;stroke:#2ca02c;stroke-linecap:square;stroke-width:1.5;"/>
   </g>
   <g id="line2d_64">
    <path clip-path="url(#p2a5e010531)" d="M 394.363636 309.515341 
L 395.631818 318.370342 
L 396.9 324.520675 
L 398.168182 329.683222 
L 399.436364 333.923806 
L 400.704545 337.343534 
L 401.972727 339.780981 
L 403.240909 341.948746 
L 404.509091 343.763151 
L 405.777273 345.262515 
L 407.045455 346.522336 
L 408.313636 347.600794 
L 410.85 349.353339 
L 418.459091 354.141283 
L 420.995455 355.493326 
L 422.263636 356.093396 
L 423.531818 356.161923 
L 424.8 357.179879 
L 426.068182 357.268003 
L 428.604545 358.14498 
L 431.140909 358.857602 
L 434.945455 359.706722 
L 440.018182 360.493127 
L 445.090909 361.017233 
L 450.163636 361.344314 
L 456.504545 361.52282 
L 464.113636 361.497748 
L 478.063636 361.421292 
L 484.404545 361.686944 
L 494.55 362.418188 
L 505.963636 363.191448 
L 516.109091 363.634565 
L 528.790909 363.913537 
L 569.372727 364.151773 
L 574.445455 364.171185 
L 615.027273 364.320328 
L 618.831818 364.320072 
L 708.872727 364.675229 
L 721 364.7025 
L 721 364.7025 
" style="fill:none;stroke:#d62728;stroke-linecap:square;stroke-width:1.5;"/>
   </g>
   <g id="patch_9">
    <path d="M 394.363636 384.48 
L 394.363636 51.84 
" style="fill:none;stroke:#000000;stroke-linecap:square;stroke-linejoin:miter;stroke-width:0.8;"/>
   </g>
   <g id="patch_10">
    <path d="M 648 384.48 
L 648 51.84 
" style="fill:none;stroke:#000000;stroke-linecap:square;stroke-linejoin:miter;stroke-width:0.8;"/>
   </g>
   <g id="patch_11">
    <path d="M 394.363636 384.48 
L 648 384.48 
" style="fill:none;stroke:#000000;stroke-linecap:square;stroke-linejoin:miter;stroke-width:0.8;"/>
   </g>
   <g id="patch_12">
    <path d="M 394.363636 51.84 
L 648 51.84 
" style="fill:none;stroke:#000000;stroke-linecap:square;stroke-linejoin:miter;stroke-width:0.8;"/>
   </g>
   <g id="legend_2">
    <g id="patch_13">
     <path d="M 476.0625 177.265 
L 641 177.265 
Q 643 177.265 643 175.265 
L 643 58.84 
Q 643 56.84 641 56.84 
L 476.0625 56.84 
Q 474.0625 56.84 474.0625 58.84 
L 474.0625 175.265 
Q 474.0625 177.265 476.0625 177.265 
z
" style="fill:#ffffff;opacity:0.8;stroke:#cccccc;stroke-linejoin:miter;"/>
    </g>
    <g id="line2d_65">
     <path d="M 478.0625 64.938437 
L 498.0625 64.938437 
" style="fill:none;stroke:#1f77b4;stroke-dasharray:5.55,2.4;stroke-dashoffset:0;stroke-width:1.5;"/>
    </g>
    <g id="line2d_66"/>
    <g id="text_45">
     <!-- train w/ Sigmoid w/ Norm -->
     <g transform="translate(506.0625 68.438437)scale(0.1 -0.1)">
      <use xlink:href="#DejaVuSans-116"/>
      <use x="39.208984" xlink:href="#DejaVuSans-114"/>
      <use x="80.322266" xlink:href="#DejaVuSans-97"/>
      <use x="141.601562" xlink:href="#DejaVuSans-105"/>
      <use x="169.384766" xlink:href="#DejaVuSans-110"/>
      <use x="232.763672" xlink:href="#DejaVuSans-32"/>
      <use x="264.550781" xlink:href="#DejaVuSans-119"/>
      <use x="346.337891" xlink:href="#DejaVuSans-47"/>
      <use x="380.029297" xlink:href="#DejaVuSans-32"/>
      <use x="411.816406" xlink:href="#DejaVuSans-83"/>
      <use x="475.292969" xlink:href="#DejaVuSans-105"/>
      <use x="503.076172" xlink:href="#DejaVuSans-103"/>
      <use x="566.552734" xlink:href="#DejaVuSans-109"/>
      <use x="663.964844" xlink:href="#DejaVuSans-111"/>
      <use x="725.146484" xlink:href="#DejaVuSans-105"/>
      <use x="752.929688" xlink:href="#DejaVuSans-100"/>
      <use x="816.40625" xlink:href="#DejaVuSans-32"/>
      <use x="848.193359" xlink:href="#DejaVuSans-119"/>
      <use x="929.980469" xlink:href="#DejaVuSans-47"/>
      <use x="963.671875" xlink:href="#DejaVuSans-32"/>
      <use x="995.458984" xlink:href="#DejaVuSans-78"/>
      <use x="1070.263672" xlink:href="#DejaVuSans-111"/>
      <use x="1131.445312" xlink:href="#DejaVuSans-114"/>
      <use x="1170.808594" xlink:href="#DejaVuSans-109"/>
     </g>
    </g>
    <g id="line2d_67">
     <path d="M 478.0625 79.616562 
L 498.0625 79.616562 
" style="fill:none;stroke:#ff7f0e;stroke-dasharray:5.55,2.4;stroke-dashoffset:0;stroke-width:1.5;"/>
    </g>
    <g id="line2d_68"/>
    <g id="text_46">
     <!-- train w/ Sigmoid w/o Norm -->
     <g transform="translate(506.0625 83.116562)scale(0.1 -0.1)">
      <use xlink:href="#DejaVuSans-116"/>
      <use x="39.208984" xlink:href="#DejaVuSans-114"/>
      <use x="80.322266" xlink:href="#DejaVuSans-97"/>
      <use x="141.601562" xlink:href="#DejaVuSans-105"/>
      <use x="169.384766" xlink:href="#DejaVuSans-110"/>
      <use x="232.763672" xlink:href="#DejaVuSans-32"/>
      <use x="264.550781" xlink:href="#DejaVuSans-119"/>
      <use x="346.337891" xlink:href="#DejaVuSans-47"/>
      <use x="380.029297" xlink:href="#DejaVuSans-32"/>
      <use x="411.816406" xlink:href="#DejaVuSans-83"/>
      <use x="475.292969" xlink:href="#DejaVuSans-105"/>
      <use x="503.076172" xlink:href="#DejaVuSans-103"/>
      <use x="566.552734" xlink:href="#DejaVuSans-109"/>
      <use x="663.964844" xlink:href="#DejaVuSans-111"/>
      <use x="725.146484" xlink:href="#DejaVuSans-105"/>
      <use x="752.929688" xlink:href="#DejaVuSans-100"/>
      <use x="816.40625" xlink:href="#DejaVuSans-32"/>
      <use x="848.193359" xlink:href="#DejaVuSans-119"/>
      <use x="929.980469" xlink:href="#DejaVuSans-47"/>
      <use x="963.671875" xlink:href="#DejaVuSans-111"/>
      <use x="1024.853516" xlink:href="#DejaVuSans-32"/>
      <use x="1056.640625" xlink:href="#DejaVuSans-78"/>
      <use x="1131.445312" xlink:href="#DejaVuSans-111"/>
      <use x="1192.626953" xlink:href="#DejaVuSans-114"/>
      <use x="1231.990234" xlink:href="#DejaVuSans-109"/>
     </g>
    </g>
    <g id="line2d_69">
     <path d="M 478.0625 94.294687 
L 498.0625 94.294687 
" style="fill:none;stroke:#2ca02c;stroke-dasharray:5.55,2.4;stroke-dashoffset:0;stroke-width:1.5;"/>
    </g>
    <g id="line2d_70"/>
    <g id="text_47">
     <!-- train w/ ReLU w/ Norm -->
     <g transform="translate(506.0625 97.794687)scale(0.1 -0.1)">
      <use xlink:href="#DejaVuSans-116"/>
      <use x="39.208984" xlink:href="#DejaVuSans-114"/>
      <use x="80.322266" xlink:href="#DejaVuSans-97"/>
      <use x="141.601562" xlink:href="#DejaVuSans-105"/>
      <use x="169.384766" xlink:href="#DejaVuSans-110"/>
      <use x="232.763672" xlink:href="#DejaVuSans-32"/>
      <use x="264.550781" xlink:href="#DejaVuSans-119"/>
      <use x="346.337891" xlink:href="#DejaVuSans-47"/>
      <use x="380.029297" xlink:href="#DejaVuSans-32"/>
      <use x="411.816406" xlink:href="#DejaVuSans-82"/>
      <use x="476.798828" xlink:href="#DejaVuSans-101"/>
      <use x="538.322266" xlink:href="#DejaVuSans-76"/>
      <use x="589.035156" xlink:href="#DejaVuSans-85"/>
      <use x="662.228516" xlink:href="#DejaVuSans-32"/>
      <use x="694.015625" xlink:href="#DejaVuSans-119"/>
      <use x="775.802734" xlink:href="#DejaVuSans-47"/>
      <use x="809.494141" xlink:href="#DejaVuSans-32"/>
      <use x="841.28125" xlink:href="#DejaVuSans-78"/>
      <use x="916.085938" xlink:href="#DejaVuSans-111"/>
      <use x="977.267578" xlink:href="#DejaVuSans-114"/>
      <use x="1016.630859" xlink:href="#DejaVuSans-109"/>
     </g>
    </g>
    <g id="line2d_71">
     <path d="M 478.0625 108.972812 
L 498.0625 108.972812 
" style="fill:none;stroke:#d62728;stroke-dasharray:5.55,2.4;stroke-dashoffset:0;stroke-width:1.5;"/>
    </g>
    <g id="line2d_72"/>
    <g id="text_48">
     <!-- train w/ ReLU w/o Norm -->
     <g transform="translate(506.0625 112.472812)scale(0.1 -0.1)">
      <use xlink:href="#DejaVuSans-116"/>
      <use x="39.208984" xlink:href="#DejaVuSans-114"/>
      <use x="80.322266" xlink:href="#DejaVuSans-97"/>
      <use x="141.601562" xlink:href="#DejaVuSans-105"/>
      <use x="169.384766" xlink:href="#DejaVuSans-110"/>
      <use x="232.763672" xlink:href="#DejaVuSans-32"/>
      <use x="264.550781" xlink:href="#DejaVuSans-119"/>
      <use x="346.337891" xlink:href="#DejaVuSans-47"/>
      <use x="380.029297" xlink:href="#DejaVuSans-32"/>
      <use x="411.816406" xlink:href="#DejaVuSans-82"/>
      <use x="476.798828" xlink:href="#DejaVuSans-101"/>
      <use x="538.322266" xlink:href="#DejaVuSans-76"/>
      <use x="589.035156" xlink:href="#DejaVuSans-85"/>
      <use x="662.228516" xlink:href="#DejaVuSans-32"/>
      <use x="694.015625" xlink:href="#DejaVuSans-119"/>
      <use x="775.802734" xlink:href="#DejaVuSans-47"/>
      <use x="809.494141" xlink:href="#DejaVuSans-111"/>
      <use x="870.675781" xlink:href="#DejaVuSans-32"/>
      <use x="902.462891" xlink:href="#DejaVuSans-78"/>
      <use x="977.267578" xlink:href="#DejaVuSans-111"/>
      <use x="1038.449219" xlink:href="#DejaVuSans-114"/>
      <use x="1077.8125" xlink:href="#DejaVuSans-109"/>
     </g>
    </g>
    <g id="line2d_73">
     <path d="M 478.0625 123.650937 
L 498.0625 123.650937 
" style="fill:none;stroke:#1f77b4;stroke-linecap:square;stroke-width:1.5;"/>
    </g>
    <g id="line2d_74"/>
    <g id="text_49">
     <!-- test w/ sigmoid w/ Norm -->
     <g transform="translate(506.0625 127.150937)scale(0.1 -0.1)">
      <use xlink:href="#DejaVuSans-116"/>
      <use x="39.208984" xlink:href="#DejaVuSans-101"/>
      <use x="100.732422" xlink:href="#DejaVuSans-115"/>
      <use x="152.832031" xlink:href="#DejaVuSans-116"/>
      <use x="192.041016" xlink:href="#DejaVuSans-32"/>
      <use x="223.828125" xlink:href="#DejaVuSans-119"/>
      <use x="305.615234" xlink:href="#DejaVuSans-47"/>
      <use x="339.306641" xlink:href="#DejaVuSans-32"/>
      <use x="371.09375" xlink:href="#DejaVuSans-115"/>
      <use x="423.193359" xlink:href="#DejaVuSans-105"/>
      <use x="450.976562" xlink:href="#DejaVuSans-103"/>
      <use x="514.453125" xlink:href="#DejaVuSans-109"/>
      <use x="611.865234" xlink:href="#DejaVuSans-111"/>
      <use x="673.046875" xlink:href="#DejaVuSans-105"/>
      <use x="700.830078" xlink:href="#DejaVuSans-100"/>
      <use x="764.306641" xlink:href="#DejaVuSans-32"/>
      <use x="796.09375" xlink:href="#DejaVuSans-119"/>
      <use x="877.880859" xlink:href="#DejaVuSans-47"/>
      <use x="911.572266" xlink:href="#DejaVuSans-32"/>
      <use x="943.359375" xlink:href="#DejaVuSans-78"/>
      <use x="1018.164062" xlink:href="#DejaVuSans-111"/>
      <use x="1079.345703" xlink:href="#DejaVuSans-114"/>
      <use x="1118.708984" xlink:href="#DejaVuSans-109"/>
     </g>
    </g>
    <g id="line2d_75">
     <path d="M 478.0625 138.329062 
L 498.0625 138.329062 
" style="fill:none;stroke:#ff7f0e;stroke-linecap:square;stroke-width:1.5;"/>
    </g>
    <g id="line2d_76"/>
    <g id="text_50">
     <!-- test w/ Sigmoid w/o Norm -->
     <g transform="translate(506.0625 141.829062)scale(0.1 -0.1)">
      <use xlink:href="#DejaVuSans-116"/>
      <use x="39.208984" xlink:href="#DejaVuSans-101"/>
      <use x="100.732422" xlink:href="#DejaVuSans-115"/>
      <use x="152.832031" xlink:href="#DejaVuSans-116"/>
      <use x="192.041016" xlink:href="#DejaVuSans-32"/>
      <use x="223.828125" xlink:href="#DejaVuSans-119"/>
      <use x="305.615234" xlink:href="#DejaVuSans-47"/>
      <use x="339.306641" xlink:href="#DejaVuSans-32"/>
      <use x="371.09375" xlink:href="#DejaVuSans-83"/>
      <use x="434.570312" xlink:href="#DejaVuSans-105"/>
      <use x="462.353516" xlink:href="#DejaVuSans-103"/>
      <use x="525.830078" xlink:href="#DejaVuSans-109"/>
      <use x="623.242188" xlink:href="#DejaVuSans-111"/>
      <use x="684.423828" xlink:href="#DejaVuSans-105"/>
      <use x="712.207031" xlink:href="#DejaVuSans-100"/>
      <use x="775.683594" xlink:href="#DejaVuSans-32"/>
      <use x="807.470703" xlink:href="#DejaVuSans-119"/>
      <use x="889.257812" xlink:href="#DejaVuSans-47"/>
      <use x="922.949219" xlink:href="#DejaVuSans-111"/>
      <use x="984.130859" xlink:href="#DejaVuSans-32"/>
      <use x="1015.917969" xlink:href="#DejaVuSans-78"/>
      <use x="1090.722656" xlink:href="#DejaVuSans-111"/>
      <use x="1151.904297" xlink:href="#DejaVuSans-114"/>
      <use x="1191.267578" xlink:href="#DejaVuSans-109"/>
     </g>
    </g>
    <g id="line2d_77">
     <path d="M 478.0625 153.007187 
L 498.0625 153.007187 
" style="fill:none;stroke:#2ca02c;stroke-linecap:square;stroke-width:1.5;"/>
    </g>
    <g id="line2d_78"/>
    <g id="text_51">
     <!-- test w/ ReLU w/ Norm -->
     <g transform="translate(506.0625 156.507187)scale(0.1 -0.1)">
      <use xlink:href="#DejaVuSans-116"/>
      <use x="39.208984" xlink:href="#DejaVuSans-101"/>
      <use x="100.732422" xlink:href="#DejaVuSans-115"/>
      <use x="152.832031" xlink:href="#DejaVuSans-116"/>
      <use x="192.041016" xlink:href="#DejaVuSans-32"/>
      <use x="223.828125" xlink:href="#DejaVuSans-119"/>
      <use x="305.615234" xlink:href="#DejaVuSans-47"/>
      <use x="339.306641" xlink:href="#DejaVuSans-32"/>
      <use x="371.09375" xlink:href="#DejaVuSans-82"/>
      <use x="436.076172" xlink:href="#DejaVuSans-101"/>
      <use x="497.599609" xlink:href="#DejaVuSans-76"/>
      <use x="548.3125" xlink:href="#DejaVuSans-85"/>
      <use x="621.505859" xlink:href="#DejaVuSans-32"/>
      <use x="653.292969" xlink:href="#DejaVuSans-119"/>
      <use x="735.080078" xlink:href="#DejaVuSans-47"/>
      <use x="768.771484" xlink:href="#DejaVuSans-32"/>
      <use x="800.558594" xlink:href="#DejaVuSans-78"/>
      <use x="875.363281" xlink:href="#DejaVuSans-111"/>
      <use x="936.544922" xlink:href="#DejaVuSans-114"/>
      <use x="975.908203" xlink:href="#DejaVuSans-109"/>
     </g>
    </g>
    <g id="line2d_79">
     <path d="M 478.0625 167.685312 
L 498.0625 167.685312 
" style="fill:none;stroke:#d62728;stroke-linecap:square;stroke-width:1.5;"/>
    </g>
    <g id="line2d_80"/>
    <g id="text_52">
     <!-- test w/ ReLU w/o Norm -->
     <g transform="translate(506.0625 171.185312)scale(0.1 -0.1)">
      <use xlink:href="#DejaVuSans-116"/>
      <use x="39.208984" xlink:href="#DejaVuSans-101"/>
      <use x="100.732422" xlink:href="#DejaVuSans-115"/>
      <use x="152.832031" xlink:href="#DejaVuSans-116"/>
      <use x="192.041016" xlink:href="#DejaVuSans-32"/>
      <use x="223.828125" xlink:href="#DejaVuSans-119"/>
      <use x="305.615234" xlink:href="#DejaVuSans-47"/>
      <use x="339.306641" xlink:href="#DejaVuSans-32"/>
      <use x="371.09375" xlink:href="#DejaVuSans-82"/>
      <use x="436.076172" xlink:href="#DejaVuSans-101"/>
      <use x="497.599609" xlink:href="#DejaVuSans-76"/>
      <use x="548.3125" xlink:href="#DejaVuSans-85"/>
      <use x="621.505859" xlink:href="#DejaVuSans-32"/>
      <use x="653.292969" xlink:href="#DejaVuSans-119"/>
      <use x="735.080078" xlink:href="#DejaVuSans-47"/>
      <use x="768.771484" xlink:href="#DejaVuSans-111"/>
      <use x="829.953125" xlink:href="#DejaVuSans-32"/>
      <use x="861.740234" xlink:href="#DejaVuSans-78"/>
      <use x="936.544922" xlink:href="#DejaVuSans-111"/>
      <use x="997.726562" xlink:href="#DejaVuSans-114"/>
      <use x="1037.089844" xlink:href="#DejaVuSans-109"/>
     </g>
    </g>
   </g>
  </g>
 </g>
 <defs>
  <clipPath id="p8533dafa12">
   <rect height="332.64" width="253.636364" x="90" y="51.84"/>
  </clipPath>
  <clipPath id="p2a5e010531">
   <rect height="332.64" width="253.636364" x="394.363636" y="51.84"/>
  </clipPath>
 </defs>
</svg>
