<?xml version="1.0" encoding="utf-8" standalone="no"?>
<!DOCTYPE svg PUBLIC "-//W3C//DTD SVG 1.1//EN"
  "http://www.w3.org/Graphics/SVG/1.1/DTD/svg11.dtd">
<!-- Created with matplotlib (https://matplotlib.org/) -->
<svg height="432pt" version="1.1" viewBox="0 0 720 432" width="720pt" xmlns="http://www.w3.org/2000/svg" xmlns:xlink="http://www.w3.org/1999/xlink">
 <defs>
  <style type="text/css">
*{stroke-linecap:butt;stroke-linejoin:round;}
  </style>
 </defs>
 <g id="figure_1">
  <g id="patch_1">
   <path d="M 0 432 
L 720 432 
L 720 0 
L 0 0 
z
" style="fill:#ffffff;"/>
  </g>
  <g id="axes_1">
   <g id="patch_2">
    <path d="M 90 384.48 
L 343.636364 384.48 
L 343.636364 51.84 
L 90 51.84 
z
" style="fill:#ffffff;"/>
   </g>
   <g id="matplotlib.axis_1">
    <g id="xtick_1">
     <g id="line2d_1">
      <defs>
       <path d="M 0 0 
L 0 3.5 
" id="m0076388593" style="stroke:#000000;stroke-width:0.8;"/>
      </defs>
      <g>
       <use style="stroke:#000000;stroke-width:0.8;" x="90" xlink:href="#m0076388593" y="384.48"/>
      </g>
     </g>
     <g id="text_1">
      <!-- 0 -->
      <defs>
       <path d="M 31.78125 66.40625 
Q 24.171875 66.40625 20.328125 58.90625 
Q 16.5 51.421875 16.5 36.375 
Q 16.5 21.390625 20.328125 13.890625 
Q 24.171875 6.390625 31.78125 6.390625 
Q 39.453125 6.390625 43.28125 13.890625 
Q 47.125 21.390625 47.125 36.375 
Q 47.125 51.421875 43.28125 58.90625 
Q 39.453125 66.40625 31.78125 66.40625 
z
M 31.78125 74.21875 
Q 44.046875 74.21875 50.515625 64.515625 
Q 56.984375 54.828125 56.984375 36.375 
Q 56.984375 17.96875 50.515625 8.265625 
Q 44.046875 -1.421875 31.78125 -1.421875 
Q 19.53125 -1.421875 13.0625 8.265625 
Q 6.59375 17.96875 6.59375 36.375 
Q 6.59375 54.828125 13.0625 64.515625 
Q 19.53125 74.21875 31.78125 74.21875 
z
" id="DejaVuSans-48"/>
      </defs>
      <g transform="translate(86.81875 399.078438)scale(0.1 -0.1)">
       <use xlink:href="#DejaVuSans-48"/>
      </g>
     </g>
    </g>
    <g id="xtick_2">
     <g id="line2d_2">
      <g>
       <use style="stroke:#000000;stroke-width:0.8;" x="132.272727" xlink:href="#m0076388593" y="384.48"/>
      </g>
     </g>
     <g id="text_2">
      <!-- 50 -->
      <defs>
       <path d="M 10.796875 72.90625 
L 49.515625 72.90625 
L 49.515625 64.59375 
L 19.828125 64.59375 
L 19.828125 46.734375 
Q 21.96875 47.46875 24.109375 47.828125 
Q 26.265625 48.1875 28.421875 48.1875 
Q 40.625 48.1875 47.75 41.5 
Q 54.890625 34.8125 54.890625 23.390625 
Q 54.890625 11.625 47.5625 5.09375 
Q 40.234375 -1.421875 26.90625 -1.421875 
Q 22.3125 -1.421875 17.546875 -0.640625 
Q 12.796875 0.140625 7.71875 1.703125 
L 7.71875 11.625 
Q 12.109375 9.234375 16.796875 8.0625 
Q 21.484375 6.890625 26.703125 6.890625 
Q 35.15625 6.890625 40.078125 11.328125 
Q 45.015625 15.765625 45.015625 23.390625 
Q 45.015625 31 40.078125 35.4375 
Q 35.15625 39.890625 26.703125 39.890625 
Q 22.75 39.890625 18.8125 39.015625 
Q 14.890625 38.140625 10.796875 36.28125 
z
" id="DejaVuSans-53"/>
      </defs>
      <g transform="translate(125.910227 399.078438)scale(0.1 -0.1)">
       <use xlink:href="#DejaVuSans-53"/>
       <use x="63.623047" xlink:href="#DejaVuSans-48"/>
      </g>
     </g>
    </g>
    <g id="xtick_3">
     <g id="line2d_3">
      <g>
       <use style="stroke:#000000;stroke-width:0.8;" x="174.545455" xlink:href="#m0076388593" y="384.48"/>
      </g>
     </g>
     <g id="text_3">
      <!-- 100 -->
      <defs>
       <path d="M 12.40625 8.296875 
L 28.515625 8.296875 
L 28.515625 63.921875 
L 10.984375 60.40625 
L 10.984375 69.390625 
L 28.421875 72.90625 
L 38.28125 72.90625 
L 38.28125 8.296875 
L 54.390625 8.296875 
L 54.390625 0 
L 12.40625 0 
z
" id="DejaVuSans-49"/>
      </defs>
      <g transform="translate(165.001705 399.078438)scale(0.1 -0.1)">
       <use xlink:href="#DejaVuSans-49"/>
       <use x="63.623047" xlink:href="#DejaVuSans-48"/>
       <use x="127.246094" xlink:href="#DejaVuSans-48"/>
      </g>
     </g>
    </g>
    <g id="xtick_4">
     <g id="line2d_4">
      <g>
       <use style="stroke:#000000;stroke-width:0.8;" x="216.818182" xlink:href="#m0076388593" y="384.48"/>
      </g>
     </g>
     <g id="text_4">
      <!-- 150 -->
      <g transform="translate(207.274432 399.078438)scale(0.1 -0.1)">
       <use xlink:href="#DejaVuSans-49"/>
       <use x="63.623047" xlink:href="#DejaVuSans-53"/>
       <use x="127.246094" xlink:href="#DejaVuSans-48"/>
      </g>
     </g>
    </g>
    <g id="xtick_5">
     <g id="line2d_5">
      <g>
       <use style="stroke:#000000;stroke-width:0.8;" x="259.090909" xlink:href="#m0076388593" y="384.48"/>
      </g>
     </g>
     <g id="text_5">
      <!-- 200 -->
      <defs>
       <path d="M 19.1875 8.296875 
L 53.609375 8.296875 
L 53.609375 0 
L 7.328125 0 
L 7.328125 8.296875 
Q 12.9375 14.109375 22.625 23.890625 
Q 32.328125 33.6875 34.8125 36.53125 
Q 39.546875 41.84375 41.421875 45.53125 
Q 43.3125 49.21875 43.3125 52.78125 
Q 43.3125 58.59375 39.234375 62.25 
Q 35.15625 65.921875 28.609375 65.921875 
Q 23.96875 65.921875 18.8125 64.3125 
Q 13.671875 62.703125 7.8125 59.421875 
L 7.8125 69.390625 
Q 13.765625 71.78125 18.9375 73 
Q 24.125 74.21875 28.421875 74.21875 
Q 39.75 74.21875 46.484375 68.546875 
Q 53.21875 62.890625 53.21875 53.421875 
Q 53.21875 48.921875 51.53125 44.890625 
Q 49.859375 40.875 45.40625 35.40625 
Q 44.1875 33.984375 37.640625 27.21875 
Q 31.109375 20.453125 19.1875 8.296875 
z
" id="DejaVuSans-50"/>
      </defs>
      <g transform="translate(249.547159 399.078438)scale(0.1 -0.1)">
       <use xlink:href="#DejaVuSans-50"/>
       <use x="63.623047" xlink:href="#DejaVuSans-48"/>
       <use x="127.246094" xlink:href="#DejaVuSans-48"/>
      </g>
     </g>
    </g>
    <g id="xtick_6">
     <g id="line2d_6">
      <g>
       <use style="stroke:#000000;stroke-width:0.8;" x="301.363636" xlink:href="#m0076388593" y="384.48"/>
      </g>
     </g>
     <g id="text_6">
      <!-- 250 -->
      <g transform="translate(291.819886 399.078438)scale(0.1 -0.1)">
       <use xlink:href="#DejaVuSans-50"/>
       <use x="63.623047" xlink:href="#DejaVuSans-53"/>
       <use x="127.246094" xlink:href="#DejaVuSans-48"/>
      </g>
     </g>
    </g>
    <g id="xtick_7">
     <g id="line2d_7">
      <g>
       <use style="stroke:#000000;stroke-width:0.8;" x="343.636364" xlink:href="#m0076388593" y="384.48"/>
      </g>
     </g>
     <g id="text_7">
      <!-- 300 -->
      <defs>
       <path d="M 40.578125 39.3125 
Q 47.65625 37.796875 51.625 33 
Q 55.609375 28.21875 55.609375 21.1875 
Q 55.609375 10.40625 48.1875 4.484375 
Q 40.765625 -1.421875 27.09375 -1.421875 
Q 22.515625 -1.421875 17.65625 -0.515625 
Q 12.796875 0.390625 7.625 2.203125 
L 7.625 11.71875 
Q 11.71875 9.328125 16.59375 8.109375 
Q 21.484375 6.890625 26.8125 6.890625 
Q 36.078125 6.890625 40.9375 10.546875 
Q 45.796875 14.203125 45.796875 21.1875 
Q 45.796875 27.640625 41.28125 31.265625 
Q 36.765625 34.90625 28.71875 34.90625 
L 20.21875 34.90625 
L 20.21875 43.015625 
L 29.109375 43.015625 
Q 36.375 43.015625 40.234375 45.921875 
Q 44.09375 48.828125 44.09375 54.296875 
Q 44.09375 59.90625 40.109375 62.90625 
Q 36.140625 65.921875 28.71875 65.921875 
Q 24.65625 65.921875 20.015625 65.03125 
Q 15.375 64.15625 9.8125 62.3125 
L 9.8125 71.09375 
Q 15.4375 72.65625 20.34375 73.4375 
Q 25.25 74.21875 29.59375 74.21875 
Q 40.828125 74.21875 47.359375 69.109375 
Q 53.90625 64.015625 53.90625 55.328125 
Q 53.90625 49.265625 50.4375 45.09375 
Q 46.96875 40.921875 40.578125 39.3125 
z
" id="DejaVuSans-51"/>
      </defs>
      <g transform="translate(334.092614 399.078438)scale(0.1 -0.1)">
       <use xlink:href="#DejaVuSans-51"/>
       <use x="63.623047" xlink:href="#DejaVuSans-48"/>
       <use x="127.246094" xlink:href="#DejaVuSans-48"/>
      </g>
     </g>
    </g>
    <g id="text_8">
     <!-- Epoch -->
     <defs>
      <path d="M 9.8125 72.90625 
L 55.90625 72.90625 
L 55.90625 64.59375 
L 19.671875 64.59375 
L 19.671875 43.015625 
L 54.390625 43.015625 
L 54.390625 34.71875 
L 19.671875 34.71875 
L 19.671875 8.296875 
L 56.78125 8.296875 
L 56.78125 0 
L 9.8125 0 
z
" id="DejaVuSans-69"/>
      <path d="M 18.109375 8.203125 
L 18.109375 -20.796875 
L 9.078125 -20.796875 
L 9.078125 54.6875 
L 18.109375 54.6875 
L 18.109375 46.390625 
Q 20.953125 51.265625 25.265625 53.625 
Q 29.59375 56 35.59375 56 
Q 45.5625 56 51.78125 48.09375 
Q 58.015625 40.1875 58.015625 27.296875 
Q 58.015625 14.40625 51.78125 6.484375 
Q 45.5625 -1.421875 35.59375 -1.421875 
Q 29.59375 -1.421875 25.265625 0.953125 
Q 20.953125 3.328125 18.109375 8.203125 
z
M 48.6875 27.296875 
Q 48.6875 37.203125 44.609375 42.84375 
Q 40.53125 48.484375 33.40625 48.484375 
Q 26.265625 48.484375 22.1875 42.84375 
Q 18.109375 37.203125 18.109375 27.296875 
Q 18.109375 17.390625 22.1875 11.75 
Q 26.265625 6.109375 33.40625 6.109375 
Q 40.53125 6.109375 44.609375 11.75 
Q 48.6875 17.390625 48.6875 27.296875 
z
" id="DejaVuSans-112"/>
      <path d="M 30.609375 48.390625 
Q 23.390625 48.390625 19.1875 42.75 
Q 14.984375 37.109375 14.984375 27.296875 
Q 14.984375 17.484375 19.15625 11.84375 
Q 23.34375 6.203125 30.609375 6.203125 
Q 37.796875 6.203125 41.984375 11.859375 
Q 46.1875 17.53125 46.1875 27.296875 
Q 46.1875 37.015625 41.984375 42.703125 
Q 37.796875 48.390625 30.609375 48.390625 
z
M 30.609375 56 
Q 42.328125 56 49.015625 48.375 
Q 55.71875 40.765625 55.71875 27.296875 
Q 55.71875 13.875 49.015625 6.21875 
Q 42.328125 -1.421875 30.609375 -1.421875 
Q 18.84375 -1.421875 12.171875 6.21875 
Q 5.515625 13.875 5.515625 27.296875 
Q 5.515625 40.765625 12.171875 48.375 
Q 18.84375 56 30.609375 56 
z
" id="DejaVuSans-111"/>
      <path d="M 48.78125 52.59375 
L 48.78125 44.1875 
Q 44.96875 46.296875 41.140625 47.34375 
Q 37.3125 48.390625 33.40625 48.390625 
Q 24.65625 48.390625 19.8125 42.84375 
Q 14.984375 37.3125 14.984375 27.296875 
Q 14.984375 17.28125 19.8125 11.734375 
Q 24.65625 6.203125 33.40625 6.203125 
Q 37.3125 6.203125 41.140625 7.25 
Q 44.96875 8.296875 48.78125 10.40625 
L 48.78125 2.09375 
Q 45.015625 0.34375 40.984375 -0.53125 
Q 36.96875 -1.421875 32.421875 -1.421875 
Q 20.0625 -1.421875 12.78125 6.34375 
Q 5.515625 14.109375 5.515625 27.296875 
Q 5.515625 40.671875 12.859375 48.328125 
Q 20.21875 56 33.015625 56 
Q 37.15625 56 41.109375 55.140625 
Q 45.0625 54.296875 48.78125 52.59375 
z
" id="DejaVuSans-99"/>
      <path d="M 54.890625 33.015625 
L 54.890625 0 
L 45.90625 0 
L 45.90625 32.71875 
Q 45.90625 40.484375 42.875 44.328125 
Q 39.84375 48.1875 33.796875 48.1875 
Q 26.515625 48.1875 22.3125 43.546875 
Q 18.109375 38.921875 18.109375 30.90625 
L 18.109375 0 
L 9.078125 0 
L 9.078125 75.984375 
L 18.109375 75.984375 
L 18.109375 46.1875 
Q 21.34375 51.125 25.703125 53.5625 
Q 30.078125 56 35.796875 56 
Q 45.21875 56 50.046875 50.171875 
Q 54.890625 44.34375 54.890625 33.015625 
z
" id="DejaVuSans-104"/>
     </defs>
     <g transform="translate(201.507244 412.756563)scale(0.1 -0.1)">
      <use xlink:href="#DejaVuSans-69"/>
      <use x="63.183594" xlink:href="#DejaVuSans-112"/>
      <use x="126.660156" xlink:href="#DejaVuSans-111"/>
      <use x="187.841797" xlink:href="#DejaVuSans-99"/>
      <use x="242.822266" xlink:href="#DejaVuSans-104"/>
     </g>
    </g>
   </g>
   <g id="matplotlib.axis_2">
    <g id="ytick_1">
     <g id="line2d_8">
      <defs>
       <path d="M 0 0 
L -3.5 0 
" id="m31a5a1b686" style="stroke:#000000;stroke-width:0.8;"/>
      </defs>
      <g>
       <use style="stroke:#000000;stroke-width:0.8;" x="90" xlink:href="#m31a5a1b686" y="376.826667"/>
      </g>
     </g>
     <g id="text_9">
      <!-- 0.3 -->
      <defs>
       <path d="M 10.6875 12.40625 
L 21 12.40625 
L 21 0 
L 10.6875 0 
z
" id="DejaVuSans-46"/>
      </defs>
      <g transform="translate(67.096875 380.625885)scale(0.1 -0.1)">
       <use xlink:href="#DejaVuSans-48"/>
       <use x="63.623047" xlink:href="#DejaVuSans-46"/>
       <use x="95.410156" xlink:href="#DejaVuSans-51"/>
      </g>
     </g>
    </g>
    <g id="ytick_2">
     <g id="line2d_9">
      <g>
       <use style="stroke:#000000;stroke-width:0.8;" x="90" xlink:href="#m31a5a1b686" y="332.026667"/>
      </g>
     </g>
     <g id="text_10">
      <!-- 0.4 -->
      <defs>
       <path d="M 37.796875 64.3125 
L 12.890625 25.390625 
L 37.796875 25.390625 
z
M 35.203125 72.90625 
L 47.609375 72.90625 
L 47.609375 25.390625 
L 58.015625 25.390625 
L 58.015625 17.1875 
L 47.609375 17.1875 
L 47.609375 0 
L 37.796875 0 
L 37.796875 17.1875 
L 4.890625 17.1875 
L 4.890625 26.703125 
z
" id="DejaVuSans-52"/>
      </defs>
      <g transform="translate(67.096875 335.825885)scale(0.1 -0.1)">
       <use xlink:href="#DejaVuSans-48"/>
       <use x="63.623047" xlink:href="#DejaVuSans-46"/>
       <use x="95.410156" xlink:href="#DejaVuSans-52"/>
      </g>
     </g>
    </g>
    <g id="ytick_3">
     <g id="line2d_10">
      <g>
       <use style="stroke:#000000;stroke-width:0.8;" x="90" xlink:href="#m31a5a1b686" y="287.226667"/>
      </g>
     </g>
     <g id="text_11">
      <!-- 0.5 -->
      <g transform="translate(67.096875 291.025885)scale(0.1 -0.1)">
       <use xlink:href="#DejaVuSans-48"/>
       <use x="63.623047" xlink:href="#DejaVuSans-46"/>
       <use x="95.410156" xlink:href="#DejaVuSans-53"/>
      </g>
     </g>
    </g>
    <g id="ytick_4">
     <g id="line2d_11">
      <g>
       <use style="stroke:#000000;stroke-width:0.8;" x="90" xlink:href="#m31a5a1b686" y="242.426667"/>
      </g>
     </g>
     <g id="text_12">
      <!-- 0.6 -->
      <defs>
       <path d="M 33.015625 40.375 
Q 26.375 40.375 22.484375 35.828125 
Q 18.609375 31.296875 18.609375 23.390625 
Q 18.609375 15.53125 22.484375 10.953125 
Q 26.375 6.390625 33.015625 6.390625 
Q 39.65625 6.390625 43.53125 10.953125 
Q 47.40625 15.53125 47.40625 23.390625 
Q 47.40625 31.296875 43.53125 35.828125 
Q 39.65625 40.375 33.015625 40.375 
z
M 52.59375 71.296875 
L 52.59375 62.3125 
Q 48.875 64.0625 45.09375 64.984375 
Q 41.3125 65.921875 37.59375 65.921875 
Q 27.828125 65.921875 22.671875 59.328125 
Q 17.53125 52.734375 16.796875 39.40625 
Q 19.671875 43.65625 24.015625 45.921875 
Q 28.375 48.1875 33.59375 48.1875 
Q 44.578125 48.1875 50.953125 41.515625 
Q 57.328125 34.859375 57.328125 23.390625 
Q 57.328125 12.15625 50.6875 5.359375 
Q 44.046875 -1.421875 33.015625 -1.421875 
Q 20.359375 -1.421875 13.671875 8.265625 
Q 6.984375 17.96875 6.984375 36.375 
Q 6.984375 53.65625 15.1875 63.9375 
Q 23.390625 74.21875 37.203125 74.21875 
Q 40.921875 74.21875 44.703125 73.484375 
Q 48.484375 72.75 52.59375 71.296875 
z
" id="DejaVuSans-54"/>
      </defs>
      <g transform="translate(67.096875 246.225885)scale(0.1 -0.1)">
       <use xlink:href="#DejaVuSans-48"/>
       <use x="63.623047" xlink:href="#DejaVuSans-46"/>
       <use x="95.410156" xlink:href="#DejaVuSans-54"/>
      </g>
     </g>
    </g>
    <g id="ytick_5">
     <g id="line2d_12">
      <g>
       <use style="stroke:#000000;stroke-width:0.8;" x="90" xlink:href="#m31a5a1b686" y="197.626667"/>
      </g>
     </g>
     <g id="text_13">
      <!-- 0.7 -->
      <defs>
       <path d="M 8.203125 72.90625 
L 55.078125 72.90625 
L 55.078125 68.703125 
L 28.609375 0 
L 18.3125 0 
L 43.21875 64.59375 
L 8.203125 64.59375 
z
" id="DejaVuSans-55"/>
      </defs>
      <g transform="translate(67.096875 201.425885)scale(0.1 -0.1)">
       <use xlink:href="#DejaVuSans-48"/>
       <use x="63.623047" xlink:href="#DejaVuSans-46"/>
       <use x="95.410156" xlink:href="#DejaVuSans-55"/>
      </g>
     </g>
    </g>
    <g id="ytick_6">
     <g id="line2d_13">
      <g>
       <use style="stroke:#000000;stroke-width:0.8;" x="90" xlink:href="#m31a5a1b686" y="152.826667"/>
      </g>
     </g>
     <g id="text_14">
      <!-- 0.8 -->
      <defs>
       <path d="M 31.78125 34.625 
Q 24.75 34.625 20.71875 30.859375 
Q 16.703125 27.09375 16.703125 20.515625 
Q 16.703125 13.921875 20.71875 10.15625 
Q 24.75 6.390625 31.78125 6.390625 
Q 38.8125 6.390625 42.859375 10.171875 
Q 46.921875 13.96875 46.921875 20.515625 
Q 46.921875 27.09375 42.890625 30.859375 
Q 38.875 34.625 31.78125 34.625 
z
M 21.921875 38.8125 
Q 15.578125 40.375 12.03125 44.71875 
Q 8.5 49.078125 8.5 55.328125 
Q 8.5 64.0625 14.71875 69.140625 
Q 20.953125 74.21875 31.78125 74.21875 
Q 42.671875 74.21875 48.875 69.140625 
Q 55.078125 64.0625 55.078125 55.328125 
Q 55.078125 49.078125 51.53125 44.71875 
Q 48 40.375 41.703125 38.8125 
Q 48.828125 37.15625 52.796875 32.3125 
Q 56.78125 27.484375 56.78125 20.515625 
Q 56.78125 9.90625 50.3125 4.234375 
Q 43.84375 -1.421875 31.78125 -1.421875 
Q 19.734375 -1.421875 13.25 4.234375 
Q 6.78125 9.90625 6.78125 20.515625 
Q 6.78125 27.484375 10.78125 32.3125 
Q 14.796875 37.15625 21.921875 38.8125 
z
M 18.3125 54.390625 
Q 18.3125 48.734375 21.84375 45.5625 
Q 25.390625 42.390625 31.78125 42.390625 
Q 38.140625 42.390625 41.71875 45.5625 
Q 45.3125 48.734375 45.3125 54.390625 
Q 45.3125 60.0625 41.71875 63.234375 
Q 38.140625 66.40625 31.78125 66.40625 
Q 25.390625 66.40625 21.84375 63.234375 
Q 18.3125 60.0625 18.3125 54.390625 
z
" id="DejaVuSans-56"/>
      </defs>
      <g transform="translate(67.096875 156.625885)scale(0.1 -0.1)">
       <use xlink:href="#DejaVuSans-48"/>
       <use x="63.623047" xlink:href="#DejaVuSans-46"/>
       <use x="95.410156" xlink:href="#DejaVuSans-56"/>
      </g>
     </g>
    </g>
    <g id="ytick_7">
     <g id="line2d_14">
      <g>
       <use style="stroke:#000000;stroke-width:0.8;" x="90" xlink:href="#m31a5a1b686" y="108.026667"/>
      </g>
     </g>
     <g id="text_15">
      <!-- 0.9 -->
      <defs>
       <path d="M 10.984375 1.515625 
L 10.984375 10.5 
Q 14.703125 8.734375 18.5 7.8125 
Q 22.3125 6.890625 25.984375 6.890625 
Q 35.75 6.890625 40.890625 13.453125 
Q 46.046875 20.015625 46.78125 33.40625 
Q 43.953125 29.203125 39.59375 26.953125 
Q 35.25 24.703125 29.984375 24.703125 
Q 19.046875 24.703125 12.671875 31.3125 
Q 6.296875 37.9375 6.296875 49.421875 
Q 6.296875 60.640625 12.9375 67.421875 
Q 19.578125 74.21875 30.609375 74.21875 
Q 43.265625 74.21875 49.921875 64.515625 
Q 56.59375 54.828125 56.59375 36.375 
Q 56.59375 19.140625 48.40625 8.859375 
Q 40.234375 -1.421875 26.421875 -1.421875 
Q 22.703125 -1.421875 18.890625 -0.6875 
Q 15.09375 0.046875 10.984375 1.515625 
z
M 30.609375 32.421875 
Q 37.25 32.421875 41.125 36.953125 
Q 45.015625 41.5 45.015625 49.421875 
Q 45.015625 57.28125 41.125 61.84375 
Q 37.25 66.40625 30.609375 66.40625 
Q 23.96875 66.40625 20.09375 61.84375 
Q 16.21875 57.28125 16.21875 49.421875 
Q 16.21875 41.5 20.09375 36.953125 
Q 23.96875 32.421875 30.609375 32.421875 
z
" id="DejaVuSans-57"/>
      </defs>
      <g transform="translate(67.096875 111.825885)scale(0.1 -0.1)">
       <use xlink:href="#DejaVuSans-48"/>
       <use x="63.623047" xlink:href="#DejaVuSans-46"/>
       <use x="95.410156" xlink:href="#DejaVuSans-57"/>
      </g>
     </g>
    </g>
    <g id="ytick_8">
     <g id="line2d_15">
      <g>
       <use style="stroke:#000000;stroke-width:0.8;" x="90" xlink:href="#m31a5a1b686" y="63.226667"/>
      </g>
     </g>
     <g id="text_16">
      <!-- 1.0 -->
      <g transform="translate(67.096875 67.025885)scale(0.1 -0.1)">
       <use xlink:href="#DejaVuSans-49"/>
       <use x="63.623047" xlink:href="#DejaVuSans-46"/>
       <use x="95.410156" xlink:href="#DejaVuSans-48"/>
      </g>
     </g>
    </g>
    <g id="text_17">
     <!-- Accuracy -->
     <defs>
      <path d="M 34.1875 63.1875 
L 20.796875 26.90625 
L 47.609375 26.90625 
z
M 28.609375 72.90625 
L 39.796875 72.90625 
L 67.578125 0 
L 57.328125 0 
L 50.6875 18.703125 
L 17.828125 18.703125 
L 11.1875 0 
L 0.78125 0 
z
" id="DejaVuSans-65"/>
      <path d="M 8.5 21.578125 
L 8.5 54.6875 
L 17.484375 54.6875 
L 17.484375 21.921875 
Q 17.484375 14.15625 20.5 10.265625 
Q 23.53125 6.390625 29.59375 6.390625 
Q 36.859375 6.390625 41.078125 11.03125 
Q 45.3125 15.671875 45.3125 23.6875 
L 45.3125 54.6875 
L 54.296875 54.6875 
L 54.296875 0 
L 45.3125 0 
L 45.3125 8.40625 
Q 42.046875 3.421875 37.71875 1 
Q 33.40625 -1.421875 27.6875 -1.421875 
Q 18.265625 -1.421875 13.375 4.4375 
Q 8.5 10.296875 8.5 21.578125 
z
M 31.109375 56 
z
" id="DejaVuSans-117"/>
      <path d="M 41.109375 46.296875 
Q 39.59375 47.171875 37.8125 47.578125 
Q 36.03125 48 33.890625 48 
Q 26.265625 48 22.1875 43.046875 
Q 18.109375 38.09375 18.109375 28.8125 
L 18.109375 0 
L 9.078125 0 
L 9.078125 54.6875 
L 18.109375 54.6875 
L 18.109375 46.1875 
Q 20.953125 51.171875 25.484375 53.578125 
Q 30.03125 56 36.53125 56 
Q 37.453125 56 38.578125 55.875 
Q 39.703125 55.765625 41.0625 55.515625 
z
" id="DejaVuSans-114"/>
      <path d="M 34.28125 27.484375 
Q 23.390625 27.484375 19.1875 25 
Q 14.984375 22.515625 14.984375 16.5 
Q 14.984375 11.71875 18.140625 8.90625 
Q 21.296875 6.109375 26.703125 6.109375 
Q 34.1875 6.109375 38.703125 11.40625 
Q 43.21875 16.703125 43.21875 25.484375 
L 43.21875 27.484375 
z
M 52.203125 31.203125 
L 52.203125 0 
L 43.21875 0 
L 43.21875 8.296875 
Q 40.140625 3.328125 35.546875 0.953125 
Q 30.953125 -1.421875 24.3125 -1.421875 
Q 15.921875 -1.421875 10.953125 3.296875 
Q 6 8.015625 6 15.921875 
Q 6 25.140625 12.171875 29.828125 
Q 18.359375 34.515625 30.609375 34.515625 
L 43.21875 34.515625 
L 43.21875 35.40625 
Q 43.21875 41.609375 39.140625 45 
Q 35.0625 48.390625 27.6875 48.390625 
Q 23 48.390625 18.546875 47.265625 
Q 14.109375 46.140625 10.015625 43.890625 
L 10.015625 52.203125 
Q 14.9375 54.109375 19.578125 55.046875 
Q 24.21875 56 28.609375 56 
Q 40.484375 56 46.34375 49.84375 
Q 52.203125 43.703125 52.203125 31.203125 
z
" id="DejaVuSans-97"/>
      <path d="M 32.171875 -5.078125 
Q 28.375 -14.84375 24.75 -17.8125 
Q 21.140625 -20.796875 15.09375 -20.796875 
L 7.90625 -20.796875 
L 7.90625 -13.28125 
L 13.1875 -13.28125 
Q 16.890625 -13.28125 18.9375 -11.515625 
Q 21 -9.765625 23.484375 -3.21875 
L 25.09375 0.875 
L 2.984375 54.6875 
L 12.5 54.6875 
L 29.59375 11.921875 
L 46.6875 54.6875 
L 56.203125 54.6875 
z
" id="DejaVuSans-121"/>
     </defs>
     <g transform="translate(61.017187 240.988125)rotate(-90)scale(0.1 -0.1)">
      <use xlink:href="#DejaVuSans-65"/>
      <use x="66.658203" xlink:href="#DejaVuSans-99"/>
      <use x="121.638672" xlink:href="#DejaVuSans-99"/>
      <use x="176.619141" xlink:href="#DejaVuSans-117"/>
      <use x="239.998047" xlink:href="#DejaVuSans-114"/>
      <use x="281.111328" xlink:href="#DejaVuSans-97"/>
      <use x="342.390625" xlink:href="#DejaVuSans-99"/>
      <use x="397.371094" xlink:href="#DejaVuSans-121"/>
     </g>
    </g>
   </g>
   <g id="line2d_16">
    <path clip-path="url(#pbc3bc5052c)" d="M 90 369.36 
L 90.845455 261.093333 
L 91.690909 223.76 
L 92.536364 208.826667 
L 93.381818 197.626667 
L 94.227273 190.16 
L 95.072727 178.96 
L 97.609091 178.96 
L 99.3 164.026667 
L 100.990909 156.56 
L 101.836364 149.093333 
L 103.527273 149.093333 
L 105.218182 141.626667 
L 106.909091 141.626667 
L 107.754545 134.16 
L 108.6 134.16 
L 109.445455 126.693333 
L 111.981818 126.693333 
L 116.209091 108.026667 
L 117.054545 108.026667 
L 117.9 104.293333 
L 126.354545 104.293333 
L 127.2 100.56 
L 128.890909 100.56 
L 129.736364 96.826667 
L 130.581818 96.826667 
L 131.427273 93.093333 
L 134.809091 93.093333 
L 135.654545 89.36 
L 147.490909 89.36 
L 148.336364 93.093333 
L 161.018182 93.093333 
L 161.863636 89.36 
L 174.545455 89.36 
L 175.390909 85.626667 
L 189.763636 85.626667 
L 190.609091 81.893333 
L 215.972727 81.893333 
L 216.818182 78.16 
L 270.927273 78.16 
L 271.772727 74.426667 
L 291.218182 74.426667 
L 292.063636 78.16 
L 305.590909 78.16 
L 306.436364 81.893333 
L 342.790909 81.893333 
L 342.790909 81.893333 
" style="fill:none;stroke:#1f77b4;stroke-dasharray:5.55,2.4;stroke-dashoffset:0;stroke-width:1.5;"/>
   </g>
   <g id="line2d_17">
    <path clip-path="url(#pbc3bc5052c)" d="M 90 313.36 
L 90.845455 223.76 
L 91.690909 223.76 
L 93.381818 122.96 
L 94.227273 145.36 
L 95.072727 152.826667 
L 95.918182 156.56 
L 96.763636 156.56 
L 97.609091 149.093333 
L 98.454545 137.893333 
L 99.3 130.426667 
L 100.145455 126.693333 
L 100.990909 115.493333 
L 101.836364 100.56 
L 102.681818 93.093333 
L 104.372727 93.093333 
L 106.063636 85.626667 
L 115.363636 85.626667 
L 117.054545 78.16 
L 122.127273 78.16 
L 122.972727 70.693333 
L 147.490909 70.693333 
L 148.336364 74.426667 
L 190.609091 74.426667 
L 191.454545 70.693333 
L 342.790909 70.693333 
L 342.790909 70.693333 
" style="fill:none;stroke:#ff7f0e;stroke-dasharray:5.55,2.4;stroke-dashoffset:0;stroke-width:1.5;"/>
   </g>
   <g id="line2d_18">
    <path clip-path="url(#pbc3bc5052c)" d="M 90 246.16 
L 90.845455 220.026667 
L 91.690909 201.36 
L 92.536364 197.626667 
L 93.381818 171.493333 
L 94.227273 164.026667 
L 95.918182 164.026667 
L 96.763636 156.56 
L 97.609091 152.826667 
L 98.454545 141.626667 
L 99.3 137.893333 
L 100.145455 122.96 
L 100.990909 115.493333 
L 101.836364 104.293333 
L 102.681818 108.026667 
L 103.527273 104.293333 
L 107.754545 104.293333 
L 108.6 100.56 
L 109.445455 104.293333 
L 111.136364 104.293333 
L 111.981818 108.026667 
L 112.827273 104.293333 
L 117.054545 104.293333 
L 117.9 100.56 
L 121.281818 100.56 
L 123.818182 89.36 
L 137.345455 89.36 
L 138.190909 85.626667 
L 141.572727 85.626667 
L 142.418182 78.16 
L 153.409091 78.16 
L 154.254545 74.426667 
L 164.4 74.426667 
L 165.245455 70.693333 
L 342.790909 70.693333 
L 342.790909 70.693333 
" style="fill:none;stroke:#2ca02c;stroke-dasharray:5.55,2.4;stroke-dashoffset:0;stroke-width:1.5;"/>
   </g>
   <g id="line2d_19">
    <path clip-path="url(#pbc3bc5052c)" d="M 90 298.426667 
L 90.845455 261.093333 
L 91.690909 178.96 
L 93.381818 156.56 
L 94.227273 141.626667 
L 95.072727 134.16 
L 95.918182 130.426667 
L 96.763636 130.426667 
L 98.454545 122.96 
L 99.3 122.96 
L 100.145455 115.493333 
L 100.990909 111.76 
L 101.836364 104.293333 
L 103.527273 96.826667 
L 105.218182 96.826667 
L 106.909091 89.36 
L 109.445455 89.36 
L 111.136364 81.893333 
L 116.209091 81.893333 
L 117.054545 78.16 
L 136.5 78.16 
L 137.345455 74.426667 
L 145.8 74.426667 
L 146.645455 70.693333 
L 156.790909 70.693333 
L 157.636364 66.96 
L 207.518182 66.96 
L 208.363636 70.693333 
L 342.790909 70.693333 
L 342.790909 70.693333 
" style="fill:none;stroke:#d62728;stroke-dasharray:5.55,2.4;stroke-dashoffset:0;stroke-width:1.5;"/>
   </g>
   <g id="line2d_20">
    <path clip-path="url(#pbc3bc5052c)" d="M 90 257.36 
L 90.845455 182.693333 
L 91.690909 152.826667 
L 92.536364 152.826667 
L 93.381818 137.893333 
L 96.763636 137.893333 
L 97.609091 122.96 
L 101.836364 122.96 
L 102.681818 108.026667 
L 111.981818 108.026667 
L 112.827273 122.96 
L 271.772727 122.96 
L 272.618182 108.026667 
L 342.790909 108.026667 
L 342.790909 108.026667 
" style="fill:none;stroke:#1f77b4;stroke-linecap:square;stroke-width:1.5;"/>
   </g>
   <g id="line2d_21">
    <path clip-path="url(#pbc3bc5052c)" d="M 90 182.693333 
L 91.690909 182.693333 
L 92.536364 108.026667 
L 94.227273 108.026667 
L 95.072727 122.96 
L 96.763636 122.96 
L 97.609091 108.026667 
L 342.790909 108.026667 
L 342.790909 108.026667 
" style="fill:none;stroke:#ff7f0e;stroke-linecap:square;stroke-width:1.5;"/>
   </g>
   <g id="line2d_22">
    <path clip-path="url(#pbc3bc5052c)" d="M 90 182.693333 
L 90.845455 182.693333 
L 91.690909 167.76 
L 92.536364 137.893333 
L 95.072727 137.893333 
L 95.918182 122.96 
L 96.763636 122.96 
L 97.609091 108.026667 
L 342.790909 108.026667 
L 342.790909 108.026667 
" style="fill:none;stroke:#2ca02c;stroke-linecap:square;stroke-width:1.5;"/>
   </g>
   <g id="line2d_23">
    <path clip-path="url(#pbc3bc5052c)" d="M 90 361.893333 
L 90.845455 212.56 
L 91.690909 137.893333 
L 92.536364 152.826667 
L 94.227273 152.826667 
L 95.072727 137.893333 
L 106.063636 137.893333 
L 106.909091 152.826667 
L 110.290909 152.826667 
L 111.136364 137.893333 
L 117.054545 137.893333 
L 117.9 122.96 
L 135.654545 122.96 
L 136.5 108.026667 
L 342.790909 108.026667 
L 342.790909 108.026667 
" style="fill:none;stroke:#d62728;stroke-linecap:square;stroke-width:1.5;"/>
   </g>
   <g id="patch_3">
    <path d="M 90 384.48 
L 90 51.84 
" style="fill:none;stroke:#000000;stroke-linecap:square;stroke-linejoin:miter;stroke-width:0.8;"/>
   </g>
   <g id="patch_4">
    <path d="M 343.636364 384.48 
L 343.636364 51.84 
" style="fill:none;stroke:#000000;stroke-linecap:square;stroke-linejoin:miter;stroke-width:0.8;"/>
   </g>
   <g id="patch_5">
    <path d="M 90 384.48 
L 343.636364 384.48 
" style="fill:none;stroke:#000000;stroke-linecap:square;stroke-linejoin:miter;stroke-width:0.8;"/>
   </g>
   <g id="patch_6">
    <path d="M 90 51.84 
L 343.636364 51.84 
" style="fill:none;stroke:#000000;stroke-linecap:square;stroke-linejoin:miter;stroke-width:0.8;"/>
   </g>
   <g id="legend_1">
    <g id="patch_7">
     <path d="M 179.333239 379.48 
L 336.636364 379.48 
Q 338.636364 379.48 338.636364 377.48 
L 338.636364 261.055 
Q 338.636364 259.055 336.636364 259.055 
L 179.333239 259.055 
Q 177.333239 259.055 177.333239 261.055 
L 177.333239 377.48 
Q 177.333239 379.48 179.333239 379.48 
z
" style="fill:#ffffff;opacity:0.8;stroke:#cccccc;stroke-linejoin:miter;"/>
    </g>
    <g id="line2d_24">
     <path d="M 181.333239 267.153437 
L 201.333239 267.153437 
" style="fill:none;stroke:#1f77b4;stroke-dasharray:5.55,2.4;stroke-dashoffset:0;stroke-width:1.5;"/>
    </g>
    <g id="line2d_25"/>
    <g id="text_18">
     <!-- train w/ Sigmoid 2 units -->
     <defs>
      <path d="M 18.3125 70.21875 
L 18.3125 54.6875 
L 36.8125 54.6875 
L 36.8125 47.703125 
L 18.3125 47.703125 
L 18.3125 18.015625 
Q 18.3125 11.328125 20.140625 9.421875 
Q 21.96875 7.515625 27.59375 7.515625 
L 36.8125 7.515625 
L 36.8125 0 
L 27.59375 0 
Q 17.1875 0 13.234375 3.875 
Q 9.28125 7.765625 9.28125 18.015625 
L 9.28125 47.703125 
L 2.6875 47.703125 
L 2.6875 54.6875 
L 9.28125 54.6875 
L 9.28125 70.21875 
z
" id="DejaVuSans-116"/>
      <path d="M 9.421875 54.6875 
L 18.40625 54.6875 
L 18.40625 0 
L 9.421875 0 
z
M 9.421875 75.984375 
L 18.40625 75.984375 
L 18.40625 64.59375 
L 9.421875 64.59375 
z
" id="DejaVuSans-105"/>
      <path d="M 54.890625 33.015625 
L 54.890625 0 
L 45.90625 0 
L 45.90625 32.71875 
Q 45.90625 40.484375 42.875 44.328125 
Q 39.84375 48.1875 33.796875 48.1875 
Q 26.515625 48.1875 22.3125 43.546875 
Q 18.109375 38.921875 18.109375 30.90625 
L 18.109375 0 
L 9.078125 0 
L 9.078125 54.6875 
L 18.109375 54.6875 
L 18.109375 46.1875 
Q 21.34375 51.125 25.703125 53.5625 
Q 30.078125 56 35.796875 56 
Q 45.21875 56 50.046875 50.171875 
Q 54.890625 44.34375 54.890625 33.015625 
z
" id="DejaVuSans-110"/>
      <path id="DejaVuSans-32"/>
      <path d="M 4.203125 54.6875 
L 13.1875 54.6875 
L 24.421875 12.015625 
L 35.59375 54.6875 
L 46.1875 54.6875 
L 57.421875 12.015625 
L 68.609375 54.6875 
L 77.59375 54.6875 
L 63.28125 0 
L 52.6875 0 
L 40.921875 44.828125 
L 29.109375 0 
L 18.5 0 
z
" id="DejaVuSans-119"/>
      <path d="M 25.390625 72.90625 
L 33.6875 72.90625 
L 8.296875 -9.28125 
L 0 -9.28125 
z
" id="DejaVuSans-47"/>
      <path d="M 53.515625 70.515625 
L 53.515625 60.890625 
Q 47.90625 63.578125 42.921875 64.890625 
Q 37.9375 66.21875 33.296875 66.21875 
Q 25.25 66.21875 20.875 63.09375 
Q 16.5 59.96875 16.5 54.203125 
Q 16.5 49.359375 19.40625 46.890625 
Q 22.3125 44.4375 30.421875 42.921875 
L 36.375 41.703125 
Q 47.40625 39.59375 52.65625 34.296875 
Q 57.90625 29 57.90625 20.125 
Q 57.90625 9.515625 50.796875 4.046875 
Q 43.703125 -1.421875 29.984375 -1.421875 
Q 24.8125 -1.421875 18.96875 -0.25 
Q 13.140625 0.921875 6.890625 3.21875 
L 6.890625 13.375 
Q 12.890625 10.015625 18.65625 8.296875 
Q 24.421875 6.59375 29.984375 6.59375 
Q 38.421875 6.59375 43.015625 9.90625 
Q 47.609375 13.234375 47.609375 19.390625 
Q 47.609375 24.75 44.3125 27.78125 
Q 41.015625 30.8125 33.5 32.328125 
L 27.484375 33.5 
Q 16.453125 35.6875 11.515625 40.375 
Q 6.59375 45.0625 6.59375 53.421875 
Q 6.59375 63.09375 13.40625 68.65625 
Q 20.21875 74.21875 32.171875 74.21875 
Q 37.3125 74.21875 42.625 73.28125 
Q 47.953125 72.359375 53.515625 70.515625 
z
" id="DejaVuSans-83"/>
      <path d="M 45.40625 27.984375 
Q 45.40625 37.75 41.375 43.109375 
Q 37.359375 48.484375 30.078125 48.484375 
Q 22.859375 48.484375 18.828125 43.109375 
Q 14.796875 37.75 14.796875 27.984375 
Q 14.796875 18.265625 18.828125 12.890625 
Q 22.859375 7.515625 30.078125 7.515625 
Q 37.359375 7.515625 41.375 12.890625 
Q 45.40625 18.265625 45.40625 27.984375 
z
M 54.390625 6.78125 
Q 54.390625 -7.171875 48.1875 -13.984375 
Q 42 -20.796875 29.203125 -20.796875 
Q 24.46875 -20.796875 20.265625 -20.09375 
Q 16.0625 -19.390625 12.109375 -17.921875 
L 12.109375 -9.1875 
Q 16.0625 -11.328125 19.921875 -12.34375 
Q 23.78125 -13.375 27.78125 -13.375 
Q 36.625 -13.375 41.015625 -8.765625 
Q 45.40625 -4.15625 45.40625 5.171875 
L 45.40625 9.625 
Q 42.625 4.78125 38.28125 2.390625 
Q 33.9375 0 27.875 0 
Q 17.828125 0 11.671875 7.65625 
Q 5.515625 15.328125 5.515625 27.984375 
Q 5.515625 40.671875 11.671875 48.328125 
Q 17.828125 56 27.875 56 
Q 33.9375 56 38.28125 53.609375 
Q 42.625 51.21875 45.40625 46.390625 
L 45.40625 54.6875 
L 54.390625 54.6875 
z
" id="DejaVuSans-103"/>
      <path d="M 52 44.1875 
Q 55.375 50.25 60.0625 53.125 
Q 64.75 56 71.09375 56 
Q 79.640625 56 84.28125 50.015625 
Q 88.921875 44.046875 88.921875 33.015625 
L 88.921875 0 
L 79.890625 0 
L 79.890625 32.71875 
Q 79.890625 40.578125 77.09375 44.375 
Q 74.3125 48.1875 68.609375 48.1875 
Q 61.625 48.1875 57.5625 43.546875 
Q 53.515625 38.921875 53.515625 30.90625 
L 53.515625 0 
L 44.484375 0 
L 44.484375 32.71875 
Q 44.484375 40.625 41.703125 44.40625 
Q 38.921875 48.1875 33.109375 48.1875 
Q 26.21875 48.1875 22.15625 43.53125 
Q 18.109375 38.875 18.109375 30.90625 
L 18.109375 0 
L 9.078125 0 
L 9.078125 54.6875 
L 18.109375 54.6875 
L 18.109375 46.1875 
Q 21.1875 51.21875 25.484375 53.609375 
Q 29.78125 56 35.6875 56 
Q 41.65625 56 45.828125 52.96875 
Q 50 49.953125 52 44.1875 
z
" id="DejaVuSans-109"/>
      <path d="M 45.40625 46.390625 
L 45.40625 75.984375 
L 54.390625 75.984375 
L 54.390625 0 
L 45.40625 0 
L 45.40625 8.203125 
Q 42.578125 3.328125 38.25 0.953125 
Q 33.9375 -1.421875 27.875 -1.421875 
Q 17.96875 -1.421875 11.734375 6.484375 
Q 5.515625 14.40625 5.515625 27.296875 
Q 5.515625 40.1875 11.734375 48.09375 
Q 17.96875 56 27.875 56 
Q 33.9375 56 38.25 53.625 
Q 42.578125 51.265625 45.40625 46.390625 
z
M 14.796875 27.296875 
Q 14.796875 17.390625 18.875 11.75 
Q 22.953125 6.109375 30.078125 6.109375 
Q 37.203125 6.109375 41.296875 11.75 
Q 45.40625 17.390625 45.40625 27.296875 
Q 45.40625 37.203125 41.296875 42.84375 
Q 37.203125 48.484375 30.078125 48.484375 
Q 22.953125 48.484375 18.875 42.84375 
Q 14.796875 37.203125 14.796875 27.296875 
z
" id="DejaVuSans-100"/>
      <path d="M 44.28125 53.078125 
L 44.28125 44.578125 
Q 40.484375 46.53125 36.375 47.5 
Q 32.28125 48.484375 27.875 48.484375 
Q 21.1875 48.484375 17.84375 46.4375 
Q 14.5 44.390625 14.5 40.28125 
Q 14.5 37.15625 16.890625 35.375 
Q 19.28125 33.59375 26.515625 31.984375 
L 29.59375 31.296875 
Q 39.15625 29.25 43.1875 25.515625 
Q 47.21875 21.78125 47.21875 15.09375 
Q 47.21875 7.46875 41.1875 3.015625 
Q 35.15625 -1.421875 24.609375 -1.421875 
Q 20.21875 -1.421875 15.453125 -0.5625 
Q 10.6875 0.296875 5.421875 2 
L 5.421875 11.28125 
Q 10.40625 8.6875 15.234375 7.390625 
Q 20.0625 6.109375 24.8125 6.109375 
Q 31.15625 6.109375 34.5625 8.28125 
Q 37.984375 10.453125 37.984375 14.40625 
Q 37.984375 18.0625 35.515625 20.015625 
Q 33.0625 21.96875 24.703125 23.78125 
L 21.578125 24.515625 
Q 13.234375 26.265625 9.515625 29.90625 
Q 5.8125 33.546875 5.8125 39.890625 
Q 5.8125 47.609375 11.28125 51.796875 
Q 16.75 56 26.8125 56 
Q 31.78125 56 36.171875 55.265625 
Q 40.578125 54.546875 44.28125 53.078125 
z
" id="DejaVuSans-115"/>
     </defs>
     <g transform="translate(209.333239 270.653437)scale(0.1 -0.1)">
      <use xlink:href="#DejaVuSans-116"/>
      <use x="39.208984" xlink:href="#DejaVuSans-114"/>
      <use x="80.322266" xlink:href="#DejaVuSans-97"/>
      <use x="141.601562" xlink:href="#DejaVuSans-105"/>
      <use x="169.384766" xlink:href="#DejaVuSans-110"/>
      <use x="232.763672" xlink:href="#DejaVuSans-32"/>
      <use x="264.550781" xlink:href="#DejaVuSans-119"/>
      <use x="346.337891" xlink:href="#DejaVuSans-47"/>
      <use x="380.029297" xlink:href="#DejaVuSans-32"/>
      <use x="411.816406" xlink:href="#DejaVuSans-83"/>
      <use x="475.292969" xlink:href="#DejaVuSans-105"/>
      <use x="503.076172" xlink:href="#DejaVuSans-103"/>
      <use x="566.552734" xlink:href="#DejaVuSans-109"/>
      <use x="663.964844" xlink:href="#DejaVuSans-111"/>
      <use x="725.146484" xlink:href="#DejaVuSans-105"/>
      <use x="752.929688" xlink:href="#DejaVuSans-100"/>
      <use x="816.40625" xlink:href="#DejaVuSans-32"/>
      <use x="848.193359" xlink:href="#DejaVuSans-50"/>
      <use x="911.816406" xlink:href="#DejaVuSans-32"/>
      <use x="943.603516" xlink:href="#DejaVuSans-117"/>
      <use x="1006.982422" xlink:href="#DejaVuSans-110"/>
      <use x="1070.361328" xlink:href="#DejaVuSans-105"/>
      <use x="1098.144531" xlink:href="#DejaVuSans-116"/>
      <use x="1137.353516" xlink:href="#DejaVuSans-115"/>
     </g>
    </g>
    <g id="line2d_26">
     <path d="M 181.333239 281.831563 
L 201.333239 281.831563 
" style="fill:none;stroke:#ff7f0e;stroke-dasharray:5.55,2.4;stroke-dashoffset:0;stroke-width:1.5;"/>
    </g>
    <g id="line2d_27"/>
    <g id="text_19">
     <!-- train w/ Sigmoid 4 units -->
     <g transform="translate(209.333239 285.331563)scale(0.1 -0.1)">
      <use xlink:href="#DejaVuSans-116"/>
      <use x="39.208984" xlink:href="#DejaVuSans-114"/>
      <use x="80.322266" xlink:href="#DejaVuSans-97"/>
      <use x="141.601562" xlink:href="#DejaVuSans-105"/>
      <use x="169.384766" xlink:href="#DejaVuSans-110"/>
      <use x="232.763672" xlink:href="#DejaVuSans-32"/>
      <use x="264.550781" xlink:href="#DejaVuSans-119"/>
      <use x="346.337891" xlink:href="#DejaVuSans-47"/>
      <use x="380.029297" xlink:href="#DejaVuSans-32"/>
      <use x="411.816406" xlink:href="#DejaVuSans-83"/>
      <use x="475.292969" xlink:href="#DejaVuSans-105"/>
      <use x="503.076172" xlink:href="#DejaVuSans-103"/>
      <use x="566.552734" xlink:href="#DejaVuSans-109"/>
      <use x="663.964844" xlink:href="#DejaVuSans-111"/>
      <use x="725.146484" xlink:href="#DejaVuSans-105"/>
      <use x="752.929688" xlink:href="#DejaVuSans-100"/>
      <use x="816.40625" xlink:href="#DejaVuSans-32"/>
      <use x="848.193359" xlink:href="#DejaVuSans-52"/>
      <use x="911.816406" xlink:href="#DejaVuSans-32"/>
      <use x="943.603516" xlink:href="#DejaVuSans-117"/>
      <use x="1006.982422" xlink:href="#DejaVuSans-110"/>
      <use x="1070.361328" xlink:href="#DejaVuSans-105"/>
      <use x="1098.144531" xlink:href="#DejaVuSans-116"/>
      <use x="1137.353516" xlink:href="#DejaVuSans-115"/>
     </g>
    </g>
    <g id="line2d_28">
     <path d="M 181.333239 296.509688 
L 201.333239 296.509688 
" style="fill:none;stroke:#2ca02c;stroke-dasharray:5.55,2.4;stroke-dashoffset:0;stroke-width:1.5;"/>
    </g>
    <g id="line2d_29"/>
    <g id="text_20">
     <!-- train w/ Sigmoid 8 units -->
     <g transform="translate(209.333239 300.009688)scale(0.1 -0.1)">
      <use xlink:href="#DejaVuSans-116"/>
      <use x="39.208984" xlink:href="#DejaVuSans-114"/>
      <use x="80.322266" xlink:href="#DejaVuSans-97"/>
      <use x="141.601562" xlink:href="#DejaVuSans-105"/>
      <use x="169.384766" xlink:href="#DejaVuSans-110"/>
      <use x="232.763672" xlink:href="#DejaVuSans-32"/>
      <use x="264.550781" xlink:href="#DejaVuSans-119"/>
      <use x="346.337891" xlink:href="#DejaVuSans-47"/>
      <use x="380.029297" xlink:href="#DejaVuSans-32"/>
      <use x="411.816406" xlink:href="#DejaVuSans-83"/>
      <use x="475.292969" xlink:href="#DejaVuSans-105"/>
      <use x="503.076172" xlink:href="#DejaVuSans-103"/>
      <use x="566.552734" xlink:href="#DejaVuSans-109"/>
      <use x="663.964844" xlink:href="#DejaVuSans-111"/>
      <use x="725.146484" xlink:href="#DejaVuSans-105"/>
      <use x="752.929688" xlink:href="#DejaVuSans-100"/>
      <use x="816.40625" xlink:href="#DejaVuSans-32"/>
      <use x="848.193359" xlink:href="#DejaVuSans-56"/>
      <use x="911.816406" xlink:href="#DejaVuSans-32"/>
      <use x="943.603516" xlink:href="#DejaVuSans-117"/>
      <use x="1006.982422" xlink:href="#DejaVuSans-110"/>
      <use x="1070.361328" xlink:href="#DejaVuSans-105"/>
      <use x="1098.144531" xlink:href="#DejaVuSans-116"/>
      <use x="1137.353516" xlink:href="#DejaVuSans-115"/>
     </g>
    </g>
    <g id="line2d_30">
     <path d="M 181.333239 311.187813 
L 201.333239 311.187813 
" style="fill:none;stroke:#d62728;stroke-dasharray:5.55,2.4;stroke-dashoffset:0;stroke-width:1.5;"/>
    </g>
    <g id="line2d_31"/>
    <g id="text_21">
     <!-- train w/ Sigmoid 16 units -->
     <g transform="translate(209.333239 314.687813)scale(0.1 -0.1)">
      <use xlink:href="#DejaVuSans-116"/>
      <use x="39.208984" xlink:href="#DejaVuSans-114"/>
      <use x="80.322266" xlink:href="#DejaVuSans-97"/>
      <use x="141.601562" xlink:href="#DejaVuSans-105"/>
      <use x="169.384766" xlink:href="#DejaVuSans-110"/>
      <use x="232.763672" xlink:href="#DejaVuSans-32"/>
      <use x="264.550781" xlink:href="#DejaVuSans-119"/>
      <use x="346.337891" xlink:href="#DejaVuSans-47"/>
      <use x="380.029297" xlink:href="#DejaVuSans-32"/>
      <use x="411.816406" xlink:href="#DejaVuSans-83"/>
      <use x="475.292969" xlink:href="#DejaVuSans-105"/>
      <use x="503.076172" xlink:href="#DejaVuSans-103"/>
      <use x="566.552734" xlink:href="#DejaVuSans-109"/>
      <use x="663.964844" xlink:href="#DejaVuSans-111"/>
      <use x="725.146484" xlink:href="#DejaVuSans-105"/>
      <use x="752.929688" xlink:href="#DejaVuSans-100"/>
      <use x="816.40625" xlink:href="#DejaVuSans-32"/>
      <use x="848.193359" xlink:href="#DejaVuSans-49"/>
      <use x="911.816406" xlink:href="#DejaVuSans-54"/>
      <use x="975.439453" xlink:href="#DejaVuSans-32"/>
      <use x="1007.226562" xlink:href="#DejaVuSans-117"/>
      <use x="1070.605469" xlink:href="#DejaVuSans-110"/>
      <use x="1133.984375" xlink:href="#DejaVuSans-105"/>
      <use x="1161.767578" xlink:href="#DejaVuSans-116"/>
      <use x="1200.976562" xlink:href="#DejaVuSans-115"/>
     </g>
    </g>
    <g id="line2d_32">
     <path d="M 181.333239 325.865938 
L 201.333239 325.865938 
" style="fill:none;stroke:#1f77b4;stroke-linecap:square;stroke-width:1.5;"/>
    </g>
    <g id="line2d_33"/>
    <g id="text_22">
     <!-- test w/ Sigmoid 2 units -->
     <defs>
      <path d="M 56.203125 29.59375 
L 56.203125 25.203125 
L 14.890625 25.203125 
Q 15.484375 15.921875 20.484375 11.0625 
Q 25.484375 6.203125 34.421875 6.203125 
Q 39.59375 6.203125 44.453125 7.46875 
Q 49.3125 8.734375 54.109375 11.28125 
L 54.109375 2.78125 
Q 49.265625 0.734375 44.1875 -0.34375 
Q 39.109375 -1.421875 33.890625 -1.421875 
Q 20.796875 -1.421875 13.15625 6.1875 
Q 5.515625 13.8125 5.515625 26.8125 
Q 5.515625 40.234375 12.765625 48.109375 
Q 20.015625 56 32.328125 56 
Q 43.359375 56 49.78125 48.890625 
Q 56.203125 41.796875 56.203125 29.59375 
z
M 47.21875 32.234375 
Q 47.125 39.59375 43.09375 43.984375 
Q 39.0625 48.390625 32.421875 48.390625 
Q 24.90625 48.390625 20.390625 44.140625 
Q 15.875 39.890625 15.1875 32.171875 
z
" id="DejaVuSans-101"/>
     </defs>
     <g transform="translate(209.333239 329.365938)scale(0.1 -0.1)">
      <use xlink:href="#DejaVuSans-116"/>
      <use x="39.208984" xlink:href="#DejaVuSans-101"/>
      <use x="100.732422" xlink:href="#DejaVuSans-115"/>
      <use x="152.832031" xlink:href="#DejaVuSans-116"/>
      <use x="192.041016" xlink:href="#DejaVuSans-32"/>
      <use x="223.828125" xlink:href="#DejaVuSans-119"/>
      <use x="305.615234" xlink:href="#DejaVuSans-47"/>
      <use x="339.306641" xlink:href="#DejaVuSans-32"/>
      <use x="371.09375" xlink:href="#DejaVuSans-83"/>
      <use x="434.570312" xlink:href="#DejaVuSans-105"/>
      <use x="462.353516" xlink:href="#DejaVuSans-103"/>
      <use x="525.830078" xlink:href="#DejaVuSans-109"/>
      <use x="623.242188" xlink:href="#DejaVuSans-111"/>
      <use x="684.423828" xlink:href="#DejaVuSans-105"/>
      <use x="712.207031" xlink:href="#DejaVuSans-100"/>
      <use x="775.683594" xlink:href="#DejaVuSans-32"/>
      <use x="807.470703" xlink:href="#DejaVuSans-50"/>
      <use x="871.09375" xlink:href="#DejaVuSans-32"/>
      <use x="902.880859" xlink:href="#DejaVuSans-117"/>
      <use x="966.259766" xlink:href="#DejaVuSans-110"/>
      <use x="1029.638672" xlink:href="#DejaVuSans-105"/>
      <use x="1057.421875" xlink:href="#DejaVuSans-116"/>
      <use x="1096.630859" xlink:href="#DejaVuSans-115"/>
     </g>
    </g>
    <g id="line2d_34">
     <path d="M 181.333239 340.544062 
L 201.333239 340.544062 
" style="fill:none;stroke:#ff7f0e;stroke-linecap:square;stroke-width:1.5;"/>
    </g>
    <g id="line2d_35"/>
    <g id="text_23">
     <!-- test w/ Sigmoid 4 units -->
     <g transform="translate(209.333239 344.044062)scale(0.1 -0.1)">
      <use xlink:href="#DejaVuSans-116"/>
      <use x="39.208984" xlink:href="#DejaVuSans-101"/>
      <use x="100.732422" xlink:href="#DejaVuSans-115"/>
      <use x="152.832031" xlink:href="#DejaVuSans-116"/>
      <use x="192.041016" xlink:href="#DejaVuSans-32"/>
      <use x="223.828125" xlink:href="#DejaVuSans-119"/>
      <use x="305.615234" xlink:href="#DejaVuSans-47"/>
      <use x="339.306641" xlink:href="#DejaVuSans-32"/>
      <use x="371.09375" xlink:href="#DejaVuSans-83"/>
      <use x="434.570312" xlink:href="#DejaVuSans-105"/>
      <use x="462.353516" xlink:href="#DejaVuSans-103"/>
      <use x="525.830078" xlink:href="#DejaVuSans-109"/>
      <use x="623.242188" xlink:href="#DejaVuSans-111"/>
      <use x="684.423828" xlink:href="#DejaVuSans-105"/>
      <use x="712.207031" xlink:href="#DejaVuSans-100"/>
      <use x="775.683594" xlink:href="#DejaVuSans-32"/>
      <use x="807.470703" xlink:href="#DejaVuSans-52"/>
      <use x="871.09375" xlink:href="#DejaVuSans-32"/>
      <use x="902.880859" xlink:href="#DejaVuSans-117"/>
      <use x="966.259766" xlink:href="#DejaVuSans-110"/>
      <use x="1029.638672" xlink:href="#DejaVuSans-105"/>
      <use x="1057.421875" xlink:href="#DejaVuSans-116"/>
      <use x="1096.630859" xlink:href="#DejaVuSans-115"/>
     </g>
    </g>
    <g id="line2d_36">
     <path d="M 181.333239 355.222188 
L 201.333239 355.222188 
" style="fill:none;stroke:#2ca02c;stroke-linecap:square;stroke-width:1.5;"/>
    </g>
    <g id="line2d_37"/>
    <g id="text_24">
     <!-- test w/ Sigmoid 8 units -->
     <g transform="translate(209.333239 358.722188)scale(0.1 -0.1)">
      <use xlink:href="#DejaVuSans-116"/>
      <use x="39.208984" xlink:href="#DejaVuSans-101"/>
      <use x="100.732422" xlink:href="#DejaVuSans-115"/>
      <use x="152.832031" xlink:href="#DejaVuSans-116"/>
      <use x="192.041016" xlink:href="#DejaVuSans-32"/>
      <use x="223.828125" xlink:href="#DejaVuSans-119"/>
      <use x="305.615234" xlink:href="#DejaVuSans-47"/>
      <use x="339.306641" xlink:href="#DejaVuSans-32"/>
      <use x="371.09375" xlink:href="#DejaVuSans-83"/>
      <use x="434.570312" xlink:href="#DejaVuSans-105"/>
      <use x="462.353516" xlink:href="#DejaVuSans-103"/>
      <use x="525.830078" xlink:href="#DejaVuSans-109"/>
      <use x="623.242188" xlink:href="#DejaVuSans-111"/>
      <use x="684.423828" xlink:href="#DejaVuSans-105"/>
      <use x="712.207031" xlink:href="#DejaVuSans-100"/>
      <use x="775.683594" xlink:href="#DejaVuSans-32"/>
      <use x="807.470703" xlink:href="#DejaVuSans-56"/>
      <use x="871.09375" xlink:href="#DejaVuSans-32"/>
      <use x="902.880859" xlink:href="#DejaVuSans-117"/>
      <use x="966.259766" xlink:href="#DejaVuSans-110"/>
      <use x="1029.638672" xlink:href="#DejaVuSans-105"/>
      <use x="1057.421875" xlink:href="#DejaVuSans-116"/>
      <use x="1096.630859" xlink:href="#DejaVuSans-115"/>
     </g>
    </g>
    <g id="line2d_38">
     <path d="M 181.333239 369.900313 
L 201.333239 369.900313 
" style="fill:none;stroke:#d62728;stroke-linecap:square;stroke-width:1.5;"/>
    </g>
    <g id="line2d_39"/>
    <g id="text_25">
     <!-- test w/ Sigmoid 16 units -->
     <g transform="translate(209.333239 373.400313)scale(0.1 -0.1)">
      <use xlink:href="#DejaVuSans-116"/>
      <use x="39.208984" xlink:href="#DejaVuSans-101"/>
      <use x="100.732422" xlink:href="#DejaVuSans-115"/>
      <use x="152.832031" xlink:href="#DejaVuSans-116"/>
      <use x="192.041016" xlink:href="#DejaVuSans-32"/>
      <use x="223.828125" xlink:href="#DejaVuSans-119"/>
      <use x="305.615234" xlink:href="#DejaVuSans-47"/>
      <use x="339.306641" xlink:href="#DejaVuSans-32"/>
      <use x="371.09375" xlink:href="#DejaVuSans-83"/>
      <use x="434.570312" xlink:href="#DejaVuSans-105"/>
      <use x="462.353516" xlink:href="#DejaVuSans-103"/>
      <use x="525.830078" xlink:href="#DejaVuSans-109"/>
      <use x="623.242188" xlink:href="#DejaVuSans-111"/>
      <use x="684.423828" xlink:href="#DejaVuSans-105"/>
      <use x="712.207031" xlink:href="#DejaVuSans-100"/>
      <use x="775.683594" xlink:href="#DejaVuSans-32"/>
      <use x="807.470703" xlink:href="#DejaVuSans-49"/>
      <use x="871.09375" xlink:href="#DejaVuSans-54"/>
      <use x="934.716797" xlink:href="#DejaVuSans-32"/>
      <use x="966.503906" xlink:href="#DejaVuSans-117"/>
      <use x="1029.882812" xlink:href="#DejaVuSans-110"/>
      <use x="1093.261719" xlink:href="#DejaVuSans-105"/>
      <use x="1121.044922" xlink:href="#DejaVuSans-116"/>
      <use x="1160.253906" xlink:href="#DejaVuSans-115"/>
     </g>
    </g>
   </g>
  </g>
  <g id="axes_2">
   <g id="patch_8">
    <path d="M 394.363636 384.48 
L 648 384.48 
L 648 51.84 
L 394.363636 51.84 
z
" style="fill:#ffffff;"/>
   </g>
   <g id="matplotlib.axis_3">
    <g id="xtick_8">
     <g id="line2d_40">
      <g>
       <use style="stroke:#000000;stroke-width:0.8;" x="394.363636" xlink:href="#m0076388593" y="384.48"/>
      </g>
     </g>
     <g id="text_26">
      <!-- 0 -->
      <g transform="translate(391.182386 399.078438)scale(0.1 -0.1)">
       <use xlink:href="#DejaVuSans-48"/>
      </g>
     </g>
    </g>
    <g id="xtick_9">
     <g id="line2d_41">
      <g>
       <use style="stroke:#000000;stroke-width:0.8;" x="426.068182" xlink:href="#m0076388593" y="384.48"/>
      </g>
     </g>
     <g id="text_27">
      <!-- 25 -->
      <g transform="translate(419.705682 399.078438)scale(0.1 -0.1)">
       <use xlink:href="#DejaVuSans-50"/>
       <use x="63.623047" xlink:href="#DejaVuSans-53"/>
      </g>
     </g>
    </g>
    <g id="xtick_10">
     <g id="line2d_42">
      <g>
       <use style="stroke:#000000;stroke-width:0.8;" x="457.772727" xlink:href="#m0076388593" y="384.48"/>
      </g>
     </g>
     <g id="text_28">
      <!-- 50 -->
      <g transform="translate(451.410227 399.078438)scale(0.1 -0.1)">
       <use xlink:href="#DejaVuSans-53"/>
       <use x="63.623047" xlink:href="#DejaVuSans-48"/>
      </g>
     </g>
    </g>
    <g id="xtick_11">
     <g id="line2d_43">
      <g>
       <use style="stroke:#000000;stroke-width:0.8;" x="489.477273" xlink:href="#m0076388593" y="384.48"/>
      </g>
     </g>
     <g id="text_29">
      <!-- 75 -->
      <g transform="translate(483.114773 399.078438)scale(0.1 -0.1)">
       <use xlink:href="#DejaVuSans-55"/>
       <use x="63.623047" xlink:href="#DejaVuSans-53"/>
      </g>
     </g>
    </g>
    <g id="xtick_12">
     <g id="line2d_44">
      <g>
       <use style="stroke:#000000;stroke-width:0.8;" x="521.181818" xlink:href="#m0076388593" y="384.48"/>
      </g>
     </g>
     <g id="text_30">
      <!-- 100 -->
      <g transform="translate(511.638068 399.078438)scale(0.1 -0.1)">
       <use xlink:href="#DejaVuSans-49"/>
       <use x="63.623047" xlink:href="#DejaVuSans-48"/>
       <use x="127.246094" xlink:href="#DejaVuSans-48"/>
      </g>
     </g>
    </g>
    <g id="xtick_13">
     <g id="line2d_45">
      <g>
       <use style="stroke:#000000;stroke-width:0.8;" x="552.886364" xlink:href="#m0076388593" y="384.48"/>
      </g>
     </g>
     <g id="text_31">
      <!-- 125 -->
      <g transform="translate(543.342614 399.078438)scale(0.1 -0.1)">
       <use xlink:href="#DejaVuSans-49"/>
       <use x="63.623047" xlink:href="#DejaVuSans-50"/>
       <use x="127.246094" xlink:href="#DejaVuSans-53"/>
      </g>
     </g>
    </g>
    <g id="xtick_14">
     <g id="line2d_46">
      <g>
       <use style="stroke:#000000;stroke-width:0.8;" x="584.590909" xlink:href="#m0076388593" y="384.48"/>
      </g>
     </g>
     <g id="text_32">
      <!-- 150 -->
      <g transform="translate(575.047159 399.078438)scale(0.1 -0.1)">
       <use xlink:href="#DejaVuSans-49"/>
       <use x="63.623047" xlink:href="#DejaVuSans-53"/>
       <use x="127.246094" xlink:href="#DejaVuSans-48"/>
      </g>
     </g>
    </g>
    <g id="xtick_15">
     <g id="line2d_47">
      <g>
       <use style="stroke:#000000;stroke-width:0.8;" x="616.295455" xlink:href="#m0076388593" y="384.48"/>
      </g>
     </g>
     <g id="text_33">
      <!-- 175 -->
      <g transform="translate(606.751705 399.078438)scale(0.1 -0.1)">
       <use xlink:href="#DejaVuSans-49"/>
       <use x="63.623047" xlink:href="#DejaVuSans-55"/>
       <use x="127.246094" xlink:href="#DejaVuSans-53"/>
      </g>
     </g>
    </g>
    <g id="xtick_16">
     <g id="line2d_48">
      <g>
       <use style="stroke:#000000;stroke-width:0.8;" x="648" xlink:href="#m0076388593" y="384.48"/>
      </g>
     </g>
     <g id="text_34">
      <!-- 200 -->
      <g transform="translate(638.45625 399.078438)scale(0.1 -0.1)">
       <use xlink:href="#DejaVuSans-50"/>
       <use x="63.623047" xlink:href="#DejaVuSans-48"/>
       <use x="127.246094" xlink:href="#DejaVuSans-48"/>
      </g>
     </g>
    </g>
    <g id="text_35">
     <!-- Epoch -->
     <g transform="translate(505.870881 412.756563)scale(0.1 -0.1)">
      <use xlink:href="#DejaVuSans-69"/>
      <use x="63.183594" xlink:href="#DejaVuSans-112"/>
      <use x="126.660156" xlink:href="#DejaVuSans-111"/>
      <use x="187.841797" xlink:href="#DejaVuSans-99"/>
      <use x="242.822266" xlink:href="#DejaVuSans-104"/>
     </g>
    </g>
   </g>
   <g id="matplotlib.axis_4">
    <g id="ytick_9">
     <g id="line2d_49">
      <g>
       <use style="stroke:#000000;stroke-width:0.8;" x="394.363636" xlink:href="#m31a5a1b686" y="377.144841"/>
      </g>
     </g>
     <g id="text_36">
      <!-- 0.0 -->
      <g transform="translate(371.460511 380.94406)scale(0.1 -0.1)">
       <use xlink:href="#DejaVuSans-48"/>
       <use x="63.623047" xlink:href="#DejaVuSans-46"/>
       <use x="95.410156" xlink:href="#DejaVuSans-48"/>
      </g>
     </g>
    </g>
    <g id="ytick_10">
     <g id="line2d_50">
      <g>
       <use style="stroke:#000000;stroke-width:0.8;" x="394.363636" xlink:href="#m31a5a1b686" y="335.373523"/>
      </g>
     </g>
     <g id="text_37">
      <!-- 0.2 -->
      <g transform="translate(371.460511 339.172741)scale(0.1 -0.1)">
       <use xlink:href="#DejaVuSans-48"/>
       <use x="63.623047" xlink:href="#DejaVuSans-46"/>
       <use x="95.410156" xlink:href="#DejaVuSans-50"/>
      </g>
     </g>
    </g>
    <g id="ytick_11">
     <g id="line2d_51">
      <g>
       <use style="stroke:#000000;stroke-width:0.8;" x="394.363636" xlink:href="#m31a5a1b686" y="293.602204"/>
      </g>
     </g>
     <g id="text_38">
      <!-- 0.4 -->
      <g transform="translate(371.460511 297.401423)scale(0.1 -0.1)">
       <use xlink:href="#DejaVuSans-48"/>
       <use x="63.623047" xlink:href="#DejaVuSans-46"/>
       <use x="95.410156" xlink:href="#DejaVuSans-52"/>
      </g>
     </g>
    </g>
    <g id="ytick_12">
     <g id="line2d_52">
      <g>
       <use style="stroke:#000000;stroke-width:0.8;" x="394.363636" xlink:href="#m31a5a1b686" y="251.830885"/>
      </g>
     </g>
     <g id="text_39">
      <!-- 0.6 -->
      <g transform="translate(371.460511 255.630104)scale(0.1 -0.1)">
       <use xlink:href="#DejaVuSans-48"/>
       <use x="63.623047" xlink:href="#DejaVuSans-46"/>
       <use x="95.410156" xlink:href="#DejaVuSans-54"/>
      </g>
     </g>
    </g>
    <g id="ytick_13">
     <g id="line2d_53">
      <g>
       <use style="stroke:#000000;stroke-width:0.8;" x="394.363636" xlink:href="#m31a5a1b686" y="210.059567"/>
      </g>
     </g>
     <g id="text_40">
      <!-- 0.8 -->
      <g transform="translate(371.460511 213.858785)scale(0.1 -0.1)">
       <use xlink:href="#DejaVuSans-48"/>
       <use x="63.623047" xlink:href="#DejaVuSans-46"/>
       <use x="95.410156" xlink:href="#DejaVuSans-56"/>
      </g>
     </g>
    </g>
    <g id="ytick_14">
     <g id="line2d_54">
      <g>
       <use style="stroke:#000000;stroke-width:0.8;" x="394.363636" xlink:href="#m31a5a1b686" y="168.288248"/>
      </g>
     </g>
     <g id="text_41">
      <!-- 1.0 -->
      <g transform="translate(371.460511 172.087467)scale(0.1 -0.1)">
       <use xlink:href="#DejaVuSans-49"/>
       <use x="63.623047" xlink:href="#DejaVuSans-46"/>
       <use x="95.410156" xlink:href="#DejaVuSans-48"/>
      </g>
     </g>
    </g>
    <g id="ytick_15">
     <g id="line2d_55">
      <g>
       <use style="stroke:#000000;stroke-width:0.8;" x="394.363636" xlink:href="#m31a5a1b686" y="126.516929"/>
      </g>
     </g>
     <g id="text_42">
      <!-- 1.2 -->
      <g transform="translate(371.460511 130.316148)scale(0.1 -0.1)">
       <use xlink:href="#DejaVuSans-49"/>
       <use x="63.623047" xlink:href="#DejaVuSans-46"/>
       <use x="95.410156" xlink:href="#DejaVuSans-50"/>
      </g>
     </g>
    </g>
    <g id="ytick_16">
     <g id="line2d_56">
      <g>
       <use style="stroke:#000000;stroke-width:0.8;" x="394.363636" xlink:href="#m31a5a1b686" y="84.74561"/>
      </g>
     </g>
     <g id="text_43">
      <!-- 1.4 -->
      <g transform="translate(371.460511 88.544829)scale(0.1 -0.1)">
       <use xlink:href="#DejaVuSans-49"/>
       <use x="63.623047" xlink:href="#DejaVuSans-46"/>
       <use x="95.410156" xlink:href="#DejaVuSans-52"/>
      </g>
     </g>
    </g>
    <g id="text_44">
     <!-- Loss -->
     <defs>
      <path d="M 9.8125 72.90625 
L 19.671875 72.90625 
L 19.671875 8.296875 
L 55.171875 8.296875 
L 55.171875 0 
L 9.8125 0 
z
" id="DejaVuSans-76"/>
     </defs>
     <g transform="translate(365.380824 229.127187)rotate(-90)scale(0.1 -0.1)">
      <use xlink:href="#DejaVuSans-76"/>
      <use x="53.962891" xlink:href="#DejaVuSans-111"/>
      <use x="115.144531" xlink:href="#DejaVuSans-115"/>
      <use x="167.244141" xlink:href="#DejaVuSans-115"/>
     </g>
    </g>
   </g>
   <g id="line2d_57">
    <path clip-path="url(#pc5a38f6782)" d="M 394.363636 98.003932 
L 395.631818 162.619985 
L 396.9 183.524045 
L 398.168182 192.603315 
L 399.436364 199.280428 
L 400.704545 205.118636 
L 401.972727 210.380801 
L 403.240909 215.148712 
L 405.777273 223.416036 
L 408.313636 230.285962 
L 410.85 236.046631 
L 413.386364 240.92655 
L 415.922727 245.106754 
L 418.459091 248.73013 
L 420.995455 251.909064 
L 423.531818 254.731785 
L 426.068182 257.267545 
L 428.604545 259.570749 
L 432.409091 262.680604 
L 436.213636 265.469635 
L 440.018182 268.013752 
L 445.090909 271.114721 
L 450.163636 273.958114 
L 456.504545 277.229125 
L 462.845455 280.24234 
L 469.186364 283.034814 
L 476.795455 286.127534 
L 484.404545 288.966499 
L 492.013636 291.576552 
L 500.890909 294.362478 
L 509.768182 296.901202 
L 518.645455 299.223409 
L 528.790909 301.647198 
L 540.204545 304.122264 
L 551.618182 306.370764 
L 564.3 308.644214 
L 578.25 310.91372 
L 593.468182 313.15642 
L 609.954545 315.35431 
L 627.709091 317.493225 
L 646.731818 319.562112 
L 667.022727 321.552594 
L 689.85 323.564833 
L 713.945455 325.467407 
L 721 325.986441 
L 721 325.986441 
" style="fill:none;stroke:#1f77b4;stroke-dasharray:5.55,2.4;stroke-dashoffset:0;stroke-width:1.5;"/>
   </g>
   <g id="line2d_58">
    <path clip-path="url(#pc5a38f6782)" d="M 394.363636 135.705854 
L 395.631818 182.017054 
L 396.9 198.056589 
L 398.168182 210.380557 
L 399.436364 220.754068 
L 400.704545 229.73239 
L 401.972727 237.656582 
L 403.240909 244.640582 
L 404.509091 250.625054 
L 405.777273 255.606458 
L 407.045455 259.724102 
L 408.313636 263.176863 
L 409.581818 266.150139 
L 412.118182 271.214719 
L 415.922727 277.901009 
L 424.8 293.001993 
L 428.604545 299.035804 
L 432.409091 304.641272 
L 436.213636 309.791422 
L 440.018182 314.4874 
L 443.822727 318.7462 
L 447.627273 322.594131 
L 451.431818 326.062523 
L 455.236364 329.184766 
L 459.040909 331.994302 
L 462.845455 334.523331 
L 466.65 336.802026 
L 470.454545 338.858115 
L 475.527273 341.29634 
L 480.6 343.435614 
L 485.672727 345.32072 
L 490.745455 346.989586 
L 497.086364 348.819761 
L 503.427273 350.412992 
L 511.036364 352.069558 
L 518.645455 353.499936 
L 527.522727 354.939866 
L 537.668182 356.346207 
L 549.081818 357.690288 
L 561.763636 358.955333 
L 576.981818 360.23109 
L 593.468182 361.386495 
L 612.490909 362.498086 
L 635.318182 363.59526 
L 660.681818 364.585697 
L 689.85 365.500566 
L 721 366.277917 
L 721 366.277917 
" style="fill:none;stroke:#ff7f0e;stroke-dasharray:5.55,2.4;stroke-dashoffset:0;stroke-width:1.5;"/>
   </g>
   <g id="line2d_59">
    <path clip-path="url(#pc5a38f6782)" d="M 394.363636 66.96 
L 395.631818 189.38853 
L 396.9 212.097187 
L 398.168182 221.58221 
L 399.436364 228.712879 
L 400.704545 234.749902 
L 401.972727 239.964625 
L 403.240909 244.526261 
L 404.509091 248.576634 
L 407.045455 255.629648 
L 409.581818 262.179757 
L 410.85 266.016551 
L 413.386364 276.00556 
L 414.654545 279.15831 
L 417.190909 284.08821 
L 419.727273 288.472694 
L 423.531818 294.519168 
L 427.336364 300.064364 
L 431.140909 305.163289 
L 434.945455 309.843431 
L 438.75 314.124347 
L 442.554545 318.024355 
L 446.359091 321.564075 
L 450.163636 324.768491 
L 453.968182 327.666471 
L 457.772727 330.288404 
L 461.577273 332.663875 
L 465.381818 334.820338 
L 470.454545 337.397431 
L 475.527273 339.680324 
L 480.6 341.712415 
L 485.672727 343.530085 
L 492.013636 345.546422 
L 498.354545 347.323311 
L 505.963636 349.193529 
L 513.572727 350.827197 
L 522.45 352.488455 
L 531.327273 353.933748 
L 541.472727 355.370347 
L 552.886364 356.764347 
L 565.568182 358.09235 
L 580.786364 359.443863 
L 597.272727 360.675305 
L 616.295455 361.864009 
L 637.854545 362.979983 
L 661.95 364.00497 
L 689.85 364.969273 
L 721 365.833672 
L 721 365.833672 
" style="fill:none;stroke:#2ca02c;stroke-dasharray:5.55,2.4;stroke-dashoffset:0;stroke-width:1.5;"/>
   </g>
   <g id="line2d_60">
    <path clip-path="url(#pc5a38f6782)" d="M 394.363636 154.043649 
L 396.9 209.235275 
L 398.168182 233.359255 
L 399.436364 248.027052 
L 400.704545 258.229706 
L 401.972727 266.201057 
L 403.240909 272.716718 
L 404.509091 278.177599 
L 405.777273 282.855031 
L 407.045455 286.939638 
L 408.313636 290.566328 
L 410.85 296.805941 
L 413.386364 302.07568 
L 415.922727 306.65661 
L 418.459091 310.716759 
L 420.995455 314.363092 
L 423.531818 317.66789 
L 426.068182 320.682794 
L 428.604545 323.446611 
L 432.409091 327.186568 
L 436.213636 330.509314 
L 440.018182 333.477228 
L 443.822727 336.140481 
L 447.627273 338.540329 
L 451.431818 340.711125 
L 456.504545 343.298358 
L 461.577273 345.585248 
L 466.65 347.616775 
L 471.722727 349.42922 
L 478.063636 351.431133 
L 484.404545 353.182921 
L 490.745455 354.721725 
L 498.354545 356.329499 
L 505.963636 357.717043 
L 514.840909 359.104239 
L 524.986364 360.439546 
L 536.4 361.687359 
L 549.081818 362.827563 
L 563.031818 363.852851 
L 579.518182 364.833033 
L 598.540909 365.735476 
L 621.368182 366.587403 
L 649.268182 367.390182 
L 682.240909 368.108813 
L 721 368.740644 
L 721 368.740644 
" style="fill:none;stroke:#d62728;stroke-dasharray:5.55,2.4;stroke-dashoffset:0;stroke-width:1.5;"/>
   </g>
   <g id="line2d_61">
    <path clip-path="url(#pc5a38f6782)" d="M 394.363636 176.203653 
L 395.631818 192.942849 
L 398.168182 203.105254 
L 401.972727 220.587185 
L 404.509091 230.588718 
L 407.045455 238.965376 
L 409.581818 245.966088 
L 412.118182 251.837561 
L 414.654545 256.788854 
L 417.190909 260.99178 
L 419.727273 264.585782 
L 422.263636 267.683253 
L 424.8 270.374482 
L 427.336364 272.73195 
L 429.872727 274.813899 
L 432.409091 276.667225 
L 436.213636 279.099334 
L 440.018182 281.19937 
L 443.822727 283.039766 
L 448.895455 285.18008 
L 453.968182 287.042894 
L 459.040909 288.690379 
L 465.381818 290.512304 
L 472.990909 292.426868 
L 480.6 294.111487 
L 489.477273 295.853248 
L 499.622727 297.619641 
L 512.304545 299.58166 
L 527.522727 301.682758 
L 545.277273 303.895105 
L 566.836364 306.341064 
L 590.931818 308.840672 
L 616.295455 311.248604 
L 642.927273 313.552191 
L 669.559091 315.63794 
L 697.459091 317.602043 
L 721 319.094816 
L 721 319.094816 
" style="fill:none;stroke:#1f77b4;stroke-linecap:square;stroke-width:1.5;"/>
   </g>
   <g id="line2d_62">
    <path clip-path="url(#pc5a38f6782)" d="M 394.363636 180.923924 
L 395.631818 200.879007 
L 396.9 216.622808 
L 398.168182 229.715228 
L 399.436364 241.030774 
L 400.704545 251.099096 
L 401.972727 260.103318 
L 403.240909 267.824264 
L 404.509091 274.064847 
L 405.777273 278.967922 
L 407.045455 282.83769 
L 408.313636 285.959171 
L 409.581818 288.549261 
L 410.85 290.762178 
L 413.386364 294.454776 
L 415.922727 297.570263 
L 419.727273 301.736287 
L 423.531818 305.603262 
L 427.336364 309.180671 
L 431.140909 312.439408 
L 434.945455 315.388977 
L 438.75 318.050267 
L 442.554545 320.442046 
L 446.359091 322.578247 
L 450.163636 324.469355 
L 453.968182 326.124778 
L 457.772727 327.554772 
L 461.577273 328.771455 
L 465.381818 329.788986 
L 469.186364 330.623183 
L 474.259091 331.479387 
L 479.331818 332.079983 
L 484.404545 332.463791 
L 490.745455 332.692456 
L 497.086364 332.697832 
L 504.695455 332.478609 
L 513.572727 331.994601 
L 524.986364 331.127186 
L 540.204545 329.711834 
L 563.031818 327.32782 
L 618.831818 321.424657 
L 644.195455 319.003134 
L 667.022727 317.039235 
L 689.85 315.296027 
L 712.677273 313.772939 
L 721 313.270398 
L 721 313.270398 
" style="fill:none;stroke:#ff7f0e;stroke-linecap:square;stroke-width:1.5;"/>
   </g>
   <g id="line2d_63">
    <path clip-path="url(#pc5a38f6782)" d="M 394.363636 187.690202 
L 395.631818 214.657011 
L 396.9 225.495473 
L 398.168182 234.403852 
L 399.436364 242.257864 
L 400.704545 249.044915 
L 401.972727 254.874348 
L 403.240909 259.905632 
L 404.509091 264.294919 
L 405.777273 268.1823 
L 408.313636 274.978055 
L 409.581818 278.235131 
L 410.85 281.900127 
L 412.118182 285.948628 
L 413.386364 288.870627 
L 414.654545 291.10485 
L 417.190909 294.841282 
L 419.727273 298.163419 
L 422.263636 301.216482 
L 426.068182 305.364082 
L 429.872727 309.043801 
L 433.677273 312.297585 
L 437.481818 315.15892 
L 441.286364 317.656013 
L 445.090909 319.815051 
L 448.895455 321.663077 
L 452.7 323.228724 
L 456.504545 324.541081 
L 460.309091 325.628374 
L 464.113636 326.517207 
L 469.186364 327.435871 
L 474.259091 328.097712 
L 479.331818 328.548197 
L 485.672727 328.872329 
L 493.281818 328.990296 
L 502.159091 328.854826 
L 512.304545 328.450481 
L 524.986364 327.702059 
L 541.472727 326.491228 
L 566.836364 324.38217 
L 631.513636 318.932846 
L 660.681818 316.738397 
L 688.581818 314.863162 
L 716.481818 313.214657 
L 721 312.968617 
L 721 312.968617 
" style="fill:none;stroke:#2ca02c;stroke-linecap:square;stroke-width:1.5;"/>
   </g>
   <g id="line2d_64">
    <path clip-path="url(#pc5a38f6782)" d="M 394.363636 167.651267 
L 395.631818 193.056246 
L 396.9 221.966697 
L 398.168182 243.336711 
L 399.436364 256.170307 
L 400.704545 265.140781 
L 401.972727 272.046397 
L 403.240909 277.537831 
L 404.509091 282.005936 
L 405.777273 285.718995 
L 407.045455 288.865379 
L 408.313636 291.579596 
L 409.581818 293.95946 
L 412.118182 297.987419 
L 414.654545 301.339498 
L 417.190909 304.243289 
L 419.727273 306.834995 
L 423.531818 310.308664 
L 427.336364 313.413258 
L 431.140909 316.220897 
L 434.945455 318.764384 
L 438.75 321.059103 
L 442.554545 323.114184 
L 446.359091 324.938006 
L 450.163636 326.540611 
L 453.968182 327.934397 
L 457.772727 329.133908 
L 462.845455 330.458904 
L 467.918182 331.506871 
L 472.990909 332.317044 
L 478.063636 332.926094 
L 484.404545 333.454355 
L 492.013636 333.81786 
L 499.622727 333.957797 
L 509.768182 333.895796 
L 521.181818 333.597733 
L 537.668182 332.918068 
L 564.3 331.55019 
L 631.513636 328.038122 
L 670.827273 326.240648 
L 711.409091 324.609144 
L 721 324.254551 
L 721 324.254551 
" style="fill:none;stroke:#d62728;stroke-linecap:square;stroke-width:1.5;"/>
   </g>
   <g id="patch_9">
    <path d="M 394.363636 384.48 
L 394.363636 51.84 
" style="fill:none;stroke:#000000;stroke-linecap:square;stroke-linejoin:miter;stroke-width:0.8;"/>
   </g>
   <g id="patch_10">
    <path d="M 648 384.48 
L 648 51.84 
" style="fill:none;stroke:#000000;stroke-linecap:square;stroke-linejoin:miter;stroke-width:0.8;"/>
   </g>
   <g id="patch_11">
    <path d="M 394.363636 384.48 
L 648 384.48 
" style="fill:none;stroke:#000000;stroke-linecap:square;stroke-linejoin:miter;stroke-width:0.8;"/>
   </g>
   <g id="patch_12">
    <path d="M 394.363636 51.84 
L 648 51.84 
" style="fill:none;stroke:#000000;stroke-linecap:square;stroke-linejoin:miter;stroke-width:0.8;"/>
   </g>
   <g id="legend_2">
    <g id="patch_13">
     <path d="M 483.696875 177.265 
L 641 177.265 
Q 643 177.265 643 175.265 
L 643 58.84 
Q 643 56.84 641 56.84 
L 483.696875 56.84 
Q 481.696875 56.84 481.696875 58.84 
L 481.696875 175.265 
Q 481.696875 177.265 483.696875 177.265 
z
" style="fill:#ffffff;opacity:0.8;stroke:#cccccc;stroke-linejoin:miter;"/>
    </g>
    <g id="line2d_65">
     <path d="M 485.696875 64.938437 
L 505.696875 64.938437 
" style="fill:none;stroke:#1f77b4;stroke-dasharray:5.55,2.4;stroke-dashoffset:0;stroke-width:1.5;"/>
    </g>
    <g id="line2d_66"/>
    <g id="text_45">
     <!-- train w/ Sigmoid 2 units -->
     <g transform="translate(513.696875 68.438437)scale(0.1 -0.1)">
      <use xlink:href="#DejaVuSans-116"/>
      <use x="39.208984" xlink:href="#DejaVuSans-114"/>
      <use x="80.322266" xlink:href="#DejaVuSans-97"/>
      <use x="141.601562" xlink:href="#DejaVuSans-105"/>
      <use x="169.384766" xlink:href="#DejaVuSans-110"/>
      <use x="232.763672" xlink:href="#DejaVuSans-32"/>
      <use x="264.550781" xlink:href="#DejaVuSans-119"/>
      <use x="346.337891" xlink:href="#DejaVuSans-47"/>
      <use x="380.029297" xlink:href="#DejaVuSans-32"/>
      <use x="411.816406" xlink:href="#DejaVuSans-83"/>
      <use x="475.292969" xlink:href="#DejaVuSans-105"/>
      <use x="503.076172" xlink:href="#DejaVuSans-103"/>
      <use x="566.552734" xlink:href="#DejaVuSans-109"/>
      <use x="663.964844" xlink:href="#DejaVuSans-111"/>
      <use x="725.146484" xlink:href="#DejaVuSans-105"/>
      <use x="752.929688" xlink:href="#DejaVuSans-100"/>
      <use x="816.40625" xlink:href="#DejaVuSans-32"/>
      <use x="848.193359" xlink:href="#DejaVuSans-50"/>
      <use x="911.816406" xlink:href="#DejaVuSans-32"/>
      <use x="943.603516" xlink:href="#DejaVuSans-117"/>
      <use x="1006.982422" xlink:href="#DejaVuSans-110"/>
      <use x="1070.361328" xlink:href="#DejaVuSans-105"/>
      <use x="1098.144531" xlink:href="#DejaVuSans-116"/>
      <use x="1137.353516" xlink:href="#DejaVuSans-115"/>
     </g>
    </g>
    <g id="line2d_67">
     <path d="M 485.696875 79.616562 
L 505.696875 79.616562 
" style="fill:none;stroke:#ff7f0e;stroke-dasharray:5.55,2.4;stroke-dashoffset:0;stroke-width:1.5;"/>
    </g>
    <g id="line2d_68"/>
    <g id="text_46">
     <!-- train w/ Sigmoid 4 units -->
     <g transform="translate(513.696875 83.116562)scale(0.1 -0.1)">
      <use xlink:href="#DejaVuSans-116"/>
      <use x="39.208984" xlink:href="#DejaVuSans-114"/>
      <use x="80.322266" xlink:href="#DejaVuSans-97"/>
      <use x="141.601562" xlink:href="#DejaVuSans-105"/>
      <use x="169.384766" xlink:href="#DejaVuSans-110"/>
      <use x="232.763672" xlink:href="#DejaVuSans-32"/>
      <use x="264.550781" xlink:href="#DejaVuSans-119"/>
      <use x="346.337891" xlink:href="#DejaVuSans-47"/>
      <use x="380.029297" xlink:href="#DejaVuSans-32"/>
      <use x="411.816406" xlink:href="#DejaVuSans-83"/>
      <use x="475.292969" xlink:href="#DejaVuSans-105"/>
      <use x="503.076172" xlink:href="#DejaVuSans-103"/>
      <use x="566.552734" xlink:href="#DejaVuSans-109"/>
      <use x="663.964844" xlink:href="#DejaVuSans-111"/>
      <use x="725.146484" xlink:href="#DejaVuSans-105"/>
      <use x="752.929688" xlink:href="#DejaVuSans-100"/>
      <use x="816.40625" xlink:href="#DejaVuSans-32"/>
      <use x="848.193359" xlink:href="#DejaVuSans-52"/>
      <use x="911.816406" xlink:href="#DejaVuSans-32"/>
      <use x="943.603516" xlink:href="#DejaVuSans-117"/>
      <use x="1006.982422" xlink:href="#DejaVuSans-110"/>
      <use x="1070.361328" xlink:href="#DejaVuSans-105"/>
      <use x="1098.144531" xlink:href="#DejaVuSans-116"/>
      <use x="1137.353516" xlink:href="#DejaVuSans-115"/>
     </g>
    </g>
    <g id="line2d_69">
     <path d="M 485.696875 94.294687 
L 505.696875 94.294687 
" style="fill:none;stroke:#2ca02c;stroke-dasharray:5.55,2.4;stroke-dashoffset:0;stroke-width:1.5;"/>
    </g>
    <g id="line2d_70"/>
    <g id="text_47">
     <!-- train w/ Sigmoid 8 units -->
     <g transform="translate(513.696875 97.794687)scale(0.1 -0.1)">
      <use xlink:href="#DejaVuSans-116"/>
      <use x="39.208984" xlink:href="#DejaVuSans-114"/>
      <use x="80.322266" xlink:href="#DejaVuSans-97"/>
      <use x="141.601562" xlink:href="#DejaVuSans-105"/>
      <use x="169.384766" xlink:href="#DejaVuSans-110"/>
      <use x="232.763672" xlink:href="#DejaVuSans-32"/>
      <use x="264.550781" xlink:href="#DejaVuSans-119"/>
      <use x="346.337891" xlink:href="#DejaVuSans-47"/>
      <use x="380.029297" xlink:href="#DejaVuSans-32"/>
      <use x="411.816406" xlink:href="#DejaVuSans-83"/>
      <use x="475.292969" xlink:href="#DejaVuSans-105"/>
      <use x="503.076172" xlink:href="#DejaVuSans-103"/>
      <use x="566.552734" xlink:href="#DejaVuSans-109"/>
      <use x="663.964844" xlink:href="#DejaVuSans-111"/>
      <use x="725.146484" xlink:href="#DejaVuSans-105"/>
      <use x="752.929688" xlink:href="#DejaVuSans-100"/>
      <use x="816.40625" xlink:href="#DejaVuSans-32"/>
      <use x="848.193359" xlink:href="#DejaVuSans-56"/>
      <use x="911.816406" xlink:href="#DejaVuSans-32"/>
      <use x="943.603516" xlink:href="#DejaVuSans-117"/>
      <use x="1006.982422" xlink:href="#DejaVuSans-110"/>
      <use x="1070.361328" xlink:href="#DejaVuSans-105"/>
      <use x="1098.144531" xlink:href="#DejaVuSans-116"/>
      <use x="1137.353516" xlink:href="#DejaVuSans-115"/>
     </g>
    </g>
    <g id="line2d_71">
     <path d="M 485.696875 108.972812 
L 505.696875 108.972812 
" style="fill:none;stroke:#d62728;stroke-dasharray:5.55,2.4;stroke-dashoffset:0;stroke-width:1.5;"/>
    </g>
    <g id="line2d_72"/>
    <g id="text_48">
     <!-- train w/ Sigmoid 16 units -->
     <g transform="translate(513.696875 112.472812)scale(0.1 -0.1)">
      <use xlink:href="#DejaVuSans-116"/>
      <use x="39.208984" xlink:href="#DejaVuSans-114"/>
      <use x="80.322266" xlink:href="#DejaVuSans-97"/>
      <use x="141.601562" xlink:href="#DejaVuSans-105"/>
      <use x="169.384766" xlink:href="#DejaVuSans-110"/>
      <use x="232.763672" xlink:href="#DejaVuSans-32"/>
      <use x="264.550781" xlink:href="#DejaVuSans-119"/>
      <use x="346.337891" xlink:href="#DejaVuSans-47"/>
      <use x="380.029297" xlink:href="#DejaVuSans-32"/>
      <use x="411.816406" xlink:href="#DejaVuSans-83"/>
      <use x="475.292969" xlink:href="#DejaVuSans-105"/>
      <use x="503.076172" xlink:href="#DejaVuSans-103"/>
      <use x="566.552734" xlink:href="#DejaVuSans-109"/>
      <use x="663.964844" xlink:href="#DejaVuSans-111"/>
      <use x="725.146484" xlink:href="#DejaVuSans-105"/>
      <use x="752.929688" xlink:href="#DejaVuSans-100"/>
      <use x="816.40625" xlink:href="#DejaVuSans-32"/>
      <use x="848.193359" xlink:href="#DejaVuSans-49"/>
      <use x="911.816406" xlink:href="#DejaVuSans-54"/>
      <use x="975.439453" xlink:href="#DejaVuSans-32"/>
      <use x="1007.226562" xlink:href="#DejaVuSans-117"/>
      <use x="1070.605469" xlink:href="#DejaVuSans-110"/>
      <use x="1133.984375" xlink:href="#DejaVuSans-105"/>
      <use x="1161.767578" xlink:href="#DejaVuSans-116"/>
      <use x="1200.976562" xlink:href="#DejaVuSans-115"/>
     </g>
    </g>
    <g id="line2d_73">
     <path d="M 485.696875 123.650937 
L 505.696875 123.650937 
" style="fill:none;stroke:#1f77b4;stroke-linecap:square;stroke-width:1.5;"/>
    </g>
    <g id="line2d_74"/>
    <g id="text_49">
     <!-- test w/ Sigmoid 2 units -->
     <g transform="translate(513.696875 127.150937)scale(0.1 -0.1)">
      <use xlink:href="#DejaVuSans-116"/>
      <use x="39.208984" xlink:href="#DejaVuSans-101"/>
      <use x="100.732422" xlink:href="#DejaVuSans-115"/>
      <use x="152.832031" xlink:href="#DejaVuSans-116"/>
      <use x="192.041016" xlink:href="#DejaVuSans-32"/>
      <use x="223.828125" xlink:href="#DejaVuSans-119"/>
      <use x="305.615234" xlink:href="#DejaVuSans-47"/>
      <use x="339.306641" xlink:href="#DejaVuSans-32"/>
      <use x="371.09375" xlink:href="#DejaVuSans-83"/>
      <use x="434.570312" xlink:href="#DejaVuSans-105"/>
      <use x="462.353516" xlink:href="#DejaVuSans-103"/>
      <use x="525.830078" xlink:href="#DejaVuSans-109"/>
      <use x="623.242188" xlink:href="#DejaVuSans-111"/>
      <use x="684.423828" xlink:href="#DejaVuSans-105"/>
      <use x="712.207031" xlink:href="#DejaVuSans-100"/>
      <use x="775.683594" xlink:href="#DejaVuSans-32"/>
      <use x="807.470703" xlink:href="#DejaVuSans-50"/>
      <use x="871.09375" xlink:href="#DejaVuSans-32"/>
      <use x="902.880859" xlink:href="#DejaVuSans-117"/>
      <use x="966.259766" xlink:href="#DejaVuSans-110"/>
      <use x="1029.638672" xlink:href="#DejaVuSans-105"/>
      <use x="1057.421875" xlink:href="#DejaVuSans-116"/>
      <use x="1096.630859" xlink:href="#DejaVuSans-115"/>
     </g>
    </g>
    <g id="line2d_75">
     <path d="M 485.696875 138.329062 
L 505.696875 138.329062 
" style="fill:none;stroke:#ff7f0e;stroke-linecap:square;stroke-width:1.5;"/>
    </g>
    <g id="line2d_76"/>
    <g id="text_50">
     <!-- test w/ Sigmoid 4 units -->
     <g transform="translate(513.696875 141.829062)scale(0.1 -0.1)">
      <use xlink:href="#DejaVuSans-116"/>
      <use x="39.208984" xlink:href="#DejaVuSans-101"/>
      <use x="100.732422" xlink:href="#DejaVuSans-115"/>
      <use x="152.832031" xlink:href="#DejaVuSans-116"/>
      <use x="192.041016" xlink:href="#DejaVuSans-32"/>
      <use x="223.828125" xlink:href="#DejaVuSans-119"/>
      <use x="305.615234" xlink:href="#DejaVuSans-47"/>
      <use x="339.306641" xlink:href="#DejaVuSans-32"/>
      <use x="371.09375" xlink:href="#DejaVuSans-83"/>
      <use x="434.570312" xlink:href="#DejaVuSans-105"/>
      <use x="462.353516" xlink:href="#DejaVuSans-103"/>
      <use x="525.830078" xlink:href="#DejaVuSans-109"/>
      <use x="623.242188" xlink:href="#DejaVuSans-111"/>
      <use x="684.423828" xlink:href="#DejaVuSans-105"/>
      <use x="712.207031" xlink:href="#DejaVuSans-100"/>
      <use x="775.683594" xlink:href="#DejaVuSans-32"/>
      <use x="807.470703" xlink:href="#DejaVuSans-52"/>
      <use x="871.09375" xlink:href="#DejaVuSans-32"/>
      <use x="902.880859" xlink:href="#DejaVuSans-117"/>
      <use x="966.259766" xlink:href="#DejaVuSans-110"/>
      <use x="1029.638672" xlink:href="#DejaVuSans-105"/>
      <use x="1057.421875" xlink:href="#DejaVuSans-116"/>
      <use x="1096.630859" xlink:href="#DejaVuSans-115"/>
     </g>
    </g>
    <g id="line2d_77">
     <path d="M 485.696875 153.007187 
L 505.696875 153.007187 
" style="fill:none;stroke:#2ca02c;stroke-linecap:square;stroke-width:1.5;"/>
    </g>
    <g id="line2d_78"/>
    <g id="text_51">
     <!-- test w/ Sigmoid 8 units -->
     <g transform="translate(513.696875 156.507187)scale(0.1 -0.1)">
      <use xlink:href="#DejaVuSans-116"/>
      <use x="39.208984" xlink:href="#DejaVuSans-101"/>
      <use x="100.732422" xlink:href="#DejaVuSans-115"/>
      <use x="152.832031" xlink:href="#DejaVuSans-116"/>
      <use x="192.041016" xlink:href="#DejaVuSans-32"/>
      <use x="223.828125" xlink:href="#DejaVuSans-119"/>
      <use x="305.615234" xlink:href="#DejaVuSans-47"/>
      <use x="339.306641" xlink:href="#DejaVuSans-32"/>
      <use x="371.09375" xlink:href="#DejaVuSans-83"/>
      <use x="434.570312" xlink:href="#DejaVuSans-105"/>
      <use x="462.353516" xlink:href="#DejaVuSans-103"/>
      <use x="525.830078" xlink:href="#DejaVuSans-109"/>
      <use x="623.242188" xlink:href="#DejaVuSans-111"/>
      <use x="684.423828" xlink:href="#DejaVuSans-105"/>
      <use x="712.207031" xlink:href="#DejaVuSans-100"/>
      <use x="775.683594" xlink:href="#DejaVuSans-32"/>
      <use x="807.470703" xlink:href="#DejaVuSans-56"/>
      <use x="871.09375" xlink:href="#DejaVuSans-32"/>
      <use x="902.880859" xlink:href="#DejaVuSans-117"/>
      <use x="966.259766" xlink:href="#DejaVuSans-110"/>
      <use x="1029.638672" xlink:href="#DejaVuSans-105"/>
      <use x="1057.421875" xlink:href="#DejaVuSans-116"/>
      <use x="1096.630859" xlink:href="#DejaVuSans-115"/>
     </g>
    </g>
    <g id="line2d_79">
     <path d="M 485.696875 167.685312 
L 505.696875 167.685312 
" style="fill:none;stroke:#d62728;stroke-linecap:square;stroke-width:1.5;"/>
    </g>
    <g id="line2d_80"/>
    <g id="text_52">
     <!-- test w/ Sigmoid 16 units -->
     <g transform="translate(513.696875 171.185312)scale(0.1 -0.1)">
      <use xlink:href="#DejaVuSans-116"/>
      <use x="39.208984" xlink:href="#DejaVuSans-101"/>
      <use x="100.732422" xlink:href="#DejaVuSans-115"/>
      <use x="152.832031" xlink:href="#DejaVuSans-116"/>
      <use x="192.041016" xlink:href="#DejaVuSans-32"/>
      <use x="223.828125" xlink:href="#DejaVuSans-119"/>
      <use x="305.615234" xlink:href="#DejaVuSans-47"/>
      <use x="339.306641" xlink:href="#DejaVuSans-32"/>
      <use x="371.09375" xlink:href="#DejaVuSans-83"/>
      <use x="434.570312" xlink:href="#DejaVuSans-105"/>
      <use x="462.353516" xlink:href="#DejaVuSans-103"/>
      <use x="525.830078" xlink:href="#DejaVuSans-109"/>
      <use x="623.242188" xlink:href="#DejaVuSans-111"/>
      <use x="684.423828" xlink:href="#DejaVuSans-105"/>
      <use x="712.207031" xlink:href="#DejaVuSans-100"/>
      <use x="775.683594" xlink:href="#DejaVuSans-32"/>
      <use x="807.470703" xlink:href="#DejaVuSans-49"/>
      <use x="871.09375" xlink:href="#DejaVuSans-54"/>
      <use x="934.716797" xlink:href="#DejaVuSans-32"/>
      <use x="966.503906" xlink:href="#DejaVuSans-117"/>
      <use x="1029.882812" xlink:href="#DejaVuSans-110"/>
      <use x="1093.261719" xlink:href="#DejaVuSans-105"/>
      <use x="1121.044922" xlink:href="#DejaVuSans-116"/>
      <use x="1160.253906" xlink:href="#DejaVuSans-115"/>
     </g>
    </g>
   </g>
  </g>
 </g>
 <defs>
  <clipPath id="pbc3bc5052c">
   <rect height="332.64" width="253.636364" x="90" y="51.84"/>
  </clipPath>
  <clipPath id="pc5a38f6782">
   <rect height="332.64" width="253.636364" x="394.363636" y="51.84"/>
  </clipPath>
 </defs>
</svg>
