<?xml version="1.0" encoding="utf-8" standalone="no"?>
<!DOCTYPE svg PUBLIC "-//W3C//DTD SVG 1.1//EN"
  "http://www.w3.org/Graphics/SVG/1.1/DTD/svg11.dtd">
<!-- Created with matplotlib (https://matplotlib.org/) -->
<svg height="432pt" version="1.1" viewBox="0 0 720 432" width="720pt" xmlns="http://www.w3.org/2000/svg" xmlns:xlink="http://www.w3.org/1999/xlink">
 <defs>
  <style type="text/css">
*{stroke-linecap:butt;stroke-linejoin:round;}
  </style>
 </defs>
 <g id="figure_1">
  <g id="patch_1">
   <path d="M 0 432 
L 720 432 
L 720 0 
L 0 0 
z
" style="fill:#ffffff;"/>
  </g>
  <g id="axes_1">
   <g id="patch_2">
    <path d="M 90 384.48 
L 343.636364 384.48 
L 343.636364 51.84 
L 90 51.84 
z
" style="fill:#ffffff;"/>
   </g>
   <g id="matplotlib.axis_1">
    <g id="xtick_1">
     <g id="line2d_1">
      <defs>
       <path d="M 0 0 
L 0 3.5 
" id="m8cb81c9bcf" style="stroke:#000000;stroke-width:0.8;"/>
      </defs>
      <g>
       <use style="stroke:#000000;stroke-width:0.8;" x="90" xlink:href="#m8cb81c9bcf" y="384.48"/>
      </g>
     </g>
     <g id="text_1">
      <!-- 0 -->
      <defs>
       <path d="M 31.78125 66.40625 
Q 24.171875 66.40625 20.328125 58.90625 
Q 16.5 51.421875 16.5 36.375 
Q 16.5 21.390625 20.328125 13.890625 
Q 24.171875 6.390625 31.78125 6.390625 
Q 39.453125 6.390625 43.28125 13.890625 
Q 47.125 21.390625 47.125 36.375 
Q 47.125 51.421875 43.28125 58.90625 
Q 39.453125 66.40625 31.78125 66.40625 
z
M 31.78125 74.21875 
Q 44.046875 74.21875 50.515625 64.515625 
Q 56.984375 54.828125 56.984375 36.375 
Q 56.984375 17.96875 50.515625 8.265625 
Q 44.046875 -1.421875 31.78125 -1.421875 
Q 19.53125 -1.421875 13.0625 8.265625 
Q 6.59375 17.96875 6.59375 36.375 
Q 6.59375 54.828125 13.0625 64.515625 
Q 19.53125 74.21875 31.78125 74.21875 
z
" id="DejaVuSans-48"/>
      </defs>
      <g transform="translate(86.81875 399.078438)scale(0.1 -0.1)">
       <use xlink:href="#DejaVuSans-48"/>
      </g>
     </g>
    </g>
    <g id="xtick_2">
     <g id="line2d_2">
      <g>
       <use style="stroke:#000000;stroke-width:0.8;" x="132.272727" xlink:href="#m8cb81c9bcf" y="384.48"/>
      </g>
     </g>
     <g id="text_2">
      <!-- 50 -->
      <defs>
       <path d="M 10.796875 72.90625 
L 49.515625 72.90625 
L 49.515625 64.59375 
L 19.828125 64.59375 
L 19.828125 46.734375 
Q 21.96875 47.46875 24.109375 47.828125 
Q 26.265625 48.1875 28.421875 48.1875 
Q 40.625 48.1875 47.75 41.5 
Q 54.890625 34.8125 54.890625 23.390625 
Q 54.890625 11.625 47.5625 5.09375 
Q 40.234375 -1.421875 26.90625 -1.421875 
Q 22.3125 -1.421875 17.546875 -0.640625 
Q 12.796875 0.140625 7.71875 1.703125 
L 7.71875 11.625 
Q 12.109375 9.234375 16.796875 8.0625 
Q 21.484375 6.890625 26.703125 6.890625 
Q 35.15625 6.890625 40.078125 11.328125 
Q 45.015625 15.765625 45.015625 23.390625 
Q 45.015625 31 40.078125 35.4375 
Q 35.15625 39.890625 26.703125 39.890625 
Q 22.75 39.890625 18.8125 39.015625 
Q 14.890625 38.140625 10.796875 36.28125 
z
" id="DejaVuSans-53"/>
      </defs>
      <g transform="translate(125.910227 399.078438)scale(0.1 -0.1)">
       <use xlink:href="#DejaVuSans-53"/>
       <use x="63.623047" xlink:href="#DejaVuSans-48"/>
      </g>
     </g>
    </g>
    <g id="xtick_3">
     <g id="line2d_3">
      <g>
       <use style="stroke:#000000;stroke-width:0.8;" x="174.545455" xlink:href="#m8cb81c9bcf" y="384.48"/>
      </g>
     </g>
     <g id="text_3">
      <!-- 100 -->
      <defs>
       <path d="M 12.40625 8.296875 
L 28.515625 8.296875 
L 28.515625 63.921875 
L 10.984375 60.40625 
L 10.984375 69.390625 
L 28.421875 72.90625 
L 38.28125 72.90625 
L 38.28125 8.296875 
L 54.390625 8.296875 
L 54.390625 0 
L 12.40625 0 
z
" id="DejaVuSans-49"/>
      </defs>
      <g transform="translate(165.001705 399.078438)scale(0.1 -0.1)">
       <use xlink:href="#DejaVuSans-49"/>
       <use x="63.623047" xlink:href="#DejaVuSans-48"/>
       <use x="127.246094" xlink:href="#DejaVuSans-48"/>
      </g>
     </g>
    </g>
    <g id="xtick_4">
     <g id="line2d_4">
      <g>
       <use style="stroke:#000000;stroke-width:0.8;" x="216.818182" xlink:href="#m8cb81c9bcf" y="384.48"/>
      </g>
     </g>
     <g id="text_4">
      <!-- 150 -->
      <g transform="translate(207.274432 399.078438)scale(0.1 -0.1)">
       <use xlink:href="#DejaVuSans-49"/>
       <use x="63.623047" xlink:href="#DejaVuSans-53"/>
       <use x="127.246094" xlink:href="#DejaVuSans-48"/>
      </g>
     </g>
    </g>
    <g id="xtick_5">
     <g id="line2d_5">
      <g>
       <use style="stroke:#000000;stroke-width:0.8;" x="259.090909" xlink:href="#m8cb81c9bcf" y="384.48"/>
      </g>
     </g>
     <g id="text_5">
      <!-- 200 -->
      <defs>
       <path d="M 19.1875 8.296875 
L 53.609375 8.296875 
L 53.609375 0 
L 7.328125 0 
L 7.328125 8.296875 
Q 12.9375 14.109375 22.625 23.890625 
Q 32.328125 33.6875 34.8125 36.53125 
Q 39.546875 41.84375 41.421875 45.53125 
Q 43.3125 49.21875 43.3125 52.78125 
Q 43.3125 58.59375 39.234375 62.25 
Q 35.15625 65.921875 28.609375 65.921875 
Q 23.96875 65.921875 18.8125 64.3125 
Q 13.671875 62.703125 7.8125 59.421875 
L 7.8125 69.390625 
Q 13.765625 71.78125 18.9375 73 
Q 24.125 74.21875 28.421875 74.21875 
Q 39.75 74.21875 46.484375 68.546875 
Q 53.21875 62.890625 53.21875 53.421875 
Q 53.21875 48.921875 51.53125 44.890625 
Q 49.859375 40.875 45.40625 35.40625 
Q 44.1875 33.984375 37.640625 27.21875 
Q 31.109375 20.453125 19.1875 8.296875 
z
" id="DejaVuSans-50"/>
      </defs>
      <g transform="translate(249.547159 399.078438)scale(0.1 -0.1)">
       <use xlink:href="#DejaVuSans-50"/>
       <use x="63.623047" xlink:href="#DejaVuSans-48"/>
       <use x="127.246094" xlink:href="#DejaVuSans-48"/>
      </g>
     </g>
    </g>
    <g id="xtick_6">
     <g id="line2d_6">
      <g>
       <use style="stroke:#000000;stroke-width:0.8;" x="301.363636" xlink:href="#m8cb81c9bcf" y="384.48"/>
      </g>
     </g>
     <g id="text_6">
      <!-- 250 -->
      <g transform="translate(291.819886 399.078438)scale(0.1 -0.1)">
       <use xlink:href="#DejaVuSans-50"/>
       <use x="63.623047" xlink:href="#DejaVuSans-53"/>
       <use x="127.246094" xlink:href="#DejaVuSans-48"/>
      </g>
     </g>
    </g>
    <g id="xtick_7">
     <g id="line2d_7">
      <g>
       <use style="stroke:#000000;stroke-width:0.8;" x="343.636364" xlink:href="#m8cb81c9bcf" y="384.48"/>
      </g>
     </g>
     <g id="text_7">
      <!-- 300 -->
      <defs>
       <path d="M 40.578125 39.3125 
Q 47.65625 37.796875 51.625 33 
Q 55.609375 28.21875 55.609375 21.1875 
Q 55.609375 10.40625 48.1875 4.484375 
Q 40.765625 -1.421875 27.09375 -1.421875 
Q 22.515625 -1.421875 17.65625 -0.515625 
Q 12.796875 0.390625 7.625 2.203125 
L 7.625 11.71875 
Q 11.71875 9.328125 16.59375 8.109375 
Q 21.484375 6.890625 26.8125 6.890625 
Q 36.078125 6.890625 40.9375 10.546875 
Q 45.796875 14.203125 45.796875 21.1875 
Q 45.796875 27.640625 41.28125 31.265625 
Q 36.765625 34.90625 28.71875 34.90625 
L 20.21875 34.90625 
L 20.21875 43.015625 
L 29.109375 43.015625 
Q 36.375 43.015625 40.234375 45.921875 
Q 44.09375 48.828125 44.09375 54.296875 
Q 44.09375 59.90625 40.109375 62.90625 
Q 36.140625 65.921875 28.71875 65.921875 
Q 24.65625 65.921875 20.015625 65.03125 
Q 15.375 64.15625 9.8125 62.3125 
L 9.8125 71.09375 
Q 15.4375 72.65625 20.34375 73.4375 
Q 25.25 74.21875 29.59375 74.21875 
Q 40.828125 74.21875 47.359375 69.109375 
Q 53.90625 64.015625 53.90625 55.328125 
Q 53.90625 49.265625 50.4375 45.09375 
Q 46.96875 40.921875 40.578125 39.3125 
z
" id="DejaVuSans-51"/>
      </defs>
      <g transform="translate(334.092614 399.078438)scale(0.1 -0.1)">
       <use xlink:href="#DejaVuSans-51"/>
       <use x="63.623047" xlink:href="#DejaVuSans-48"/>
       <use x="127.246094" xlink:href="#DejaVuSans-48"/>
      </g>
     </g>
    </g>
    <g id="text_8">
     <!-- Epoch -->
     <defs>
      <path d="M 9.8125 72.90625 
L 55.90625 72.90625 
L 55.90625 64.59375 
L 19.671875 64.59375 
L 19.671875 43.015625 
L 54.390625 43.015625 
L 54.390625 34.71875 
L 19.671875 34.71875 
L 19.671875 8.296875 
L 56.78125 8.296875 
L 56.78125 0 
L 9.8125 0 
z
" id="DejaVuSans-69"/>
      <path d="M 18.109375 8.203125 
L 18.109375 -20.796875 
L 9.078125 -20.796875 
L 9.078125 54.6875 
L 18.109375 54.6875 
L 18.109375 46.390625 
Q 20.953125 51.265625 25.265625 53.625 
Q 29.59375 56 35.59375 56 
Q 45.5625 56 51.78125 48.09375 
Q 58.015625 40.1875 58.015625 27.296875 
Q 58.015625 14.40625 51.78125 6.484375 
Q 45.5625 -1.421875 35.59375 -1.421875 
Q 29.59375 -1.421875 25.265625 0.953125 
Q 20.953125 3.328125 18.109375 8.203125 
z
M 48.6875 27.296875 
Q 48.6875 37.203125 44.609375 42.84375 
Q 40.53125 48.484375 33.40625 48.484375 
Q 26.265625 48.484375 22.1875 42.84375 
Q 18.109375 37.203125 18.109375 27.296875 
Q 18.109375 17.390625 22.1875 11.75 
Q 26.265625 6.109375 33.40625 6.109375 
Q 40.53125 6.109375 44.609375 11.75 
Q 48.6875 17.390625 48.6875 27.296875 
z
" id="DejaVuSans-112"/>
      <path d="M 30.609375 48.390625 
Q 23.390625 48.390625 19.1875 42.75 
Q 14.984375 37.109375 14.984375 27.296875 
Q 14.984375 17.484375 19.15625 11.84375 
Q 23.34375 6.203125 30.609375 6.203125 
Q 37.796875 6.203125 41.984375 11.859375 
Q 46.1875 17.53125 46.1875 27.296875 
Q 46.1875 37.015625 41.984375 42.703125 
Q 37.796875 48.390625 30.609375 48.390625 
z
M 30.609375 56 
Q 42.328125 56 49.015625 48.375 
Q 55.71875 40.765625 55.71875 27.296875 
Q 55.71875 13.875 49.015625 6.21875 
Q 42.328125 -1.421875 30.609375 -1.421875 
Q 18.84375 -1.421875 12.171875 6.21875 
Q 5.515625 13.875 5.515625 27.296875 
Q 5.515625 40.765625 12.171875 48.375 
Q 18.84375 56 30.609375 56 
z
" id="DejaVuSans-111"/>
      <path d="M 48.78125 52.59375 
L 48.78125 44.1875 
Q 44.96875 46.296875 41.140625 47.34375 
Q 37.3125 48.390625 33.40625 48.390625 
Q 24.65625 48.390625 19.8125 42.84375 
Q 14.984375 37.3125 14.984375 27.296875 
Q 14.984375 17.28125 19.8125 11.734375 
Q 24.65625 6.203125 33.40625 6.203125 
Q 37.3125 6.203125 41.140625 7.25 
Q 44.96875 8.296875 48.78125 10.40625 
L 48.78125 2.09375 
Q 45.015625 0.34375 40.984375 -0.53125 
Q 36.96875 -1.421875 32.421875 -1.421875 
Q 20.0625 -1.421875 12.78125 6.34375 
Q 5.515625 14.109375 5.515625 27.296875 
Q 5.515625 40.671875 12.859375 48.328125 
Q 20.21875 56 33.015625 56 
Q 37.15625 56 41.109375 55.140625 
Q 45.0625 54.296875 48.78125 52.59375 
z
" id="DejaVuSans-99"/>
      <path d="M 54.890625 33.015625 
L 54.890625 0 
L 45.90625 0 
L 45.90625 32.71875 
Q 45.90625 40.484375 42.875 44.328125 
Q 39.84375 48.1875 33.796875 48.1875 
Q 26.515625 48.1875 22.3125 43.546875 
Q 18.109375 38.921875 18.109375 30.90625 
L 18.109375 0 
L 9.078125 0 
L 9.078125 75.984375 
L 18.109375 75.984375 
L 18.109375 46.1875 
Q 21.34375 51.125 25.703125 53.5625 
Q 30.078125 56 35.796875 56 
Q 45.21875 56 50.046875 50.171875 
Q 54.890625 44.34375 54.890625 33.015625 
z
" id="DejaVuSans-104"/>
     </defs>
     <g transform="translate(201.507244 412.756563)scale(0.1 -0.1)">
      <use xlink:href="#DejaVuSans-69"/>
      <use x="63.183594" xlink:href="#DejaVuSans-112"/>
      <use x="126.660156" xlink:href="#DejaVuSans-111"/>
      <use x="187.841797" xlink:href="#DejaVuSans-99"/>
      <use x="242.822266" xlink:href="#DejaVuSans-104"/>
     </g>
    </g>
   </g>
   <g id="matplotlib.axis_2">
    <g id="ytick_1">
     <g id="line2d_8">
      <defs>
       <path d="M 0 0 
L -3.5 0 
" id="m73d2a906c2" style="stroke:#000000;stroke-width:0.8;"/>
      </defs>
      <g>
       <use style="stroke:#000000;stroke-width:0.8;" x="90" xlink:href="#m73d2a906c2" y="373.047805"/>
      </g>
     </g>
     <g id="text_9">
      <!-- 0.3 -->
      <defs>
       <path d="M 10.6875 12.40625 
L 21 12.40625 
L 21 0 
L 10.6875 0 
z
" id="DejaVuSans-46"/>
      </defs>
      <g transform="translate(67.096875 376.847024)scale(0.1 -0.1)">
       <use xlink:href="#DejaVuSans-48"/>
       <use x="63.623047" xlink:href="#DejaVuSans-46"/>
       <use x="95.410156" xlink:href="#DejaVuSans-51"/>
      </g>
     </g>
    </g>
    <g id="ytick_2">
     <g id="line2d_9">
      <g>
       <use style="stroke:#000000;stroke-width:0.8;" x="90" xlink:href="#m73d2a906c2" y="328.794146"/>
      </g>
     </g>
     <g id="text_10">
      <!-- 0.4 -->
      <defs>
       <path d="M 37.796875 64.3125 
L 12.890625 25.390625 
L 37.796875 25.390625 
z
M 35.203125 72.90625 
L 47.609375 72.90625 
L 47.609375 25.390625 
L 58.015625 25.390625 
L 58.015625 17.1875 
L 47.609375 17.1875 
L 47.609375 0 
L 37.796875 0 
L 37.796875 17.1875 
L 4.890625 17.1875 
L 4.890625 26.703125 
z
" id="DejaVuSans-52"/>
      </defs>
      <g transform="translate(67.096875 332.593365)scale(0.1 -0.1)">
       <use xlink:href="#DejaVuSans-48"/>
       <use x="63.623047" xlink:href="#DejaVuSans-46"/>
       <use x="95.410156" xlink:href="#DejaVuSans-52"/>
      </g>
     </g>
    </g>
    <g id="ytick_3">
     <g id="line2d_10">
      <g>
       <use style="stroke:#000000;stroke-width:0.8;" x="90" xlink:href="#m73d2a906c2" y="284.540488"/>
      </g>
     </g>
     <g id="text_11">
      <!-- 0.5 -->
      <g transform="translate(67.096875 288.339707)scale(0.1 -0.1)">
       <use xlink:href="#DejaVuSans-48"/>
       <use x="63.623047" xlink:href="#DejaVuSans-46"/>
       <use x="95.410156" xlink:href="#DejaVuSans-53"/>
      </g>
     </g>
    </g>
    <g id="ytick_4">
     <g id="line2d_11">
      <g>
       <use style="stroke:#000000;stroke-width:0.8;" x="90" xlink:href="#m73d2a906c2" y="240.286829"/>
      </g>
     </g>
     <g id="text_12">
      <!-- 0.6 -->
      <defs>
       <path d="M 33.015625 40.375 
Q 26.375 40.375 22.484375 35.828125 
Q 18.609375 31.296875 18.609375 23.390625 
Q 18.609375 15.53125 22.484375 10.953125 
Q 26.375 6.390625 33.015625 6.390625 
Q 39.65625 6.390625 43.53125 10.953125 
Q 47.40625 15.53125 47.40625 23.390625 
Q 47.40625 31.296875 43.53125 35.828125 
Q 39.65625 40.375 33.015625 40.375 
z
M 52.59375 71.296875 
L 52.59375 62.3125 
Q 48.875 64.0625 45.09375 64.984375 
Q 41.3125 65.921875 37.59375 65.921875 
Q 27.828125 65.921875 22.671875 59.328125 
Q 17.53125 52.734375 16.796875 39.40625 
Q 19.671875 43.65625 24.015625 45.921875 
Q 28.375 48.1875 33.59375 48.1875 
Q 44.578125 48.1875 50.953125 41.515625 
Q 57.328125 34.859375 57.328125 23.390625 
Q 57.328125 12.15625 50.6875 5.359375 
Q 44.046875 -1.421875 33.015625 -1.421875 
Q 20.359375 -1.421875 13.671875 8.265625 
Q 6.984375 17.96875 6.984375 36.375 
Q 6.984375 53.65625 15.1875 63.9375 
Q 23.390625 74.21875 37.203125 74.21875 
Q 40.921875 74.21875 44.703125 73.484375 
Q 48.484375 72.75 52.59375 71.296875 
z
" id="DejaVuSans-54"/>
      </defs>
      <g transform="translate(67.096875 244.086048)scale(0.1 -0.1)">
       <use xlink:href="#DejaVuSans-48"/>
       <use x="63.623047" xlink:href="#DejaVuSans-46"/>
       <use x="95.410156" xlink:href="#DejaVuSans-54"/>
      </g>
     </g>
    </g>
    <g id="ytick_5">
     <g id="line2d_12">
      <g>
       <use style="stroke:#000000;stroke-width:0.8;" x="90" xlink:href="#m73d2a906c2" y="196.033171"/>
      </g>
     </g>
     <g id="text_13">
      <!-- 0.7 -->
      <defs>
       <path d="M 8.203125 72.90625 
L 55.078125 72.90625 
L 55.078125 68.703125 
L 28.609375 0 
L 18.3125 0 
L 43.21875 64.59375 
L 8.203125 64.59375 
z
" id="DejaVuSans-55"/>
      </defs>
      <g transform="translate(67.096875 199.832389)scale(0.1 -0.1)">
       <use xlink:href="#DejaVuSans-48"/>
       <use x="63.623047" xlink:href="#DejaVuSans-46"/>
       <use x="95.410156" xlink:href="#DejaVuSans-55"/>
      </g>
     </g>
    </g>
    <g id="ytick_6">
     <g id="line2d_13">
      <g>
       <use style="stroke:#000000;stroke-width:0.8;" x="90" xlink:href="#m73d2a906c2" y="151.779512"/>
      </g>
     </g>
     <g id="text_14">
      <!-- 0.8 -->
      <defs>
       <path d="M 31.78125 34.625 
Q 24.75 34.625 20.71875 30.859375 
Q 16.703125 27.09375 16.703125 20.515625 
Q 16.703125 13.921875 20.71875 10.15625 
Q 24.75 6.390625 31.78125 6.390625 
Q 38.8125 6.390625 42.859375 10.171875 
Q 46.921875 13.96875 46.921875 20.515625 
Q 46.921875 27.09375 42.890625 30.859375 
Q 38.875 34.625 31.78125 34.625 
z
M 21.921875 38.8125 
Q 15.578125 40.375 12.03125 44.71875 
Q 8.5 49.078125 8.5 55.328125 
Q 8.5 64.0625 14.71875 69.140625 
Q 20.953125 74.21875 31.78125 74.21875 
Q 42.671875 74.21875 48.875 69.140625 
Q 55.078125 64.0625 55.078125 55.328125 
Q 55.078125 49.078125 51.53125 44.71875 
Q 48 40.375 41.703125 38.8125 
Q 48.828125 37.15625 52.796875 32.3125 
Q 56.78125 27.484375 56.78125 20.515625 
Q 56.78125 9.90625 50.3125 4.234375 
Q 43.84375 -1.421875 31.78125 -1.421875 
Q 19.734375 -1.421875 13.25 4.234375 
Q 6.78125 9.90625 6.78125 20.515625 
Q 6.78125 27.484375 10.78125 32.3125 
Q 14.796875 37.15625 21.921875 38.8125 
z
M 18.3125 54.390625 
Q 18.3125 48.734375 21.84375 45.5625 
Q 25.390625 42.390625 31.78125 42.390625 
Q 38.140625 42.390625 41.71875 45.5625 
Q 45.3125 48.734375 45.3125 54.390625 
Q 45.3125 60.0625 41.71875 63.234375 
Q 38.140625 66.40625 31.78125 66.40625 
Q 25.390625 66.40625 21.84375 63.234375 
Q 18.3125 60.0625 18.3125 54.390625 
z
" id="DejaVuSans-56"/>
      </defs>
      <g transform="translate(67.096875 155.578731)scale(0.1 -0.1)">
       <use xlink:href="#DejaVuSans-48"/>
       <use x="63.623047" xlink:href="#DejaVuSans-46"/>
       <use x="95.410156" xlink:href="#DejaVuSans-56"/>
      </g>
     </g>
    </g>
    <g id="ytick_7">
     <g id="line2d_14">
      <g>
       <use style="stroke:#000000;stroke-width:0.8;" x="90" xlink:href="#m73d2a906c2" y="107.525854"/>
      </g>
     </g>
     <g id="text_15">
      <!-- 0.9 -->
      <defs>
       <path d="M 10.984375 1.515625 
L 10.984375 10.5 
Q 14.703125 8.734375 18.5 7.8125 
Q 22.3125 6.890625 25.984375 6.890625 
Q 35.75 6.890625 40.890625 13.453125 
Q 46.046875 20.015625 46.78125 33.40625 
Q 43.953125 29.203125 39.59375 26.953125 
Q 35.25 24.703125 29.984375 24.703125 
Q 19.046875 24.703125 12.671875 31.3125 
Q 6.296875 37.9375 6.296875 49.421875 
Q 6.296875 60.640625 12.9375 67.421875 
Q 19.578125 74.21875 30.609375 74.21875 
Q 43.265625 74.21875 49.921875 64.515625 
Q 56.59375 54.828125 56.59375 36.375 
Q 56.59375 19.140625 48.40625 8.859375 
Q 40.234375 -1.421875 26.421875 -1.421875 
Q 22.703125 -1.421875 18.890625 -0.6875 
Q 15.09375 0.046875 10.984375 1.515625 
z
M 30.609375 32.421875 
Q 37.25 32.421875 41.125 36.953125 
Q 45.015625 41.5 45.015625 49.421875 
Q 45.015625 57.28125 41.125 61.84375 
Q 37.25 66.40625 30.609375 66.40625 
Q 23.96875 66.40625 20.09375 61.84375 
Q 16.21875 57.28125 16.21875 49.421875 
Q 16.21875 41.5 20.09375 36.953125 
Q 23.96875 32.421875 30.609375 32.421875 
z
" id="DejaVuSans-57"/>
      </defs>
      <g transform="translate(67.096875 111.325072)scale(0.1 -0.1)">
       <use xlink:href="#DejaVuSans-48"/>
       <use x="63.623047" xlink:href="#DejaVuSans-46"/>
       <use x="95.410156" xlink:href="#DejaVuSans-57"/>
      </g>
     </g>
    </g>
    <g id="ytick_8">
     <g id="line2d_15">
      <g>
       <use style="stroke:#000000;stroke-width:0.8;" x="90" xlink:href="#m73d2a906c2" y="63.272195"/>
      </g>
     </g>
     <g id="text_16">
      <!-- 1.0 -->
      <g transform="translate(67.096875 67.071414)scale(0.1 -0.1)">
       <use xlink:href="#DejaVuSans-49"/>
       <use x="63.623047" xlink:href="#DejaVuSans-46"/>
       <use x="95.410156" xlink:href="#DejaVuSans-48"/>
      </g>
     </g>
    </g>
    <g id="text_17">
     <!-- Accuracy -->
     <defs>
      <path d="M 34.1875 63.1875 
L 20.796875 26.90625 
L 47.609375 26.90625 
z
M 28.609375 72.90625 
L 39.796875 72.90625 
L 67.578125 0 
L 57.328125 0 
L 50.6875 18.703125 
L 17.828125 18.703125 
L 11.1875 0 
L 0.78125 0 
z
" id="DejaVuSans-65"/>
      <path d="M 8.5 21.578125 
L 8.5 54.6875 
L 17.484375 54.6875 
L 17.484375 21.921875 
Q 17.484375 14.15625 20.5 10.265625 
Q 23.53125 6.390625 29.59375 6.390625 
Q 36.859375 6.390625 41.078125 11.03125 
Q 45.3125 15.671875 45.3125 23.6875 
L 45.3125 54.6875 
L 54.296875 54.6875 
L 54.296875 0 
L 45.3125 0 
L 45.3125 8.40625 
Q 42.046875 3.421875 37.71875 1 
Q 33.40625 -1.421875 27.6875 -1.421875 
Q 18.265625 -1.421875 13.375 4.4375 
Q 8.5 10.296875 8.5 21.578125 
z
M 31.109375 56 
z
" id="DejaVuSans-117"/>
      <path d="M 41.109375 46.296875 
Q 39.59375 47.171875 37.8125 47.578125 
Q 36.03125 48 33.890625 48 
Q 26.265625 48 22.1875 43.046875 
Q 18.109375 38.09375 18.109375 28.8125 
L 18.109375 0 
L 9.078125 0 
L 9.078125 54.6875 
L 18.109375 54.6875 
L 18.109375 46.1875 
Q 20.953125 51.171875 25.484375 53.578125 
Q 30.03125 56 36.53125 56 
Q 37.453125 56 38.578125 55.875 
Q 39.703125 55.765625 41.0625 55.515625 
z
" id="DejaVuSans-114"/>
      <path d="M 34.28125 27.484375 
Q 23.390625 27.484375 19.1875 25 
Q 14.984375 22.515625 14.984375 16.5 
Q 14.984375 11.71875 18.140625 8.90625 
Q 21.296875 6.109375 26.703125 6.109375 
Q 34.1875 6.109375 38.703125 11.40625 
Q 43.21875 16.703125 43.21875 25.484375 
L 43.21875 27.484375 
z
M 52.203125 31.203125 
L 52.203125 0 
L 43.21875 0 
L 43.21875 8.296875 
Q 40.140625 3.328125 35.546875 0.953125 
Q 30.953125 -1.421875 24.3125 -1.421875 
Q 15.921875 -1.421875 10.953125 3.296875 
Q 6 8.015625 6 15.921875 
Q 6 25.140625 12.171875 29.828125 
Q 18.359375 34.515625 30.609375 34.515625 
L 43.21875 34.515625 
L 43.21875 35.40625 
Q 43.21875 41.609375 39.140625 45 
Q 35.0625 48.390625 27.6875 48.390625 
Q 23 48.390625 18.546875 47.265625 
Q 14.109375 46.140625 10.015625 43.890625 
L 10.015625 52.203125 
Q 14.9375 54.109375 19.578125 55.046875 
Q 24.21875 56 28.609375 56 
Q 40.484375 56 46.34375 49.84375 
Q 52.203125 43.703125 52.203125 31.203125 
z
" id="DejaVuSans-97"/>
      <path d="M 32.171875 -5.078125 
Q 28.375 -14.84375 24.75 -17.8125 
Q 21.140625 -20.796875 15.09375 -20.796875 
L 7.90625 -20.796875 
L 7.90625 -13.28125 
L 13.1875 -13.28125 
Q 16.890625 -13.28125 18.9375 -11.515625 
Q 21 -9.765625 23.484375 -3.21875 
L 25.09375 0.875 
L 2.984375 54.6875 
L 12.5 54.6875 
L 29.59375 11.921875 
L 46.6875 54.6875 
L 56.203125 54.6875 
z
" id="DejaVuSans-121"/>
     </defs>
     <g transform="translate(61.017187 240.988125)rotate(-90)scale(0.1 -0.1)">
      <use xlink:href="#DejaVuSans-65"/>
      <use x="66.658203" xlink:href="#DejaVuSans-99"/>
      <use x="121.638672" xlink:href="#DejaVuSans-99"/>
      <use x="176.619141" xlink:href="#DejaVuSans-117"/>
      <use x="239.998047" xlink:href="#DejaVuSans-114"/>
      <use x="281.111328" xlink:href="#DejaVuSans-97"/>
      <use x="342.390625" xlink:href="#DejaVuSans-99"/>
      <use x="397.371094" xlink:href="#DejaVuSans-121"/>
     </g>
    </g>
   </g>
   <g id="line2d_16">
    <path clip-path="url(#p3c9de8a44c)" d="M 90 369.36 
L 90.845455 291.916098 
L 91.690909 269.789268 
L 93.381818 199.720976 
L 94.227273 129.652683 
L 95.072727 122.277073 
L 95.918182 122.277073 
L 97.609091 114.901463 
L 98.454545 107.525854 
L 99.3 103.838049 
L 100.990909 103.838049 
L 101.836364 96.462439 
L 106.063636 96.462439 
L 106.909091 92.774634 
L 110.290909 92.774634 
L 111.136364 89.086829 
L 114.518182 89.086829 
L 115.363636 85.399024 
L 127.2 85.399024 
L 128.045455 81.71122 
L 134.809091 81.71122 
L 135.654545 78.023415 
L 146.645455 78.023415 
L 147.490909 74.33561 
L 222.736364 74.33561 
L 223.581818 78.023415 
L 292.909091 78.023415 
L 293.754545 74.33561 
L 335.181818 74.33561 
L 336.027273 70.647805 
L 342.790909 70.647805 
L 342.790909 70.647805 
" style="fill:none;stroke:#1f77b4;stroke-dasharray:5.55,2.4;stroke-dashoffset:0;stroke-width:1.5;"/>
   </g>
   <g id="line2d_17">
    <path clip-path="url(#p3c9de8a44c)" d="M 90 266.101463 
L 90.845455 232.91122 
L 94.227273 218.16 
L 96.763636 218.16 
L 97.609091 229.223415 
L 98.454545 229.223415 
L 99.3 236.599024 
L 100.145455 232.91122 
L 100.990909 232.91122 
L 101.836364 229.223415 
L 102.681818 236.599024 
L 108.6 236.599024 
L 109.445455 229.223415 
L 110.290909 229.223415 
L 111.136364 221.847805 
L 111.981818 199.720976 
L 112.827273 192.345366 
L 113.672727 177.594146 
L 114.518182 177.594146 
L 115.363636 155.467317 
L 116.209091 140.716098 
L 117.054545 111.213659 
L 117.9 103.838049 
L 118.745455 89.086829 
L 119.590909 96.462439 
L 120.436364 85.399024 
L 121.281818 89.086829 
L 128.890909 89.086829 
L 129.736364 92.774634 
L 132.272727 92.774634 
L 133.118182 85.399024 
L 151.718182 85.399024 
L 152.563636 89.086829 
L 158.481818 89.086829 
L 159.327273 85.399024 
L 169.472727 85.399024 
L 170.318182 81.71122 
L 177.927273 81.71122 
L 178.772727 78.023415 
L 189.763636 78.023415 
L 190.609091 81.71122 
L 193.145455 81.71122 
L 193.990909 78.023415 
L 194.836364 78.023415 
L 195.681818 81.71122 
L 198.218182 81.71122 
L 199.063636 78.023415 
L 203.290909 78.023415 
L 204.136364 81.71122 
L 233.727273 81.71122 
L 234.572727 78.023415 
L 286.990909 78.023415 
L 287.836364 74.33561 
L 319.118182 74.33561 
L 319.963636 78.023415 
L 342.790909 78.023415 
L 342.790909 78.023415 
" style="fill:none;stroke:#ff7f0e;stroke-dasharray:5.55,2.4;stroke-dashoffset:0;stroke-width:1.5;"/>
   </g>
   <g id="line2d_18">
    <path clip-path="url(#p3c9de8a44c)" d="M 90 192.345366 
L 90.845455 162.842927 
L 91.690909 151.779512 
L 93.381818 137.028293 
L 94.227273 133.340488 
L 95.072727 122.277073 
L 95.918182 114.901463 
L 97.609091 107.525854 
L 98.454545 100.150244 
L 99.3 103.838049 
L 100.145455 100.150244 
L 101.836364 100.150244 
L 102.681818 96.462439 
L 106.909091 96.462439 
L 107.754545 100.150244 
L 108.6 96.462439 
L 119.590909 96.462439 
L 120.436364 89.086829 
L 121.281818 89.086829 
L 122.127273 92.774634 
L 122.972727 89.086829 
L 123.818182 89.086829 
L 124.663636 85.399024 
L 128.045455 85.399024 
L 129.736364 78.023415 
L 144.109091 78.023415 
L 144.954545 74.33561 
L 186.381818 74.33561 
L 187.227273 78.023415 
L 250.636364 78.023415 
L 251.481818 74.33561 
L 342.790909 74.33561 
L 342.790909 74.33561 
" style="fill:none;stroke:#2ca02c;stroke-dasharray:5.55,2.4;stroke-dashoffset:0;stroke-width:1.5;"/>
   </g>
   <g id="line2d_19">
    <path clip-path="url(#p3c9de8a44c)" d="M 90 218.16 
L 91.690909 140.716098 
L 92.536364 133.340488 
L 93.381818 118.589268 
L 95.072727 111.213659 
L 95.918182 100.150244 
L 99.3 100.150244 
L 100.145455 96.462439 
L 101.836364 96.462439 
L 102.681818 92.774634 
L 107.754545 92.774634 
L 108.6 89.086829 
L 110.290909 89.086829 
L 111.136364 85.399024 
L 111.981818 85.399024 
L 112.827273 81.71122 
L 115.363636 81.71122 
L 116.209091 78.023415 
L 118.745455 78.023415 
L 119.590909 74.33561 
L 150.872727 74.33561 
L 151.718182 66.96 
L 152.563636 74.33561 
L 153.409091 74.33561 
L 154.254545 66.96 
L 155.1 78.023415 
L 155.945455 74.33561 
L 156.790909 66.96 
L 157.636364 78.023415 
L 158.481818 74.33561 
L 159.327273 66.96 
L 160.172727 78.023415 
L 161.018182 66.96 
L 161.863636 78.023415 
L 162.709091 66.96 
L 163.554545 78.023415 
L 164.4 66.96 
L 165.245455 78.023415 
L 166.090909 74.33561 
L 166.936364 66.96 
L 167.781818 74.33561 
L 168.627273 66.96 
L 169.472727 74.33561 
L 170.318182 66.96 
L 171.163636 74.33561 
L 172.009091 66.96 
L 172.854545 70.647805 
L 173.7 66.96 
L 174.545455 70.647805 
L 175.390909 66.96 
L 176.236364 70.647805 
L 177.081818 66.96 
L 177.927273 70.647805 
L 178.772727 66.96 
L 179.618182 70.647805 
L 180.463636 66.96 
L 181.309091 70.647805 
L 182.154545 66.96 
L 183 70.647805 
L 183.845455 66.96 
L 184.690909 70.647805 
L 185.536364 66.96 
L 186.381818 70.647805 
L 187.227273 66.96 
L 188.072727 70.647805 
L 188.918182 66.96 
L 189.763636 70.647805 
L 190.609091 66.96 
L 191.454545 70.647805 
L 192.3 66.96 
L 193.145455 70.647805 
L 193.990909 66.96 
L 194.836364 70.647805 
L 195.681818 66.96 
L 196.527273 70.647805 
L 197.372727 66.96 
L 198.218182 70.647805 
L 199.063636 66.96 
L 199.909091 70.647805 
L 200.754545 66.96 
L 201.6 70.647805 
L 202.445455 66.96 
L 203.290909 70.647805 
L 204.136364 66.96 
L 204.981818 66.96 
L 205.827273 70.647805 
L 206.672727 66.96 
L 207.518182 70.647805 
L 208.363636 66.96 
L 209.209091 66.96 
L 210.054545 70.647805 
L 210.9 66.96 
L 211.745455 70.647805 
L 212.590909 66.96 
L 213.436364 66.96 
L 214.281818 70.647805 
L 215.127273 66.96 
L 215.972727 66.96 
L 216.818182 70.647805 
L 217.663636 66.96 
L 218.509091 66.96 
L 219.354545 70.647805 
L 220.2 66.96 
L 221.045455 66.96 
L 221.890909 70.647805 
L 222.736364 66.96 
L 223.581818 66.96 
L 224.427273 70.647805 
L 225.272727 66.96 
L 226.118182 66.96 
L 226.963636 70.647805 
L 227.809091 66.96 
L 228.654545 66.96 
L 229.5 70.647805 
L 230.345455 66.96 
L 231.190909 66.96 
L 232.036364 70.647805 
L 232.881818 66.96 
L 233.727273 66.96 
L 234.572727 70.647805 
L 235.418182 66.96 
L 236.263636 66.96 
L 237.109091 70.647805 
L 237.954545 66.96 
L 239.645455 74.33561 
L 240.490909 66.96 
L 241.336364 74.33561 
L 242.181818 66.96 
L 243.027273 74.33561 
L 243.872727 66.96 
L 244.718182 74.33561 
L 245.563636 70.647805 
L 251.481818 70.647805 
L 252.327273 66.96 
L 253.172727 70.647805 
L 254.018182 66.96 
L 254.863636 70.647805 
L 255.709091 66.96 
L 256.554545 70.647805 
L 257.4 66.96 
L 258.245455 70.647805 
L 259.090909 66.96 
L 259.936364 70.647805 
L 260.781818 66.96 
L 261.627273 70.647805 
L 262.472727 66.96 
L 263.318182 70.647805 
L 264.163636 66.96 
L 265.009091 70.647805 
L 265.854545 66.96 
L 266.7 70.647805 
L 267.545455 66.96 
L 268.390909 70.647805 
L 269.236364 66.96 
L 270.081818 70.647805 
L 270.927273 66.96 
L 271.772727 70.647805 
L 272.618182 66.96 
L 273.463636 70.647805 
L 274.309091 66.96 
L 275.154545 70.647805 
L 276 66.96 
L 276.845455 70.647805 
L 277.690909 66.96 
L 278.536364 70.647805 
L 330.954545 70.647805 
L 331.8 66.96 
L 332.645455 70.647805 
L 333.490909 66.96 
L 334.336364 70.647805 
L 335.181818 66.96 
L 336.027273 70.647805 
L 336.872727 66.96 
L 337.718182 70.647805 
L 338.563636 66.96 
L 339.409091 70.647805 
L 340.254545 66.96 
L 341.1 70.647805 
L 341.945455 66.96 
L 342.790909 70.647805 
L 342.790909 70.647805 
" style="fill:none;stroke:#d62728;stroke-dasharray:5.55,2.4;stroke-dashoffset:0;stroke-width:1.5;"/>
   </g>
   <g id="line2d_20">
    <path clip-path="url(#p3c9de8a44c)" d="M 90 299.291707 
L 90.845455 269.789268 
L 91.690909 210.78439 
L 92.536364 181.281951 
L 93.381818 107.525854 
L 94.227273 92.774634 
L 95.072727 92.774634 
L 95.918182 78.023415 
L 101.836364 78.023415 
L 102.681818 92.774634 
L 120.436364 92.774634 
L 121.281818 107.525854 
L 342.790909 107.525854 
L 342.790909 107.525854 
" style="fill:none;stroke:#1f77b4;stroke-linecap:square;stroke-width:1.5;"/>
   </g>
   <g id="line2d_21">
    <path clip-path="url(#p3c9de8a44c)" d="M 90 181.281951 
L 99.3 181.281951 
L 100.145455 151.779512 
L 100.990909 166.530732 
L 105.218182 166.530732 
L 106.063636 151.779512 
L 111.981818 151.779512 
L 112.827273 137.028293 
L 113.672727 137.028293 
L 115.363636 107.525854 
L 118.745455 107.525854 
L 119.590909 122.277073 
L 120.436364 122.277073 
L 121.281818 107.525854 
L 342.790909 107.525854 
L 342.790909 107.525854 
" style="fill:none;stroke:#ff7f0e;stroke-linecap:square;stroke-width:1.5;"/>
   </g>
   <g id="line2d_22">
    <path clip-path="url(#p3c9de8a44c)" d="M 90 166.530732 
L 90.845455 151.779512 
L 91.690909 122.277073 
L 92.536364 107.525854 
L 94.227273 137.028293 
L 95.072727 122.277073 
L 95.918182 92.774634 
L 96.763636 122.277073 
L 97.609091 122.277073 
L 98.454545 78.023415 
L 99.3 122.277073 
L 100.145455 122.277073 
L 100.990909 78.023415 
L 101.836364 122.277073 
L 102.681818 78.023415 
L 103.527273 92.774634 
L 104.372727 78.023415 
L 105.218182 78.023415 
L 106.909091 107.525854 
L 107.754545 107.525854 
L 108.6 92.774634 
L 109.445455 107.525854 
L 342.790909 107.525854 
L 342.790909 107.525854 
" style="fill:none;stroke:#2ca02c;stroke-linecap:square;stroke-width:1.5;"/>
   </g>
   <g id="line2d_23">
    <path clip-path="url(#p3c9de8a44c)" d="M 90 181.281951 
L 90.845455 137.028293 
L 91.690909 151.779512 
L 92.536364 137.028293 
L 93.381818 151.779512 
L 94.227273 137.028293 
L 97.609091 137.028293 
L 98.454545 122.277073 
L 99.3 122.277073 
L 100.145455 107.525854 
L 342.790909 107.525854 
L 342.790909 107.525854 
" style="fill:none;stroke:#d62728;stroke-linecap:square;stroke-width:1.5;"/>
   </g>
   <g id="patch_3">
    <path d="M 90 384.48 
L 90 51.84 
" style="fill:none;stroke:#000000;stroke-linecap:square;stroke-linejoin:miter;stroke-width:0.8;"/>
   </g>
   <g id="patch_4">
    <path d="M 343.636364 384.48 
L 343.636364 51.84 
" style="fill:none;stroke:#000000;stroke-linecap:square;stroke-linejoin:miter;stroke-width:0.8;"/>
   </g>
   <g id="patch_5">
    <path d="M 90 384.48 
L 343.636364 384.48 
" style="fill:none;stroke:#000000;stroke-linecap:square;stroke-linejoin:miter;stroke-width:0.8;"/>
   </g>
   <g id="patch_6">
    <path d="M 90 51.84 
L 343.636364 51.84 
" style="fill:none;stroke:#000000;stroke-linecap:square;stroke-linejoin:miter;stroke-width:0.8;"/>
   </g>
   <g id="legend_1">
    <g id="patch_7">
     <path d="M 194.751989 379.48 
L 336.636364 379.48 
Q 338.636364 379.48 338.636364 377.48 
L 338.636364 261.055 
Q 338.636364 259.055 336.636364 259.055 
L 194.751989 259.055 
Q 192.751989 259.055 192.751989 261.055 
L 192.751989 377.48 
Q 192.751989 379.48 194.751989 379.48 
z
" style="fill:#ffffff;opacity:0.8;stroke:#cccccc;stroke-linejoin:miter;"/>
    </g>
    <g id="line2d_24">
     <path d="M 196.751989 267.153437 
L 216.751989 267.153437 
" style="fill:none;stroke:#1f77b4;stroke-dasharray:5.55,2.4;stroke-dashoffset:0;stroke-width:1.5;"/>
    </g>
    <g id="line2d_25"/>
    <g id="text_18">
     <!-- train w/ ReLU 2 units -->
     <defs>
      <path d="M 18.3125 70.21875 
L 18.3125 54.6875 
L 36.8125 54.6875 
L 36.8125 47.703125 
L 18.3125 47.703125 
L 18.3125 18.015625 
Q 18.3125 11.328125 20.140625 9.421875 
Q 21.96875 7.515625 27.59375 7.515625 
L 36.8125 7.515625 
L 36.8125 0 
L 27.59375 0 
Q 17.1875 0 13.234375 3.875 
Q 9.28125 7.765625 9.28125 18.015625 
L 9.28125 47.703125 
L 2.6875 47.703125 
L 2.6875 54.6875 
L 9.28125 54.6875 
L 9.28125 70.21875 
z
" id="DejaVuSans-116"/>
      <path d="M 9.421875 54.6875 
L 18.40625 54.6875 
L 18.40625 0 
L 9.421875 0 
z
M 9.421875 75.984375 
L 18.40625 75.984375 
L 18.40625 64.59375 
L 9.421875 64.59375 
z
" id="DejaVuSans-105"/>
      <path d="M 54.890625 33.015625 
L 54.890625 0 
L 45.90625 0 
L 45.90625 32.71875 
Q 45.90625 40.484375 42.875 44.328125 
Q 39.84375 48.1875 33.796875 48.1875 
Q 26.515625 48.1875 22.3125 43.546875 
Q 18.109375 38.921875 18.109375 30.90625 
L 18.109375 0 
L 9.078125 0 
L 9.078125 54.6875 
L 18.109375 54.6875 
L 18.109375 46.1875 
Q 21.34375 51.125 25.703125 53.5625 
Q 30.078125 56 35.796875 56 
Q 45.21875 56 50.046875 50.171875 
Q 54.890625 44.34375 54.890625 33.015625 
z
" id="DejaVuSans-110"/>
      <path id="DejaVuSans-32"/>
      <path d="M 4.203125 54.6875 
L 13.1875 54.6875 
L 24.421875 12.015625 
L 35.59375 54.6875 
L 46.1875 54.6875 
L 57.421875 12.015625 
L 68.609375 54.6875 
L 77.59375 54.6875 
L 63.28125 0 
L 52.6875 0 
L 40.921875 44.828125 
L 29.109375 0 
L 18.5 0 
z
" id="DejaVuSans-119"/>
      <path d="M 25.390625 72.90625 
L 33.6875 72.90625 
L 8.296875 -9.28125 
L 0 -9.28125 
z
" id="DejaVuSans-47"/>
      <path d="M 44.390625 34.1875 
Q 47.5625 33.109375 50.5625 29.59375 
Q 53.5625 26.078125 56.59375 19.921875 
L 66.609375 0 
L 56 0 
L 46.6875 18.703125 
Q 43.0625 26.03125 39.671875 28.421875 
Q 36.28125 30.8125 30.421875 30.8125 
L 19.671875 30.8125 
L 19.671875 0 
L 9.8125 0 
L 9.8125 72.90625 
L 32.078125 72.90625 
Q 44.578125 72.90625 50.734375 67.671875 
Q 56.890625 62.453125 56.890625 51.90625 
Q 56.890625 45.015625 53.6875 40.46875 
Q 50.484375 35.9375 44.390625 34.1875 
z
M 19.671875 64.796875 
L 19.671875 38.921875 
L 32.078125 38.921875 
Q 39.203125 38.921875 42.84375 42.21875 
Q 46.484375 45.515625 46.484375 51.90625 
Q 46.484375 58.296875 42.84375 61.546875 
Q 39.203125 64.796875 32.078125 64.796875 
z
" id="DejaVuSans-82"/>
      <path d="M 56.203125 29.59375 
L 56.203125 25.203125 
L 14.890625 25.203125 
Q 15.484375 15.921875 20.484375 11.0625 
Q 25.484375 6.203125 34.421875 6.203125 
Q 39.59375 6.203125 44.453125 7.46875 
Q 49.3125 8.734375 54.109375 11.28125 
L 54.109375 2.78125 
Q 49.265625 0.734375 44.1875 -0.34375 
Q 39.109375 -1.421875 33.890625 -1.421875 
Q 20.796875 -1.421875 13.15625 6.1875 
Q 5.515625 13.8125 5.515625 26.8125 
Q 5.515625 40.234375 12.765625 48.109375 
Q 20.015625 56 32.328125 56 
Q 43.359375 56 49.78125 48.890625 
Q 56.203125 41.796875 56.203125 29.59375 
z
M 47.21875 32.234375 
Q 47.125 39.59375 43.09375 43.984375 
Q 39.0625 48.390625 32.421875 48.390625 
Q 24.90625 48.390625 20.390625 44.140625 
Q 15.875 39.890625 15.1875 32.171875 
z
" id="DejaVuSans-101"/>
      <path d="M 9.8125 72.90625 
L 19.671875 72.90625 
L 19.671875 8.296875 
L 55.171875 8.296875 
L 55.171875 0 
L 9.8125 0 
z
" id="DejaVuSans-76"/>
      <path d="M 8.6875 72.90625 
L 18.609375 72.90625 
L 18.609375 28.609375 
Q 18.609375 16.890625 22.84375 11.734375 
Q 27.09375 6.59375 36.625 6.59375 
Q 46.09375 6.59375 50.34375 11.734375 
Q 54.59375 16.890625 54.59375 28.609375 
L 54.59375 72.90625 
L 64.5 72.90625 
L 64.5 27.390625 
Q 64.5 13.140625 57.4375 5.859375 
Q 50.390625 -1.421875 36.625 -1.421875 
Q 22.796875 -1.421875 15.734375 5.859375 
Q 8.6875 13.140625 8.6875 27.390625 
z
" id="DejaVuSans-85"/>
      <path d="M 44.28125 53.078125 
L 44.28125 44.578125 
Q 40.484375 46.53125 36.375 47.5 
Q 32.28125 48.484375 27.875 48.484375 
Q 21.1875 48.484375 17.84375 46.4375 
Q 14.5 44.390625 14.5 40.28125 
Q 14.5 37.15625 16.890625 35.375 
Q 19.28125 33.59375 26.515625 31.984375 
L 29.59375 31.296875 
Q 39.15625 29.25 43.1875 25.515625 
Q 47.21875 21.78125 47.21875 15.09375 
Q 47.21875 7.46875 41.1875 3.015625 
Q 35.15625 -1.421875 24.609375 -1.421875 
Q 20.21875 -1.421875 15.453125 -0.5625 
Q 10.6875 0.296875 5.421875 2 
L 5.421875 11.28125 
Q 10.40625 8.6875 15.234375 7.390625 
Q 20.0625 6.109375 24.8125 6.109375 
Q 31.15625 6.109375 34.5625 8.28125 
Q 37.984375 10.453125 37.984375 14.40625 
Q 37.984375 18.0625 35.515625 20.015625 
Q 33.0625 21.96875 24.703125 23.78125 
L 21.578125 24.515625 
Q 13.234375 26.265625 9.515625 29.90625 
Q 5.8125 33.546875 5.8125 39.890625 
Q 5.8125 47.609375 11.28125 51.796875 
Q 16.75 56 26.8125 56 
Q 31.78125 56 36.171875 55.265625 
Q 40.578125 54.546875 44.28125 53.078125 
z
" id="DejaVuSans-115"/>
     </defs>
     <g transform="translate(224.751989 270.653437)scale(0.1 -0.1)">
      <use xlink:href="#DejaVuSans-116"/>
      <use x="39.208984" xlink:href="#DejaVuSans-114"/>
      <use x="80.322266" xlink:href="#DejaVuSans-97"/>
      <use x="141.601562" xlink:href="#DejaVuSans-105"/>
      <use x="169.384766" xlink:href="#DejaVuSans-110"/>
      <use x="232.763672" xlink:href="#DejaVuSans-32"/>
      <use x="264.550781" xlink:href="#DejaVuSans-119"/>
      <use x="346.337891" xlink:href="#DejaVuSans-47"/>
      <use x="380.029297" xlink:href="#DejaVuSans-32"/>
      <use x="411.816406" xlink:href="#DejaVuSans-82"/>
      <use x="476.798828" xlink:href="#DejaVuSans-101"/>
      <use x="538.322266" xlink:href="#DejaVuSans-76"/>
      <use x="589.035156" xlink:href="#DejaVuSans-85"/>
      <use x="662.228516" xlink:href="#DejaVuSans-32"/>
      <use x="694.015625" xlink:href="#DejaVuSans-50"/>
      <use x="757.638672" xlink:href="#DejaVuSans-32"/>
      <use x="789.425781" xlink:href="#DejaVuSans-117"/>
      <use x="852.804688" xlink:href="#DejaVuSans-110"/>
      <use x="916.183594" xlink:href="#DejaVuSans-105"/>
      <use x="943.966797" xlink:href="#DejaVuSans-116"/>
      <use x="983.175781" xlink:href="#DejaVuSans-115"/>
     </g>
    </g>
    <g id="line2d_26">
     <path d="M 196.751989 281.831563 
L 216.751989 281.831563 
" style="fill:none;stroke:#ff7f0e;stroke-dasharray:5.55,2.4;stroke-dashoffset:0;stroke-width:1.5;"/>
    </g>
    <g id="line2d_27"/>
    <g id="text_19">
     <!-- train w/ ReLU 4 units -->
     <g transform="translate(224.751989 285.331563)scale(0.1 -0.1)">
      <use xlink:href="#DejaVuSans-116"/>
      <use x="39.208984" xlink:href="#DejaVuSans-114"/>
      <use x="80.322266" xlink:href="#DejaVuSans-97"/>
      <use x="141.601562" xlink:href="#DejaVuSans-105"/>
      <use x="169.384766" xlink:href="#DejaVuSans-110"/>
      <use x="232.763672" xlink:href="#DejaVuSans-32"/>
      <use x="264.550781" xlink:href="#DejaVuSans-119"/>
      <use x="346.337891" xlink:href="#DejaVuSans-47"/>
      <use x="380.029297" xlink:href="#DejaVuSans-32"/>
      <use x="411.816406" xlink:href="#DejaVuSans-82"/>
      <use x="476.798828" xlink:href="#DejaVuSans-101"/>
      <use x="538.322266" xlink:href="#DejaVuSans-76"/>
      <use x="589.035156" xlink:href="#DejaVuSans-85"/>
      <use x="662.228516" xlink:href="#DejaVuSans-32"/>
      <use x="694.015625" xlink:href="#DejaVuSans-52"/>
      <use x="757.638672" xlink:href="#DejaVuSans-32"/>
      <use x="789.425781" xlink:href="#DejaVuSans-117"/>
      <use x="852.804688" xlink:href="#DejaVuSans-110"/>
      <use x="916.183594" xlink:href="#DejaVuSans-105"/>
      <use x="943.966797" xlink:href="#DejaVuSans-116"/>
      <use x="983.175781" xlink:href="#DejaVuSans-115"/>
     </g>
    </g>
    <g id="line2d_28">
     <path d="M 196.751989 296.509688 
L 216.751989 296.509688 
" style="fill:none;stroke:#2ca02c;stroke-dasharray:5.55,2.4;stroke-dashoffset:0;stroke-width:1.5;"/>
    </g>
    <g id="line2d_29"/>
    <g id="text_20">
     <!-- train w/ ReLU 8 units -->
     <g transform="translate(224.751989 300.009688)scale(0.1 -0.1)">
      <use xlink:href="#DejaVuSans-116"/>
      <use x="39.208984" xlink:href="#DejaVuSans-114"/>
      <use x="80.322266" xlink:href="#DejaVuSans-97"/>
      <use x="141.601562" xlink:href="#DejaVuSans-105"/>
      <use x="169.384766" xlink:href="#DejaVuSans-110"/>
      <use x="232.763672" xlink:href="#DejaVuSans-32"/>
      <use x="264.550781" xlink:href="#DejaVuSans-119"/>
      <use x="346.337891" xlink:href="#DejaVuSans-47"/>
      <use x="380.029297" xlink:href="#DejaVuSans-32"/>
      <use x="411.816406" xlink:href="#DejaVuSans-82"/>
      <use x="476.798828" xlink:href="#DejaVuSans-101"/>
      <use x="538.322266" xlink:href="#DejaVuSans-76"/>
      <use x="589.035156" xlink:href="#DejaVuSans-85"/>
      <use x="662.228516" xlink:href="#DejaVuSans-32"/>
      <use x="694.015625" xlink:href="#DejaVuSans-56"/>
      <use x="757.638672" xlink:href="#DejaVuSans-32"/>
      <use x="789.425781" xlink:href="#DejaVuSans-117"/>
      <use x="852.804688" xlink:href="#DejaVuSans-110"/>
      <use x="916.183594" xlink:href="#DejaVuSans-105"/>
      <use x="943.966797" xlink:href="#DejaVuSans-116"/>
      <use x="983.175781" xlink:href="#DejaVuSans-115"/>
     </g>
    </g>
    <g id="line2d_30">
     <path d="M 196.751989 311.187813 
L 216.751989 311.187813 
" style="fill:none;stroke:#d62728;stroke-dasharray:5.55,2.4;stroke-dashoffset:0;stroke-width:1.5;"/>
    </g>
    <g id="line2d_31"/>
    <g id="text_21">
     <!-- train w/ ReLU 16 units -->
     <g transform="translate(224.751989 314.687813)scale(0.1 -0.1)">
      <use xlink:href="#DejaVuSans-116"/>
      <use x="39.208984" xlink:href="#DejaVuSans-114"/>
      <use x="80.322266" xlink:href="#DejaVuSans-97"/>
      <use x="141.601562" xlink:href="#DejaVuSans-105"/>
      <use x="169.384766" xlink:href="#DejaVuSans-110"/>
      <use x="232.763672" xlink:href="#DejaVuSans-32"/>
      <use x="264.550781" xlink:href="#DejaVuSans-119"/>
      <use x="346.337891" xlink:href="#DejaVuSans-47"/>
      <use x="380.029297" xlink:href="#DejaVuSans-32"/>
      <use x="411.816406" xlink:href="#DejaVuSans-82"/>
      <use x="476.798828" xlink:href="#DejaVuSans-101"/>
      <use x="538.322266" xlink:href="#DejaVuSans-76"/>
      <use x="589.035156" xlink:href="#DejaVuSans-85"/>
      <use x="662.228516" xlink:href="#DejaVuSans-32"/>
      <use x="694.015625" xlink:href="#DejaVuSans-49"/>
      <use x="757.638672" xlink:href="#DejaVuSans-54"/>
      <use x="821.261719" xlink:href="#DejaVuSans-32"/>
      <use x="853.048828" xlink:href="#DejaVuSans-117"/>
      <use x="916.427734" xlink:href="#DejaVuSans-110"/>
      <use x="979.806641" xlink:href="#DejaVuSans-105"/>
      <use x="1007.589844" xlink:href="#DejaVuSans-116"/>
      <use x="1046.798828" xlink:href="#DejaVuSans-115"/>
     </g>
    </g>
    <g id="line2d_32">
     <path d="M 196.751989 325.865938 
L 216.751989 325.865938 
" style="fill:none;stroke:#1f77b4;stroke-linecap:square;stroke-width:1.5;"/>
    </g>
    <g id="line2d_33"/>
    <g id="text_22">
     <!-- test w/ ReLU 2 units -->
     <g transform="translate(224.751989 329.365938)scale(0.1 -0.1)">
      <use xlink:href="#DejaVuSans-116"/>
      <use x="39.208984" xlink:href="#DejaVuSans-101"/>
      <use x="100.732422" xlink:href="#DejaVuSans-115"/>
      <use x="152.832031" xlink:href="#DejaVuSans-116"/>
      <use x="192.041016" xlink:href="#DejaVuSans-32"/>
      <use x="223.828125" xlink:href="#DejaVuSans-119"/>
      <use x="305.615234" xlink:href="#DejaVuSans-47"/>
      <use x="339.306641" xlink:href="#DejaVuSans-32"/>
      <use x="371.09375" xlink:href="#DejaVuSans-82"/>
      <use x="436.076172" xlink:href="#DejaVuSans-101"/>
      <use x="497.599609" xlink:href="#DejaVuSans-76"/>
      <use x="548.3125" xlink:href="#DejaVuSans-85"/>
      <use x="621.505859" xlink:href="#DejaVuSans-32"/>
      <use x="653.292969" xlink:href="#DejaVuSans-50"/>
      <use x="716.916016" xlink:href="#DejaVuSans-32"/>
      <use x="748.703125" xlink:href="#DejaVuSans-117"/>
      <use x="812.082031" xlink:href="#DejaVuSans-110"/>
      <use x="875.460938" xlink:href="#DejaVuSans-105"/>
      <use x="903.244141" xlink:href="#DejaVuSans-116"/>
      <use x="942.453125" xlink:href="#DejaVuSans-115"/>
     </g>
    </g>
    <g id="line2d_34">
     <path d="M 196.751989 340.544062 
L 216.751989 340.544062 
" style="fill:none;stroke:#ff7f0e;stroke-linecap:square;stroke-width:1.5;"/>
    </g>
    <g id="line2d_35"/>
    <g id="text_23">
     <!-- test w/ ReLU 4 units -->
     <g transform="translate(224.751989 344.044062)scale(0.1 -0.1)">
      <use xlink:href="#DejaVuSans-116"/>
      <use x="39.208984" xlink:href="#DejaVuSans-101"/>
      <use x="100.732422" xlink:href="#DejaVuSans-115"/>
      <use x="152.832031" xlink:href="#DejaVuSans-116"/>
      <use x="192.041016" xlink:href="#DejaVuSans-32"/>
      <use x="223.828125" xlink:href="#DejaVuSans-119"/>
      <use x="305.615234" xlink:href="#DejaVuSans-47"/>
      <use x="339.306641" xlink:href="#DejaVuSans-32"/>
      <use x="371.09375" xlink:href="#DejaVuSans-82"/>
      <use x="436.076172" xlink:href="#DejaVuSans-101"/>
      <use x="497.599609" xlink:href="#DejaVuSans-76"/>
      <use x="548.3125" xlink:href="#DejaVuSans-85"/>
      <use x="621.505859" xlink:href="#DejaVuSans-32"/>
      <use x="653.292969" xlink:href="#DejaVuSans-52"/>
      <use x="716.916016" xlink:href="#DejaVuSans-32"/>
      <use x="748.703125" xlink:href="#DejaVuSans-117"/>
      <use x="812.082031" xlink:href="#DejaVuSans-110"/>
      <use x="875.460938" xlink:href="#DejaVuSans-105"/>
      <use x="903.244141" xlink:href="#DejaVuSans-116"/>
      <use x="942.453125" xlink:href="#DejaVuSans-115"/>
     </g>
    </g>
    <g id="line2d_36">
     <path d="M 196.751989 355.222188 
L 216.751989 355.222188 
" style="fill:none;stroke:#2ca02c;stroke-linecap:square;stroke-width:1.5;"/>
    </g>
    <g id="line2d_37"/>
    <g id="text_24">
     <!-- test w/ ReLU 8 units -->
     <g transform="translate(224.751989 358.722188)scale(0.1 -0.1)">
      <use xlink:href="#DejaVuSans-116"/>
      <use x="39.208984" xlink:href="#DejaVuSans-101"/>
      <use x="100.732422" xlink:href="#DejaVuSans-115"/>
      <use x="152.832031" xlink:href="#DejaVuSans-116"/>
      <use x="192.041016" xlink:href="#DejaVuSans-32"/>
      <use x="223.828125" xlink:href="#DejaVuSans-119"/>
      <use x="305.615234" xlink:href="#DejaVuSans-47"/>
      <use x="339.306641" xlink:href="#DejaVuSans-32"/>
      <use x="371.09375" xlink:href="#DejaVuSans-82"/>
      <use x="436.076172" xlink:href="#DejaVuSans-101"/>
      <use x="497.599609" xlink:href="#DejaVuSans-76"/>
      <use x="548.3125" xlink:href="#DejaVuSans-85"/>
      <use x="621.505859" xlink:href="#DejaVuSans-32"/>
      <use x="653.292969" xlink:href="#DejaVuSans-56"/>
      <use x="716.916016" xlink:href="#DejaVuSans-32"/>
      <use x="748.703125" xlink:href="#DejaVuSans-117"/>
      <use x="812.082031" xlink:href="#DejaVuSans-110"/>
      <use x="875.460938" xlink:href="#DejaVuSans-105"/>
      <use x="903.244141" xlink:href="#DejaVuSans-116"/>
      <use x="942.453125" xlink:href="#DejaVuSans-115"/>
     </g>
    </g>
    <g id="line2d_38">
     <path d="M 196.751989 369.900313 
L 216.751989 369.900313 
" style="fill:none;stroke:#d62728;stroke-linecap:square;stroke-width:1.5;"/>
    </g>
    <g id="line2d_39"/>
    <g id="text_25">
     <!-- test w/ ReLU 16 units -->
     <g transform="translate(224.751989 373.400313)scale(0.1 -0.1)">
      <use xlink:href="#DejaVuSans-116"/>
      <use x="39.208984" xlink:href="#DejaVuSans-101"/>
      <use x="100.732422" xlink:href="#DejaVuSans-115"/>
      <use x="152.832031" xlink:href="#DejaVuSans-116"/>
      <use x="192.041016" xlink:href="#DejaVuSans-32"/>
      <use x="223.828125" xlink:href="#DejaVuSans-119"/>
      <use x="305.615234" xlink:href="#DejaVuSans-47"/>
      <use x="339.306641" xlink:href="#DejaVuSans-32"/>
      <use x="371.09375" xlink:href="#DejaVuSans-82"/>
      <use x="436.076172" xlink:href="#DejaVuSans-101"/>
      <use x="497.599609" xlink:href="#DejaVuSans-76"/>
      <use x="548.3125" xlink:href="#DejaVuSans-85"/>
      <use x="621.505859" xlink:href="#DejaVuSans-32"/>
      <use x="653.292969" xlink:href="#DejaVuSans-49"/>
      <use x="716.916016" xlink:href="#DejaVuSans-54"/>
      <use x="780.539062" xlink:href="#DejaVuSans-32"/>
      <use x="812.326172" xlink:href="#DejaVuSans-117"/>
      <use x="875.705078" xlink:href="#DejaVuSans-110"/>
      <use x="939.083984" xlink:href="#DejaVuSans-105"/>
      <use x="966.867188" xlink:href="#DejaVuSans-116"/>
      <use x="1006.076172" xlink:href="#DejaVuSans-115"/>
     </g>
    </g>
   </g>
  </g>
  <g id="axes_2">
   <g id="patch_8">
    <path d="M 394.363636 384.48 
L 648 384.48 
L 648 51.84 
L 394.363636 51.84 
z
" style="fill:#ffffff;"/>
   </g>
   <g id="matplotlib.axis_3">
    <g id="xtick_8">
     <g id="line2d_40">
      <g>
       <use style="stroke:#000000;stroke-width:0.8;" x="394.363636" xlink:href="#m8cb81c9bcf" y="384.48"/>
      </g>
     </g>
     <g id="text_26">
      <!-- 0 -->
      <g transform="translate(391.182386 399.078438)scale(0.1 -0.1)">
       <use xlink:href="#DejaVuSans-48"/>
      </g>
     </g>
    </g>
    <g id="xtick_9">
     <g id="line2d_41">
      <g>
       <use style="stroke:#000000;stroke-width:0.8;" x="426.068182" xlink:href="#m8cb81c9bcf" y="384.48"/>
      </g>
     </g>
     <g id="text_27">
      <!-- 25 -->
      <g transform="translate(419.705682 399.078438)scale(0.1 -0.1)">
       <use xlink:href="#DejaVuSans-50"/>
       <use x="63.623047" xlink:href="#DejaVuSans-53"/>
      </g>
     </g>
    </g>
    <g id="xtick_10">
     <g id="line2d_42">
      <g>
       <use style="stroke:#000000;stroke-width:0.8;" x="457.772727" xlink:href="#m8cb81c9bcf" y="384.48"/>
      </g>
     </g>
     <g id="text_28">
      <!-- 50 -->
      <g transform="translate(451.410227 399.078438)scale(0.1 -0.1)">
       <use xlink:href="#DejaVuSans-53"/>
       <use x="63.623047" xlink:href="#DejaVuSans-48"/>
      </g>
     </g>
    </g>
    <g id="xtick_11">
     <g id="line2d_43">
      <g>
       <use style="stroke:#000000;stroke-width:0.8;" x="489.477273" xlink:href="#m8cb81c9bcf" y="384.48"/>
      </g>
     </g>
     <g id="text_29">
      <!-- 75 -->
      <g transform="translate(483.114773 399.078438)scale(0.1 -0.1)">
       <use xlink:href="#DejaVuSans-55"/>
       <use x="63.623047" xlink:href="#DejaVuSans-53"/>
      </g>
     </g>
    </g>
    <g id="xtick_12">
     <g id="line2d_44">
      <g>
       <use style="stroke:#000000;stroke-width:0.8;" x="521.181818" xlink:href="#m8cb81c9bcf" y="384.48"/>
      </g>
     </g>
     <g id="text_30">
      <!-- 100 -->
      <g transform="translate(511.638068 399.078438)scale(0.1 -0.1)">
       <use xlink:href="#DejaVuSans-49"/>
       <use x="63.623047" xlink:href="#DejaVuSans-48"/>
       <use x="127.246094" xlink:href="#DejaVuSans-48"/>
      </g>
     </g>
    </g>
    <g id="xtick_13">
     <g id="line2d_45">
      <g>
       <use style="stroke:#000000;stroke-width:0.8;" x="552.886364" xlink:href="#m8cb81c9bcf" y="384.48"/>
      </g>
     </g>
     <g id="text_31">
      <!-- 125 -->
      <g transform="translate(543.342614 399.078438)scale(0.1 -0.1)">
       <use xlink:href="#DejaVuSans-49"/>
       <use x="63.623047" xlink:href="#DejaVuSans-50"/>
       <use x="127.246094" xlink:href="#DejaVuSans-53"/>
      </g>
     </g>
    </g>
    <g id="xtick_14">
     <g id="line2d_46">
      <g>
       <use style="stroke:#000000;stroke-width:0.8;" x="584.590909" xlink:href="#m8cb81c9bcf" y="384.48"/>
      </g>
     </g>
     <g id="text_32">
      <!-- 150 -->
      <g transform="translate(575.047159 399.078438)scale(0.1 -0.1)">
       <use xlink:href="#DejaVuSans-49"/>
       <use x="63.623047" xlink:href="#DejaVuSans-53"/>
       <use x="127.246094" xlink:href="#DejaVuSans-48"/>
      </g>
     </g>
    </g>
    <g id="xtick_15">
     <g id="line2d_47">
      <g>
       <use style="stroke:#000000;stroke-width:0.8;" x="616.295455" xlink:href="#m8cb81c9bcf" y="384.48"/>
      </g>
     </g>
     <g id="text_33">
      <!-- 175 -->
      <g transform="translate(606.751705 399.078438)scale(0.1 -0.1)">
       <use xlink:href="#DejaVuSans-49"/>
       <use x="63.623047" xlink:href="#DejaVuSans-55"/>
       <use x="127.246094" xlink:href="#DejaVuSans-53"/>
      </g>
     </g>
    </g>
    <g id="xtick_16">
     <g id="line2d_48">
      <g>
       <use style="stroke:#000000;stroke-width:0.8;" x="648" xlink:href="#m8cb81c9bcf" y="384.48"/>
      </g>
     </g>
     <g id="text_34">
      <!-- 200 -->
      <g transform="translate(638.45625 399.078438)scale(0.1 -0.1)">
       <use xlink:href="#DejaVuSans-50"/>
       <use x="63.623047" xlink:href="#DejaVuSans-48"/>
       <use x="127.246094" xlink:href="#DejaVuSans-48"/>
      </g>
     </g>
    </g>
    <g id="text_35">
     <!-- Epoch -->
     <g transform="translate(505.870881 412.756563)scale(0.1 -0.1)">
      <use xlink:href="#DejaVuSans-69"/>
      <use x="63.183594" xlink:href="#DejaVuSans-112"/>
      <use x="126.660156" xlink:href="#DejaVuSans-111"/>
      <use x="187.841797" xlink:href="#DejaVuSans-99"/>
      <use x="242.822266" xlink:href="#DejaVuSans-104"/>
     </g>
    </g>
   </g>
   <g id="matplotlib.axis_4">
    <g id="ytick_9">
     <g id="line2d_49">
      <g>
       <use style="stroke:#000000;stroke-width:0.8;" x="394.363636" xlink:href="#m73d2a906c2" y="376.474379"/>
      </g>
     </g>
     <g id="text_36">
      <!-- 0.00 -->
      <g transform="translate(365.098011 380.273598)scale(0.1 -0.1)">
       <use xlink:href="#DejaVuSans-48"/>
       <use x="63.623047" xlink:href="#DejaVuSans-46"/>
       <use x="95.410156" xlink:href="#DejaVuSans-48"/>
       <use x="159.033203" xlink:href="#DejaVuSans-48"/>
      </g>
     </g>
    </g>
    <g id="ytick_10">
     <g id="line2d_50">
      <g>
       <use style="stroke:#000000;stroke-width:0.8;" x="394.363636" xlink:href="#m73d2a906c2" y="330.483296"/>
      </g>
     </g>
     <g id="text_37">
      <!-- 0.25 -->
      <g transform="translate(365.098011 334.282515)scale(0.1 -0.1)">
       <use xlink:href="#DejaVuSans-48"/>
       <use x="63.623047" xlink:href="#DejaVuSans-46"/>
       <use x="95.410156" xlink:href="#DejaVuSans-50"/>
       <use x="159.033203" xlink:href="#DejaVuSans-53"/>
      </g>
     </g>
    </g>
    <g id="ytick_11">
     <g id="line2d_51">
      <g>
       <use style="stroke:#000000;stroke-width:0.8;" x="394.363636" xlink:href="#m73d2a906c2" y="284.492213"/>
      </g>
     </g>
     <g id="text_38">
      <!-- 0.50 -->
      <g transform="translate(365.098011 288.291432)scale(0.1 -0.1)">
       <use xlink:href="#DejaVuSans-48"/>
       <use x="63.623047" xlink:href="#DejaVuSans-46"/>
       <use x="95.410156" xlink:href="#DejaVuSans-53"/>
       <use x="159.033203" xlink:href="#DejaVuSans-48"/>
      </g>
     </g>
    </g>
    <g id="ytick_12">
     <g id="line2d_52">
      <g>
       <use style="stroke:#000000;stroke-width:0.8;" x="394.363636" xlink:href="#m73d2a906c2" y="238.501131"/>
      </g>
     </g>
     <g id="text_39">
      <!-- 0.75 -->
      <g transform="translate(365.098011 242.300349)scale(0.1 -0.1)">
       <use xlink:href="#DejaVuSans-48"/>
       <use x="63.623047" xlink:href="#DejaVuSans-46"/>
       <use x="95.410156" xlink:href="#DejaVuSans-55"/>
       <use x="159.033203" xlink:href="#DejaVuSans-53"/>
      </g>
     </g>
    </g>
    <g id="ytick_13">
     <g id="line2d_53">
      <g>
       <use style="stroke:#000000;stroke-width:0.8;" x="394.363636" xlink:href="#m73d2a906c2" y="192.510048"/>
      </g>
     </g>
     <g id="text_40">
      <!-- 1.00 -->
      <g transform="translate(365.098011 196.309267)scale(0.1 -0.1)">
       <use xlink:href="#DejaVuSans-49"/>
       <use x="63.623047" xlink:href="#DejaVuSans-46"/>
       <use x="95.410156" xlink:href="#DejaVuSans-48"/>
       <use x="159.033203" xlink:href="#DejaVuSans-48"/>
      </g>
     </g>
    </g>
    <g id="ytick_14">
     <g id="line2d_54">
      <g>
       <use style="stroke:#000000;stroke-width:0.8;" x="394.363636" xlink:href="#m73d2a906c2" y="146.518965"/>
      </g>
     </g>
     <g id="text_41">
      <!-- 1.25 -->
      <g transform="translate(365.098011 150.318184)scale(0.1 -0.1)">
       <use xlink:href="#DejaVuSans-49"/>
       <use x="63.623047" xlink:href="#DejaVuSans-46"/>
       <use x="95.410156" xlink:href="#DejaVuSans-50"/>
       <use x="159.033203" xlink:href="#DejaVuSans-53"/>
      </g>
     </g>
    </g>
    <g id="ytick_15">
     <g id="line2d_55">
      <g>
       <use style="stroke:#000000;stroke-width:0.8;" x="394.363636" xlink:href="#m73d2a906c2" y="100.527882"/>
      </g>
     </g>
     <g id="text_42">
      <!-- 1.50 -->
      <g transform="translate(365.098011 104.327101)scale(0.1 -0.1)">
       <use xlink:href="#DejaVuSans-49"/>
       <use x="63.623047" xlink:href="#DejaVuSans-46"/>
       <use x="95.410156" xlink:href="#DejaVuSans-53"/>
       <use x="159.033203" xlink:href="#DejaVuSans-48"/>
      </g>
     </g>
    </g>
    <g id="ytick_16">
     <g id="line2d_56">
      <g>
       <use style="stroke:#000000;stroke-width:0.8;" x="394.363636" xlink:href="#m73d2a906c2" y="54.5368"/>
      </g>
     </g>
     <g id="text_43">
      <!-- 1.75 -->
      <g transform="translate(365.098011 58.336018)scale(0.1 -0.1)">
       <use xlink:href="#DejaVuSans-49"/>
       <use x="63.623047" xlink:href="#DejaVuSans-46"/>
       <use x="95.410156" xlink:href="#DejaVuSans-55"/>
       <use x="159.033203" xlink:href="#DejaVuSans-53"/>
      </g>
     </g>
    </g>
    <g id="text_44">
     <!-- Loss -->
     <g transform="translate(359.018324 229.127187)rotate(-90)scale(0.1 -0.1)">
      <use xlink:href="#DejaVuSans-76"/>
      <use x="53.962891" xlink:href="#DejaVuSans-111"/>
      <use x="115.144531" xlink:href="#DejaVuSans-115"/>
      <use x="167.244141" xlink:href="#DejaVuSans-115"/>
     </g>
    </g>
   </g>
   <g id="line2d_57">
    <path clip-path="url(#p7692238bc4)" d="M 394.363636 68.676868 
L 395.631818 150.49927 
L 396.9 194.323621 
L 398.168182 223.366476 
L 399.436364 243.384883 
L 400.704545 257.165649 
L 401.972727 267.592579 
L 403.240909 275.634789 
L 404.509091 281.760736 
L 405.777273 286.543752 
L 407.045455 290.487896 
L 408.313636 293.883162 
L 409.581818 296.876063 
L 412.118182 301.978977 
L 414.654545 306.248761 
L 417.190909 309.94371 
L 419.727273 313.213732 
L 422.263636 316.149101 
L 424.8 318.808115 
L 427.336364 321.231592 
L 431.140909 324.490722 
L 434.945455 327.36748 
L 438.75 329.923041 
L 442.554545 332.206231 
L 446.359091 334.25673 
L 451.431818 336.684211 
L 456.504545 338.817335 
L 461.577273 340.704788 
L 466.65 342.385206 
L 472.990909 344.241271 
L 479.331818 345.870033 
L 486.940909 347.577006 
L 494.55 349.061301 
L 503.427273 350.563363 
L 513.572727 352.034957 
L 524.986364 353.441807 
L 537.668182 354.762552 
L 551.618182 355.986756 
L 568.104545 357.198171 
L 587.127273 358.359623 
L 609.954545 359.511324 
L 636.586364 360.618779 
L 668.290909 361.705473 
L 706.336364 362.776106 
L 721 363.136566 
L 721 363.136566 
" style="fill:none;stroke:#1f77b4;stroke-dasharray:5.55,2.4;stroke-dashoffset:0;stroke-width:1.5;"/>
   </g>
   <g id="line2d_58">
    <path clip-path="url(#p7692238bc4)" d="M 394.363636 178.382237 
L 395.631818 211.603945 
L 396.9 231.674891 
L 398.168182 244.618102 
L 399.436364 253.565514 
L 400.704545 259.595023 
L 401.972727 263.983479 
L 403.240909 267.181349 
L 404.509091 269.654036 
L 405.777273 271.600515 
L 407.045455 273.11646 
L 408.313636 274.414704 
L 409.581818 275.50144 
L 412.118182 277.21823 
L 414.654545 278.501927 
L 417.190909 279.511941 
L 419.727273 280.323499 
L 423.531818 281.296953 
L 428.604545 282.463695 
L 429.872727 282.932883 
L 431.140909 283.540256 
L 432.409091 284.590305 
L 433.677273 286.270233 
L 434.945455 289.209903 
L 436.213636 293.51602 
L 438.75 303.499435 
L 440.018182 307.013411 
L 441.286364 309.893231 
L 442.554545 312.450336 
L 443.822727 314.748108 
L 445.090909 316.473919 
L 446.359091 318.700194 
L 448.895455 321.950045 
L 451.431818 324.683691 
L 453.968182 327.049464 
L 457.772727 330.201274 
L 459.040909 332.121446 
L 464.113636 335.755737 
L 466.65 337.433916 
L 469.186364 338.7956 
L 475.527273 341.78643 
L 480.6 343.711343 
L 481.868182 343.844203 
L 488.209091 345.867298 
L 499.622727 349.109951 
L 504.695455 350.334112 
L 518.645455 353.303298 
L 519.913636 353.364703 
L 528.790909 354.945305 
L 538.936364 356.479581 
L 541.472727 356.815362 
L 542.740909 357.274567 
L 549.081818 357.97572 
L 550.35 358.295857 
L 561.763636 359.273986 
L 584.590909 360.91108 
L 611.222727 362.486371 
L 630.245455 363.379181 
L 646.731818 363.905288 
L 667.022727 364.307733 
L 696.190909 364.636963 
L 721 364.874048 
L 721 364.874048 
" style="fill:none;stroke:#ff7f0e;stroke-dasharray:5.55,2.4;stroke-dashoffset:0;stroke-width:1.5;"/>
   </g>
   <g id="line2d_59">
    <path clip-path="url(#p7692238bc4)" d="M 394.363636 198.239962 
L 395.631818 282.712895 
L 396.9 295.523685 
L 398.168182 304.49926 
L 399.436364 310.724993 
L 400.704545 315.699174 
L 403.240909 322.952985 
L 404.509091 327.625866 
L 405.777273 329.267045 
L 407.045455 329.700948 
L 408.313636 334.580742 
L 409.581818 333.599525 
L 410.85 334.857446 
L 412.118182 337.677109 
L 413.386364 337.49144 
L 414.654545 339.292685 
L 415.922727 339.953971 
L 417.190909 341.126336 
L 418.459091 341.984411 
L 419.727273 344.693353 
L 420.995455 340.795221 
L 422.263636 344.414469 
L 424.8 345.823886 
L 426.068182 347.531257 
L 427.336364 344.367997 
L 428.604545 347.68023 
L 434.945455 350.307779 
L 436.213636 351.604942 
L 437.481818 349.222678 
L 438.75 350.184441 
L 440.018182 352.122188 
L 441.286364 353.1179 
L 442.554545 351.243731 
L 443.822727 353.189582 
L 445.090909 354.05165 
L 446.359091 352.333531 
L 447.627273 354.108353 
L 448.895455 354.861714 
L 450.163636 353.165174 
L 451.431818 354.912302 
L 452.7 355.151685 
L 453.968182 355.826985 
L 455.236364 354.139683 
L 456.504545 355.859239 
L 460.309091 356.468903 
L 461.577273 357.045791 
L 462.845455 355.334735 
L 464.113636 357.073675 
L 471.722727 358.20704 
L 472.990909 358.731589 
L 474.259091 356.732682 
L 475.527273 358.782045 
L 481.868182 359.613756 
L 483.136364 359.691425 
L 485.672727 360.093025 
L 489.477273 360.549339 
L 490.745455 360.901704 
L 492.013636 358.88984 
L 493.281818 361.010143 
L 502.159091 361.891234 
L 505.963636 362.198394 
L 509.768182 362.687843 
L 511.036364 360.812329 
L 512.304545 362.940924 
L 513.572727 361.035919 
L 514.840909 363.14426 
L 516.109091 361.248614 
L 517.377273 363.353438 
L 518.645455 361.475551 
L 519.913636 361.802539 
L 521.181818 363.6461 
L 522.45 361.805232 
L 524.986364 362.170694 
L 526.254545 362.326852 
L 527.522727 363.594592 
L 528.790909 364.089368 
L 549.081818 365.048636 
L 564.3 365.588644 
L 606.15 366.169103 
L 609.954545 366.148186 
L 637.854545 366.171664 
L 680.972727 366.084594 
L 701.263636 366.222181 
L 721 366.584204 
L 721 366.584204 
" style="fill:none;stroke:#2ca02c;stroke-dasharray:5.55,2.4;stroke-dashoffset:0;stroke-width:1.5;"/>
   </g>
   <g id="line2d_60">
    <path clip-path="url(#p7692238bc4)" d="M 394.363636 66.96 
L 395.631818 237.581424 
L 396.9 299.838736 
L 398.168182 316.166919 
L 399.436364 323.836228 
L 401.972727 329.751863 
L 403.240909 334.529538 
L 404.509091 337.240212 
L 405.777273 339.095776 
L 407.045455 340.648111 
L 409.581818 343.235544 
L 413.386364 346.467849 
L 415.922727 348.211655 
L 419.727273 350.457292 
L 422.263636 351.751025 
L 424.8 352.771346 
L 427.336364 353.780745 
L 431.140909 355.055224 
L 433.677273 355.852365 
L 445.090909 358.251605 
L 451.431818 359.21497 
L 453.968182 359.565354 
L 462.845455 360.753597 
L 467.918182 361.284762 
L 475.527273 362.032166 
L 483.136364 362.677889 
L 485.672727 362.810815 
L 486.940909 365.567113 
L 488.209091 362.801751 
L 489.477273 362.994585 
L 490.745455 365.79832 
L 492.013636 362.903303 
L 493.281818 363.203707 
L 494.55 366.021656 
L 495.818182 363.100925 
L 497.086364 363.403236 
L 498.354545 366.204017 
L 499.622727 363.215711 
L 500.890909 366.318889 
L 502.159091 363.301152 
L 503.427273 366.402196 
L 504.695455 363.407605 
L 505.963636 366.526967 
L 507.231818 363.703989 
L 508.5 363.839603 
L 509.768182 366.636837 
L 511.036364 363.705071 
L 512.304545 366.693218 
L 513.572727 363.793559 
L 514.840909 366.759686 
L 516.109091 363.889351 
L 517.377273 366.840151 
L 518.645455 363.981804 
L 519.913636 366.891229 
L 521.181818 364.078732 
L 522.45 366.944124 
L 523.718182 364.167994 
L 524.986364 367.001529 
L 526.254545 364.25337 
L 527.522727 367.045053 
L 528.790909 364.330725 
L 530.059091 367.109167 
L 531.327273 364.409529 
L 532.595455 367.149803 
L 533.863636 364.481528 
L 535.131818 367.180901 
L 536.4 364.548879 
L 537.668182 367.21155 
L 538.936364 364.619133 
L 540.204545 367.240263 
L 541.472727 364.675527 
L 542.740909 367.25935 
L 544.009091 364.726648 
L 545.277273 367.286693 
L 546.545455 364.774936 
L 547.813636 367.304838 
L 549.081818 364.947218 
L 550.35 367.19458 
L 551.618182 364.964185 
L 552.886364 367.213864 
L 554.154545 364.95522 
L 555.422727 367.197808 
L 556.690909 365.073768 
L 557.959091 367.097591 
L 559.227273 365.095538 
L 560.495455 367.094534 
L 561.763636 365.123641 
L 563.031818 367.086174 
L 564.3 365.712674 
L 565.568182 366.860648 
L 566.836364 367.573679 
L 568.104545 365.215266 
L 569.372727 367.082787 
L 570.640909 365.775265 
L 571.909091 366.82416 
L 573.177273 367.577999 
L 574.445455 365.814414 
L 575.713636 367.266306 
L 576.981818 365.842942 
L 578.25 366.774416 
L 579.518182 367.566219 
L 580.786364 365.871543 
L 583.322727 367.568486 
L 584.590909 365.882511 
L 587.127273 367.549126 
L 588.395455 365.892409 
L 590.931818 367.515743 
L 592.2 365.903818 
L 593.468182 366.632535 
L 594.736364 367.49571 
L 596.004545 365.916498 
L 597.272727 366.595134 
L 598.540909 367.457341 
L 599.809091 365.932069 
L 601.077273 366.551014 
L 602.345455 367.438686 
L 603.613636 365.949777 
L 604.881818 366.519166 
L 606.15 367.411275 
L 607.418182 365.971514 
L 608.686364 366.483062 
L 609.954545 367.397831 
L 611.222727 365.995552 
L 612.490909 366.453447 
L 613.759091 367.382973 
L 615.027273 366.022839 
L 616.295455 367.13629 
L 617.563636 366.264326 
L 618.831818 366.44244 
L 620.1 367.386805 
L 621.368182 366.416024 
L 622.636364 367.300095 
L 623.904545 366.408516 
L 625.172727 367.290902 
L 626.440909 366.390698 
L 627.709091 367.308492 
L 628.977273 367.162516 
L 630.245455 366.47807 
L 631.513636 367.211703 
L 632.781818 366.526267 
L 634.05 367.241698 
L 635.318182 366.596613 
L 636.586364 367.284617 
L 637.854545 366.68224 
L 639.122727 367.320059 
L 640.390909 366.755515 
L 641.659091 367.322688 
L 642.927273 366.827037 
L 644.195455 367.389715 
L 645.463636 366.907828 
L 646.731818 367.417496 
L 648 366.96677 
L 649.268182 367.450278 
L 650.536364 367.028403 
L 651.804545 367.47729 
L 653.072727 367.084561 
L 654.340909 367.517532 
L 655.609091 367.150204 
L 656.877273 367.551229 
L 658.145455 367.209828 
L 659.413636 367.585968 
L 660.681818 367.267542 
L 661.95 367.615136 
L 663.218182 367.320705 
L 664.486364 367.657712 
L 665.754545 367.384525 
L 667.022727 367.691795 
L 668.290909 367.479622 
L 669.559091 367.760966 
L 670.827273 367.585954 
L 672.095455 367.802272 
L 673.363636 367.64372 
L 674.631818 367.835722 
L 675.9 367.695081 
L 677.168182 367.882501 
L 678.436364 367.756407 
L 679.704545 367.923167 
L 680.972727 367.81171 
L 682.240909 367.964663 
L 683.509091 367.866558 
L 684.777273 367.98143 
L 686.045455 367.921915 
L 687.313636 368.043766 
L 688.581818 367.968084 
L 689.85 368.084963 
L 691.118182 368.02158 
L 692.386364 368.127051 
L 693.654545 368.073813 
L 694.922727 368.163618 
L 696.190909 368.119252 
L 697.459091 368.210626 
L 699.995455 368.25228 
L 703.8 368.276726 
L 708.872727 368.381572 
L 721 368.596443 
L 721 368.596443 
" style="fill:none;stroke:#d62728;stroke-dasharray:5.55,2.4;stroke-dashoffset:0;stroke-width:1.5;"/>
   </g>
   <g id="line2d_61">
    <path clip-path="url(#p7692238bc4)" d="M 394.363636 166.486948 
L 395.631818 204.835073 
L 396.9 234.565444 
L 398.168182 247.721145 
L 399.436364 257.112824 
L 403.240909 278.566012 
L 404.509091 284.870409 
L 405.777273 290.353529 
L 407.045455 295.007549 
L 408.313636 298.928095 
L 409.581818 302.244022 
L 410.85 305.076278 
L 412.118182 307.524111 
L 413.386364 309.664602 
L 414.654545 311.556544 
L 417.190909 314.763784 
L 419.727273 317.395619 
L 422.263636 319.606196 
L 424.8 321.49545 
L 427.336364 323.131292 
L 429.872727 324.56189 
L 433.677273 326.398151 
L 437.481818 327.937078 
L 441.286364 329.239328 
L 446.359091 330.682685 
L 451.431818 331.860253 
L 456.504545 332.827835 
L 462.845455 333.804745 
L 470.454545 334.714359 
L 479.331818 335.50797 
L 489.477273 336.165344 
L 502.159091 336.738919 
L 518.645455 337.240071 
L 544.009091 337.761309 
L 615.027273 338.904075 
L 677.168182 339.742872 
L 721 340.163638 
L 721 340.163638 
" style="fill:none;stroke:#1f77b4;stroke-linecap:square;stroke-width:1.5;"/>
   </g>
   <g id="line2d_62">
    <path clip-path="url(#p7692238bc4)" d="M 394.363636 230.070963 
L 395.631818 253.156696 
L 396.9 267.116092 
L 398.168182 277.140182 
L 399.436364 283.714141 
L 400.704545 288.475667 
L 401.972727 291.491054 
L 403.240909 293.762216 
L 404.509091 295.525049 
L 405.777273 296.930648 
L 407.045455 298.078352 
L 408.313636 299.02257 
L 410.85 300.50156 
L 413.386364 301.607221 
L 415.922727 302.45767 
L 419.727273 303.451833 
L 424.8 304.47706 
L 427.336364 304.978664 
L 429.872727 305.704917 
L 431.140909 306.383433 
L 432.409091 307.490334 
L 433.677273 308.788953 
L 434.945455 310.640346 
L 436.213636 313.584619 
L 437.481818 315.634949 
L 438.75 316.506096 
L 440.018182 317.168405 
L 441.286364 318.266346 
L 445.090909 322.587734 
L 447.627273 324.909998 
L 448.895455 325.860967 
L 451.431818 327.299515 
L 456.504545 329.712215 
L 462.845455 332.357182 
L 466.65 334.055868 
L 469.186364 334.664047 
L 474.259091 335.527475 
L 479.331818 335.924041 
L 484.404545 336.053478 
L 489.477273 335.942687 
L 493.281818 335.717275 
L 495.818182 335.420092 
L 497.086364 335.423597 
L 500.890909 335.005028 
L 504.695455 334.458142 
L 508.5 333.800963 
L 514.840909 332.305626 
L 521.181818 330.442857 
L 528.790909 327.838189 
L 544.009091 322.400534 
L 546.545455 321.537345 
L 550.35 320.750651 
L 559.227273 319.046159 
L 571.909091 316.880402 
L 575.713636 316.258706 
L 576.981818 316.642095 
L 598.540909 312.771729 
L 621.368182 309.045763 
L 634.05 307.170694 
L 648 305.291631 
L 661.95 303.611884 
L 675.9 302.160937 
L 688.581818 301.073951 
L 699.995455 300.305708 
L 711.409091 299.744188 
L 721 299.428751 
L 721 299.428751 
" style="fill:none;stroke:#ff7f0e;stroke-linecap:square;stroke-width:1.5;"/>
   </g>
   <g id="line2d_63">
    <path clip-path="url(#p7692238bc4)" d="M 394.363636 282.145687 
L 395.631818 301.510991 
L 396.9 313.280349 
L 398.168182 321.091958 
L 399.436364 327.544336 
L 400.704545 328.94746 
L 401.972727 333.155963 
L 403.240909 339.34996 
L 404.509091 328.936527 
L 405.777273 332.257851 
L 407.045455 344.758922 
L 408.313636 332.975024 
L 409.581818 337.295584 
L 410.85 347.774863 
L 412.118182 338.850188 
L 413.386364 348.909805 
L 414.654545 344.733439 
L 415.922727 349.615784 
L 417.190909 349.852363 
L 418.459091 349.300376 
L 419.727273 335.342282 
L 420.995455 345.928996 
L 422.263636 349.892719 
L 423.531818 349.802172 
L 424.8 349.032927 
L 426.068182 334.160926 
L 427.336364 345.152186 
L 428.604545 348.92898 
L 429.872727 348.186927 
L 431.140909 344.279529 
L 432.409091 347.827733 
L 433.677273 347.092646 
L 434.945455 343.633763 
L 436.213636 331.724055 
L 437.481818 331.595264 
L 438.75 345.310503 
L 440.018182 341.451883 
L 441.286364 330.053689 
L 442.554545 343.988134 
L 443.822727 340.598834 
L 445.090909 328.356165 
L 446.359091 342.771675 
L 447.627273 339.739901 
L 448.895455 326.420625 
L 450.163636 341.494115 
L 451.431818 340.638934 
L 452.7 337.671076 
L 453.968182 323.525407 
L 455.236364 339.055632 
L 459.040909 336.717128 
L 460.309091 333.815536 
L 461.577273 318.627717 
L 462.845455 335.698967 
L 465.381818 334.480399 
L 470.454545 331.334665 
L 471.722727 328.519548 
L 472.990909 310.675431 
L 474.259091 330.13595 
L 479.331818 327.429354 
L 488.209091 321.947649 
L 489.477273 319.115278 
L 490.745455 298.568113 
L 492.013636 320.675741 
L 500.890909 315.37844 
L 507.231818 311.720946 
L 508.5 308.39381 
L 509.768182 286.28807 
L 511.036364 306.748016 
L 512.304545 284.917333 
L 513.572727 305.220418 
L 514.840909 283.580416 
L 516.109091 303.592969 
L 517.377273 282.279907 
L 518.645455 283.529606 
L 519.913636 301.875782 
L 521.181818 280.568255 
L 522.45 281.880441 
L 523.718182 282.260754 
L 524.986364 282.048955 
L 526.254545 293.785605 
L 527.522727 303.334353 
L 540.204545 296.819865 
L 552.886364 290.599177 
L 561.763636 286.489878 
L 571.909091 282.053272 
L 579.518182 278.935302 
L 593.468182 273.542457 
L 607.418182 268.437298 
L 620.1 264.093919 
L 630.245455 260.866366 
L 637.854545 258.653474 
L 645.463636 256.676974 
L 651.804545 255.243209 
L 658.145455 254.034187 
L 664.486364 253.077532 
L 670.827273 252.395061 
L 675.9 252.061871 
L 680.972727 251.925438 
L 686.045455 251.99012 
L 691.118182 252.256362 
L 696.190909 252.718374 
L 702.531818 253.552283 
L 708.872727 254.636788 
L 716.481818 256.202498 
L 721 257.234142 
L 721 257.234142 
" style="fill:none;stroke:#2ca02c;stroke-linecap:square;stroke-width:1.5;"/>
   </g>
   <g id="line2d_64">
    <path clip-path="url(#p7692238bc4)" d="M 394.363636 203.15283 
L 395.631818 286.317508 
L 396.9 320.526706 
L 398.168182 326.885028 
L 400.704545 333.6767 
L 401.972727 336.37427 
L 403.240909 337.876469 
L 404.509091 339.788173 
L 405.777273 341.426738 
L 407.045455 342.847718 
L 408.313636 344.061606 
L 409.581818 345.071295 
L 412.118182 346.527854 
L 414.654545 347.48751 
L 417.190909 348.03503 
L 419.727273 348.269862 
L 423.531818 347.986052 
L 431.140909 346.384973 
L 433.677273 345.660581 
L 437.481818 344.472799 
L 443.822727 342.480234 
L 455.236364 338.167462 
L 461.577273 335.44503 
L 470.454545 331.320249 
L 485.672727 323.898757 
L 486.940909 323.50764 
L 489.477273 322.195945 
L 490.745455 321.832466 
L 493.281818 320.505835 
L 494.55 320.13334 
L 497.086364 318.818763 
L 498.354545 318.452123 
L 499.622727 317.815821 
L 500.890909 317.423315 
L 502.159091 316.797044 
L 503.427273 316.391954 
L 504.695455 315.772666 
L 505.963636 315.360618 
L 508.5 314.122376 
L 509.768182 313.746218 
L 511.036364 313.113646 
L 512.304545 312.743863 
L 513.572727 312.115919 
L 514.840909 311.750256 
L 516.109091 311.112052 
L 517.377273 310.768446 
L 518.645455 310.106442 
L 519.913636 309.786265 
L 521.181818 309.10902 
L 522.45 308.81442 
L 523.718182 308.130497 
L 524.986364 307.850689 
L 526.254545 307.146806 
L 527.522727 306.89871 
L 528.790909 306.173366 
L 530.059091 305.953136 
L 531.327273 305.194152 
L 532.595455 305.018265 
L 533.863636 304.294333 
L 535.131818 304.094411 
L 536.4 303.48597 
L 537.668182 303.188602 
L 540.204545 302.28955 
L 541.472727 302.001868 
L 542.740909 301.399589 
L 544.009091 301.25968 
L 545.277273 300.528957 
L 546.545455 300.571686 
L 547.813636 299.666831 
L 550.35 298.894144 
L 551.618182 298.364235 
L 552.886364 298.170341 
L 554.154545 297.524413 
L 555.422727 297.405172 
L 556.690909 296.585572 
L 557.959091 296.730864 
L 559.227273 295.883388 
L 560.495455 296.047778 
L 561.763636 295.255406 
L 563.031818 295.370627 
L 564.3 294.274032 
L 565.568182 295.56027 
L 566.836364 293.861951 
L 569.372727 293.576883 
L 570.640909 292.436824 
L 571.909091 294.164287 
L 573.177273 292.077618 
L 574.445455 291.341749 
L 575.713636 292.865484 
L 576.981818 290.84732 
L 578.25 293.052711 
L 579.518182 290.52341 
L 580.786364 289.77874 
L 582.054545 292.373437 
L 583.322727 289.495277 
L 584.590909 288.847666 
L 585.859091 291.659744 
L 587.127273 288.518057 
L 588.395455 288.065824 
L 589.663636 291.010104 
L 590.931818 287.594748 
L 592.2 287.371818 
L 593.468182 290.404529 
L 594.736364 286.828018 
L 596.004545 286.689668 
L 597.272727 289.848809 
L 598.540909 286.275425 
L 599.809091 286.086702 
L 601.077273 289.329971 
L 602.345455 285.747946 
L 603.613636 285.5069 
L 604.881818 288.85393 
L 606.15 285.302348 
L 607.418182 284.999397 
L 608.686364 288.406024 
L 609.954545 284.865743 
L 611.222727 284.517777 
L 612.490909 287.984146 
L 613.759091 284.477881 
L 615.027273 284.092587 
L 616.295455 288.616496 
L 617.563636 284.180481 
L 618.831818 287.658555 
L 620.1 284.226533 
L 621.368182 287.250087 
L 622.636364 284.007797 
L 623.904545 287.03364 
L 625.172727 283.75284 
L 626.440909 286.874878 
L 627.709091 283.445206 
L 628.977273 289.183276 
L 630.245455 283.294629 
L 631.513636 288.858248 
L 632.781818 283.310859 
L 634.05 288.935802 
L 635.318182 283.328156 
L 636.586364 289.189382 
L 637.854545 283.362944 
L 639.122727 289.387002 
L 640.390909 283.418157 
L 641.659091 289.421949 
L 642.927273 283.275875 
L 644.195455 289.499309 
L 645.463636 283.145336 
L 646.731818 289.484676 
L 648 283.123209 
L 649.268182 289.539193 
L 650.536364 283.126679 
L 651.804545 289.514229 
L 653.072727 283.134531 
L 654.340909 289.665552 
L 655.609091 283.17259 
L 656.877273 289.747137 
L 658.145455 283.235485 
L 659.413636 289.815323 
L 660.681818 283.31839 
L 661.95 289.815819 
L 663.218182 283.398903 
L 664.486364 289.99637 
L 665.754545 283.476484 
L 667.022727 290.106771 
L 668.290909 284.081763 
L 669.559091 290.884784 
L 670.827273 284.235659 
L 672.095455 290.999397 
L 673.363636 284.365106 
L 674.631818 291.026408 
L 675.9 284.505741 
L 677.168182 291.208817 
L 678.436364 284.665017 
L 679.704545 291.324933 
L 680.972727 284.837197 
L 682.240909 291.444655 
L 683.509091 285.01251 
L 684.777273 291.456108 
L 686.045455 285.000625 
L 687.313636 291.49762 
L 688.581818 285.193355 
L 689.85 291.641529 
L 691.118182 285.40015 
L 692.386364 291.7835 
L 693.654545 285.60192 
L 694.922727 291.835347 
L 696.190909 285.783335 
L 697.459091 292.041142 
L 698.727273 285.978149 
L 699.995455 292.184657 
L 701.263636 286.175299 
L 702.531818 292.320045 
L 703.8 286.375295 
L 705.068182 292.363314 
L 706.336364 286.550921 
L 707.604545 292.557286 
L 708.872727 286.586982 
L 710.140909 292.551994 
L 711.409091 286.789289 
L 712.677273 292.756929 
L 713.945455 287.005384 
L 715.213636 292.822149 
L 716.481818 287.190412 
L 717.75 292.946059 
L 719.018182 287.410845 
L 720.286364 293.101107 
L 721 290.013547 
L 721 290.013547 
" style="fill:none;stroke:#d62728;stroke-linecap:square;stroke-width:1.5;"/>
   </g>
   <g id="patch_9">
    <path d="M 394.363636 384.48 
L 394.363636 51.84 
" style="fill:none;stroke:#000000;stroke-linecap:square;stroke-linejoin:miter;stroke-width:0.8;"/>
   </g>
   <g id="patch_10">
    <path d="M 648 384.48 
L 648 51.84 
" style="fill:none;stroke:#000000;stroke-linecap:square;stroke-linejoin:miter;stroke-width:0.8;"/>
   </g>
   <g id="patch_11">
    <path d="M 394.363636 384.48 
L 648 384.48 
" style="fill:none;stroke:#000000;stroke-linecap:square;stroke-linejoin:miter;stroke-width:0.8;"/>
   </g>
   <g id="patch_12">
    <path d="M 394.363636 51.84 
L 648 51.84 
" style="fill:none;stroke:#000000;stroke-linecap:square;stroke-linejoin:miter;stroke-width:0.8;"/>
   </g>
   <g id="legend_2">
    <g id="patch_13">
     <path d="M 499.115625 177.265 
L 641 177.265 
Q 643 177.265 643 175.265 
L 643 58.84 
Q 643 56.84 641 56.84 
L 499.115625 56.84 
Q 497.115625 56.84 497.115625 58.84 
L 497.115625 175.265 
Q 497.115625 177.265 499.115625 177.265 
z
" style="fill:#ffffff;opacity:0.8;stroke:#cccccc;stroke-linejoin:miter;"/>
    </g>
    <g id="line2d_65">
     <path d="M 501.115625 64.938437 
L 521.115625 64.938437 
" style="fill:none;stroke:#1f77b4;stroke-dasharray:5.55,2.4;stroke-dashoffset:0;stroke-width:1.5;"/>
    </g>
    <g id="line2d_66"/>
    <g id="text_45">
     <!-- train w/ ReLU 2 units -->
     <g transform="translate(529.115625 68.438437)scale(0.1 -0.1)">
      <use xlink:href="#DejaVuSans-116"/>
      <use x="39.208984" xlink:href="#DejaVuSans-114"/>
      <use x="80.322266" xlink:href="#DejaVuSans-97"/>
      <use x="141.601562" xlink:href="#DejaVuSans-105"/>
      <use x="169.384766" xlink:href="#DejaVuSans-110"/>
      <use x="232.763672" xlink:href="#DejaVuSans-32"/>
      <use x="264.550781" xlink:href="#DejaVuSans-119"/>
      <use x="346.337891" xlink:href="#DejaVuSans-47"/>
      <use x="380.029297" xlink:href="#DejaVuSans-32"/>
      <use x="411.816406" xlink:href="#DejaVuSans-82"/>
      <use x="476.798828" xlink:href="#DejaVuSans-101"/>
      <use x="538.322266" xlink:href="#DejaVuSans-76"/>
      <use x="589.035156" xlink:href="#DejaVuSans-85"/>
      <use x="662.228516" xlink:href="#DejaVuSans-32"/>
      <use x="694.015625" xlink:href="#DejaVuSans-50"/>
      <use x="757.638672" xlink:href="#DejaVuSans-32"/>
      <use x="789.425781" xlink:href="#DejaVuSans-117"/>
      <use x="852.804688" xlink:href="#DejaVuSans-110"/>
      <use x="916.183594" xlink:href="#DejaVuSans-105"/>
      <use x="943.966797" xlink:href="#DejaVuSans-116"/>
      <use x="983.175781" xlink:href="#DejaVuSans-115"/>
     </g>
    </g>
    <g id="line2d_67">
     <path d="M 501.115625 79.616562 
L 521.115625 79.616562 
" style="fill:none;stroke:#ff7f0e;stroke-dasharray:5.55,2.4;stroke-dashoffset:0;stroke-width:1.5;"/>
    </g>
    <g id="line2d_68"/>
    <g id="text_46">
     <!-- train w/ ReLU 4 units -->
     <g transform="translate(529.115625 83.116562)scale(0.1 -0.1)">
      <use xlink:href="#DejaVuSans-116"/>
      <use x="39.208984" xlink:href="#DejaVuSans-114"/>
      <use x="80.322266" xlink:href="#DejaVuSans-97"/>
      <use x="141.601562" xlink:href="#DejaVuSans-105"/>
      <use x="169.384766" xlink:href="#DejaVuSans-110"/>
      <use x="232.763672" xlink:href="#DejaVuSans-32"/>
      <use x="264.550781" xlink:href="#DejaVuSans-119"/>
      <use x="346.337891" xlink:href="#DejaVuSans-47"/>
      <use x="380.029297" xlink:href="#DejaVuSans-32"/>
      <use x="411.816406" xlink:href="#DejaVuSans-82"/>
      <use x="476.798828" xlink:href="#DejaVuSans-101"/>
      <use x="538.322266" xlink:href="#DejaVuSans-76"/>
      <use x="589.035156" xlink:href="#DejaVuSans-85"/>
      <use x="662.228516" xlink:href="#DejaVuSans-32"/>
      <use x="694.015625" xlink:href="#DejaVuSans-52"/>
      <use x="757.638672" xlink:href="#DejaVuSans-32"/>
      <use x="789.425781" xlink:href="#DejaVuSans-117"/>
      <use x="852.804688" xlink:href="#DejaVuSans-110"/>
      <use x="916.183594" xlink:href="#DejaVuSans-105"/>
      <use x="943.966797" xlink:href="#DejaVuSans-116"/>
      <use x="983.175781" xlink:href="#DejaVuSans-115"/>
     </g>
    </g>
    <g id="line2d_69">
     <path d="M 501.115625 94.294687 
L 521.115625 94.294687 
" style="fill:none;stroke:#2ca02c;stroke-dasharray:5.55,2.4;stroke-dashoffset:0;stroke-width:1.5;"/>
    </g>
    <g id="line2d_70"/>
    <g id="text_47">
     <!-- train w/ ReLU 8 units -->
     <g transform="translate(529.115625 97.794687)scale(0.1 -0.1)">
      <use xlink:href="#DejaVuSans-116"/>
      <use x="39.208984" xlink:href="#DejaVuSans-114"/>
      <use x="80.322266" xlink:href="#DejaVuSans-97"/>
      <use x="141.601562" xlink:href="#DejaVuSans-105"/>
      <use x="169.384766" xlink:href="#DejaVuSans-110"/>
      <use x="232.763672" xlink:href="#DejaVuSans-32"/>
      <use x="264.550781" xlink:href="#DejaVuSans-119"/>
      <use x="346.337891" xlink:href="#DejaVuSans-47"/>
      <use x="380.029297" xlink:href="#DejaVuSans-32"/>
      <use x="411.816406" xlink:href="#DejaVuSans-82"/>
      <use x="476.798828" xlink:href="#DejaVuSans-101"/>
      <use x="538.322266" xlink:href="#DejaVuSans-76"/>
      <use x="589.035156" xlink:href="#DejaVuSans-85"/>
      <use x="662.228516" xlink:href="#DejaVuSans-32"/>
      <use x="694.015625" xlink:href="#DejaVuSans-56"/>
      <use x="757.638672" xlink:href="#DejaVuSans-32"/>
      <use x="789.425781" xlink:href="#DejaVuSans-117"/>
      <use x="852.804688" xlink:href="#DejaVuSans-110"/>
      <use x="916.183594" xlink:href="#DejaVuSans-105"/>
      <use x="943.966797" xlink:href="#DejaVuSans-116"/>
      <use x="983.175781" xlink:href="#DejaVuSans-115"/>
     </g>
    </g>
    <g id="line2d_71">
     <path d="M 501.115625 108.972812 
L 521.115625 108.972812 
" style="fill:none;stroke:#d62728;stroke-dasharray:5.55,2.4;stroke-dashoffset:0;stroke-width:1.5;"/>
    </g>
    <g id="line2d_72"/>
    <g id="text_48">
     <!-- train w/ ReLU 16 units -->
     <g transform="translate(529.115625 112.472812)scale(0.1 -0.1)">
      <use xlink:href="#DejaVuSans-116"/>
      <use x="39.208984" xlink:href="#DejaVuSans-114"/>
      <use x="80.322266" xlink:href="#DejaVuSans-97"/>
      <use x="141.601562" xlink:href="#DejaVuSans-105"/>
      <use x="169.384766" xlink:href="#DejaVuSans-110"/>
      <use x="232.763672" xlink:href="#DejaVuSans-32"/>
      <use x="264.550781" xlink:href="#DejaVuSans-119"/>
      <use x="346.337891" xlink:href="#DejaVuSans-47"/>
      <use x="380.029297" xlink:href="#DejaVuSans-32"/>
      <use x="411.816406" xlink:href="#DejaVuSans-82"/>
      <use x="476.798828" xlink:href="#DejaVuSans-101"/>
      <use x="538.322266" xlink:href="#DejaVuSans-76"/>
      <use x="589.035156" xlink:href="#DejaVuSans-85"/>
      <use x="662.228516" xlink:href="#DejaVuSans-32"/>
      <use x="694.015625" xlink:href="#DejaVuSans-49"/>
      <use x="757.638672" xlink:href="#DejaVuSans-54"/>
      <use x="821.261719" xlink:href="#DejaVuSans-32"/>
      <use x="853.048828" xlink:href="#DejaVuSans-117"/>
      <use x="916.427734" xlink:href="#DejaVuSans-110"/>
      <use x="979.806641" xlink:href="#DejaVuSans-105"/>
      <use x="1007.589844" xlink:href="#DejaVuSans-116"/>
      <use x="1046.798828" xlink:href="#DejaVuSans-115"/>
     </g>
    </g>
    <g id="line2d_73">
     <path d="M 501.115625 123.650937 
L 521.115625 123.650937 
" style="fill:none;stroke:#1f77b4;stroke-linecap:square;stroke-width:1.5;"/>
    </g>
    <g id="line2d_74"/>
    <g id="text_49">
     <!-- test w/ ReLU 2 units -->
     <g transform="translate(529.115625 127.150937)scale(0.1 -0.1)">
      <use xlink:href="#DejaVuSans-116"/>
      <use x="39.208984" xlink:href="#DejaVuSans-101"/>
      <use x="100.732422" xlink:href="#DejaVuSans-115"/>
      <use x="152.832031" xlink:href="#DejaVuSans-116"/>
      <use x="192.041016" xlink:href="#DejaVuSans-32"/>
      <use x="223.828125" xlink:href="#DejaVuSans-119"/>
      <use x="305.615234" xlink:href="#DejaVuSans-47"/>
      <use x="339.306641" xlink:href="#DejaVuSans-32"/>
      <use x="371.09375" xlink:href="#DejaVuSans-82"/>
      <use x="436.076172" xlink:href="#DejaVuSans-101"/>
      <use x="497.599609" xlink:href="#DejaVuSans-76"/>
      <use x="548.3125" xlink:href="#DejaVuSans-85"/>
      <use x="621.505859" xlink:href="#DejaVuSans-32"/>
      <use x="653.292969" xlink:href="#DejaVuSans-50"/>
      <use x="716.916016" xlink:href="#DejaVuSans-32"/>
      <use x="748.703125" xlink:href="#DejaVuSans-117"/>
      <use x="812.082031" xlink:href="#DejaVuSans-110"/>
      <use x="875.460938" xlink:href="#DejaVuSans-105"/>
      <use x="903.244141" xlink:href="#DejaVuSans-116"/>
      <use x="942.453125" xlink:href="#DejaVuSans-115"/>
     </g>
    </g>
    <g id="line2d_75">
     <path d="M 501.115625 138.329062 
L 521.115625 138.329062 
" style="fill:none;stroke:#ff7f0e;stroke-linecap:square;stroke-width:1.5;"/>
    </g>
    <g id="line2d_76"/>
    <g id="text_50">
     <!-- test w/ ReLU 4 units -->
     <g transform="translate(529.115625 141.829062)scale(0.1 -0.1)">
      <use xlink:href="#DejaVuSans-116"/>
      <use x="39.208984" xlink:href="#DejaVuSans-101"/>
      <use x="100.732422" xlink:href="#DejaVuSans-115"/>
      <use x="152.832031" xlink:href="#DejaVuSans-116"/>
      <use x="192.041016" xlink:href="#DejaVuSans-32"/>
      <use x="223.828125" xlink:href="#DejaVuSans-119"/>
      <use x="305.615234" xlink:href="#DejaVuSans-47"/>
      <use x="339.306641" xlink:href="#DejaVuSans-32"/>
      <use x="371.09375" xlink:href="#DejaVuSans-82"/>
      <use x="436.076172" xlink:href="#DejaVuSans-101"/>
      <use x="497.599609" xlink:href="#DejaVuSans-76"/>
      <use x="548.3125" xlink:href="#DejaVuSans-85"/>
      <use x="621.505859" xlink:href="#DejaVuSans-32"/>
      <use x="653.292969" xlink:href="#DejaVuSans-52"/>
      <use x="716.916016" xlink:href="#DejaVuSans-32"/>
      <use x="748.703125" xlink:href="#DejaVuSans-117"/>
      <use x="812.082031" xlink:href="#DejaVuSans-110"/>
      <use x="875.460938" xlink:href="#DejaVuSans-105"/>
      <use x="903.244141" xlink:href="#DejaVuSans-116"/>
      <use x="942.453125" xlink:href="#DejaVuSans-115"/>
     </g>
    </g>
    <g id="line2d_77">
     <path d="M 501.115625 153.007187 
L 521.115625 153.007187 
" style="fill:none;stroke:#2ca02c;stroke-linecap:square;stroke-width:1.5;"/>
    </g>
    <g id="line2d_78"/>
    <g id="text_51">
     <!-- test w/ ReLU 8 units -->
     <g transform="translate(529.115625 156.507187)scale(0.1 -0.1)">
      <use xlink:href="#DejaVuSans-116"/>
      <use x="39.208984" xlink:href="#DejaVuSans-101"/>
      <use x="100.732422" xlink:href="#DejaVuSans-115"/>
      <use x="152.832031" xlink:href="#DejaVuSans-116"/>
      <use x="192.041016" xlink:href="#DejaVuSans-32"/>
      <use x="223.828125" xlink:href="#DejaVuSans-119"/>
      <use x="305.615234" xlink:href="#DejaVuSans-47"/>
      <use x="339.306641" xlink:href="#DejaVuSans-32"/>
      <use x="371.09375" xlink:href="#DejaVuSans-82"/>
      <use x="436.076172" xlink:href="#DejaVuSans-101"/>
      <use x="497.599609" xlink:href="#DejaVuSans-76"/>
      <use x="548.3125" xlink:href="#DejaVuSans-85"/>
      <use x="621.505859" xlink:href="#DejaVuSans-32"/>
      <use x="653.292969" xlink:href="#DejaVuSans-56"/>
      <use x="716.916016" xlink:href="#DejaVuSans-32"/>
      <use x="748.703125" xlink:href="#DejaVuSans-117"/>
      <use x="812.082031" xlink:href="#DejaVuSans-110"/>
      <use x="875.460938" xlink:href="#DejaVuSans-105"/>
      <use x="903.244141" xlink:href="#DejaVuSans-116"/>
      <use x="942.453125" xlink:href="#DejaVuSans-115"/>
     </g>
    </g>
    <g id="line2d_79">
     <path d="M 501.115625 167.685312 
L 521.115625 167.685312 
" style="fill:none;stroke:#d62728;stroke-linecap:square;stroke-width:1.5;"/>
    </g>
    <g id="line2d_80"/>
    <g id="text_52">
     <!-- test w/ ReLU 16 units -->
     <g transform="translate(529.115625 171.185312)scale(0.1 -0.1)">
      <use xlink:href="#DejaVuSans-116"/>
      <use x="39.208984" xlink:href="#DejaVuSans-101"/>
      <use x="100.732422" xlink:href="#DejaVuSans-115"/>
      <use x="152.832031" xlink:href="#DejaVuSans-116"/>
      <use x="192.041016" xlink:href="#DejaVuSans-32"/>
      <use x="223.828125" xlink:href="#DejaVuSans-119"/>
      <use x="305.615234" xlink:href="#DejaVuSans-47"/>
      <use x="339.306641" xlink:href="#DejaVuSans-32"/>
      <use x="371.09375" xlink:href="#DejaVuSans-82"/>
      <use x="436.076172" xlink:href="#DejaVuSans-101"/>
      <use x="497.599609" xlink:href="#DejaVuSans-76"/>
      <use x="548.3125" xlink:href="#DejaVuSans-85"/>
      <use x="621.505859" xlink:href="#DejaVuSans-32"/>
      <use x="653.292969" xlink:href="#DejaVuSans-49"/>
      <use x="716.916016" xlink:href="#DejaVuSans-54"/>
      <use x="780.539062" xlink:href="#DejaVuSans-32"/>
      <use x="812.326172" xlink:href="#DejaVuSans-117"/>
      <use x="875.705078" xlink:href="#DejaVuSans-110"/>
      <use x="939.083984" xlink:href="#DejaVuSans-105"/>
      <use x="966.867188" xlink:href="#DejaVuSans-116"/>
      <use x="1006.076172" xlink:href="#DejaVuSans-115"/>
     </g>
    </g>
   </g>
  </g>
 </g>
 <defs>
  <clipPath id="p3c9de8a44c">
   <rect height="332.64" width="253.636364" x="90" y="51.84"/>
  </clipPath>
  <clipPath id="p7692238bc4">
   <rect height="332.64" width="253.636364" x="394.363636" y="51.84"/>
  </clipPath>
 </defs>
</svg>
